<svg width="59" height="59" viewBox="0 0 59 59" fill="none" xmlns="http://www.w3.org/2000/svg">
<path d="M15.0474 57.5036C13.6872 57.5029 12.3829 56.9628 11.4204 56.0017C10.458 55.0407 9.9161 53.7371 9.91356 52.3769V11.7204C9.91356 11.5089 9.99756 11.3061 10.1471 11.1566C10.2966 11.0071 10.4994 10.9231 10.7109 10.9231C10.9223 10.9231 11.1251 11.0071 11.2746 11.1566C11.4242 11.3061 11.5082 11.5089 11.5082 11.7204V52.3769C11.5221 53.3065 11.9012 54.1933 12.5635 54.8457C13.2257 55.4981 14.1181 55.8638 15.0478 55.8638C15.9774 55.8638 16.8698 55.4981 17.5321 54.8457C18.1943 54.1933 18.5734 53.3065 18.5874 52.3769V48.5738C18.5874 48.3624 18.6714 48.1596 18.8209 48.0101C18.9704 47.8605 19.1732 47.7765 19.3847 47.7765H50.9736V6.82893C50.9725 5.89039 50.5992 4.99059 49.9356 4.32694C49.2719 3.66329 48.3721 3.28999 47.4336 3.28893H5.96136C5.7499 3.28893 5.54711 3.20493 5.39759 3.05541C5.24806 2.90589 5.16406 2.70309 5.16406 2.49163C5.16406 2.28018 5.24806 2.07738 5.39759 1.92786C5.54711 1.77834 5.7499 1.69434 5.96136 1.69434H47.4336C48.7949 1.69581 50.1001 2.23725 51.0627 3.19986C52.0253 4.16246 52.5667 5.4676 52.5682 6.82893V48.5738C52.5682 48.7853 52.4842 48.9881 52.3346 49.1376C52.1851 49.2871 51.9823 49.3711 51.7709 49.3711H20.182V52.3769C20.1792 53.7371 19.6371 55.0407 18.6746 56.0018C17.712 56.9628 16.4076 57.5029 15.0474 57.5036Z" fill="#572F9A"/>
<path d="M51.4718 57.5051H15.0473C14.8358 57.5051 14.633 57.4211 14.4835 57.2716C14.334 57.1221 14.25 56.9193 14.25 56.7078C14.25 56.4964 14.334 56.2936 14.4835 56.144C14.633 55.9945 14.8358 55.9105 15.0473 55.9105C15.9848 55.9105 16.884 55.5386 17.5476 54.8765C18.2113 54.2143 18.5852 53.316 18.5873 52.3785V48.5754C18.5873 48.3639 18.6713 48.1611 18.8208 48.0116C18.9703 47.8621 19.1731 47.7781 19.3846 47.7781H55.8004C56.0118 47.7781 56.2146 47.8621 56.3641 48.0116C56.5136 48.1611 56.5976 48.3639 56.5976 48.5754V52.3785C56.5964 53.7376 56.056 55.0407 55.095 56.0019C54.134 56.963 52.831 57.5036 51.4718 57.5051ZM18.7659 55.9105H51.4718C52.4082 55.9095 53.3059 55.537 53.9679 54.8748C54.6299 54.2126 55.0022 53.3148 55.0031 52.3785V49.3727H20.1819V52.3785C20.183 53.6944 19.6757 54.9598 18.7659 55.9105Z" fill="#572F9A"/>
<path d="M26.3277 43.2206C26.1822 43.2207 26.0395 43.181 25.915 43.1059C25.7905 43.0307 25.6889 42.9228 25.6213 42.7941L24.4556 40.5736L22.0685 41.3366C21.9229 41.3834 21.7669 41.3873 21.6191 41.3479C21.4713 41.3084 21.3379 41.2273 21.235 41.1142C21.132 41.001 21.0638 40.8607 21.0384 40.7099C21.013 40.559 21.0316 40.404 21.0918 40.2635L24.4939 32.2961C24.5769 32.1015 24.7338 31.9479 24.93 31.869C25.1262 31.7902 25.3458 31.7925 25.5403 31.8755C25.7349 31.9585 25.8885 32.1154 25.9673 32.3116C26.0462 32.5079 26.0439 32.7274 25.9609 32.9219L23.2429 39.2868L24.6071 38.8514C24.7858 38.7941 24.9789 38.8016 25.1526 38.8726C25.3263 38.9436 25.4694 39.0736 25.5567 39.2397L26.2519 40.564L29.1684 33.7073C29.2074 33.6082 29.2659 33.5179 29.3404 33.4418C29.4149 33.3656 29.5039 33.3052 29.6021 33.264C29.7003 33.2229 29.8058 33.2018 29.9123 33.2021C30.0188 33.2023 30.1241 33.2239 30.2222 33.2656C30.3202 33.3072 30.4089 33.3681 30.483 33.4446C30.5571 33.5211 30.6151 33.6117 30.6536 33.7109C30.6921 33.8102 30.7104 33.9162 30.7073 34.0227C30.7041 34.1291 30.6797 34.2339 30.6355 34.3308L27.0604 42.7351C27.0014 42.8738 26.9044 42.9929 26.7805 43.0787C26.6566 43.1645 26.5109 43.2135 26.3604 43.2198L26.3277 43.2206Z" fill="#572F9A"/>
<path d="M35.3156 43.2207H35.2829C35.1321 43.2146 34.986 43.1658 34.8618 43.08C34.7376 42.9942 34.6403 42.8749 34.5813 42.7359L31.0166 34.3284C30.9339 34.1337 30.932 33.9141 31.0112 33.7179C31.0904 33.5217 31.2444 33.3651 31.4391 33.2824C31.6339 33.1997 31.8535 33.1978 32.0497 33.277C32.2458 33.3563 32.4025 33.5102 32.4852 33.705L35.3945 40.5617L36.089 39.239C36.1762 39.0731 36.3192 38.9432 36.4927 38.8722C36.6662 38.8011 36.8592 38.7935 37.0377 38.8507L38.4003 39.286L35.6855 32.9388C35.6413 32.842 35.6169 32.7375 35.6136 32.6312C35.6104 32.5249 35.6285 32.419 35.6668 32.3198C35.7052 32.2206 35.7629 32.1301 35.8368 32.0536C35.9106 31.977 35.999 31.916 36.0968 31.8742C36.1945 31.8323 36.2997 31.8104 36.406 31.8098C36.5123 31.8092 36.6177 31.8299 36.716 31.8706C36.8142 31.9113 36.9033 31.9713 36.978 32.047C37.0527 32.1227 37.1115 32.2125 37.151 32.3113L40.5498 40.2635C40.6099 40.404 40.6283 40.5587 40.603 40.7093C40.5776 40.86 40.5096 41.0001 40.4068 41.1132C40.3041 41.2262 40.1711 41.3074 40.0236 41.347C39.8761 41.3866 39.7203 41.383 39.5747 41.3367L37.1876 40.5737L36.022 42.7941C35.9544 42.9229 35.8528 43.0307 35.7283 43.1059C35.6037 43.1811 35.461 43.2208 35.3156 43.2207Z" fill="#572F9A"/>
<path d="M30.8251 35.2293C30.3918 35.2294 29.9708 35.0846 29.6292 34.8179L28.3575 33.8285C28.2817 33.7729 28.1878 33.7479 28.0944 33.7583L26.4998 33.98C26.0703 34.0413 25.6326 33.9568 25.2568 33.74C24.881 33.5232 24.5887 33.1866 24.4268 32.784L23.8233 31.2939C23.8058 31.2493 23.7796 31.2088 23.7462 31.1745C23.7128 31.1403 23.6728 31.1131 23.6287 31.0946L22.1386 30.491C21.7364 30.3286 21.4001 30.0363 21.1834 29.6606C20.9666 29.2849 20.8819 28.8475 20.9426 28.418L21.1635 26.8234C21.1702 26.7769 21.1674 26.7296 21.1552 26.6842C21.143 26.6388 21.1216 26.5964 21.0925 26.5595L20.1031 25.2839C19.8363 24.9423 19.6914 24.5213 19.6914 24.0879C19.6914 23.6545 19.8363 23.2335 20.1031 22.892L21.0909 21.6163C21.12 21.5792 21.1414 21.5367 21.1537 21.4912C21.166 21.4458 21.1691 21.3983 21.1627 21.3516L20.9418 19.757C20.8811 19.3275 20.9658 18.8901 21.1826 18.5144C21.3993 18.1387 21.7356 17.8464 22.1378 17.684L23.6287 17.0797C23.6725 17.0622 23.7122 17.036 23.7455 17.0027C23.7788 16.9694 23.805 16.9297 23.8225 16.8859L24.4268 15.395C24.589 14.9926 24.8813 14.6562 25.257 14.4394C25.6328 14.2226 26.0703 14.138 26.4998 14.199L28.0944 14.4207C28.1411 14.4272 28.1886 14.4242 28.2341 14.4119C28.2796 14.3995 28.3221 14.3781 28.3591 14.3489L29.63 13.3603C29.9718 13.094 30.3927 12.9495 30.8259 12.9495C31.2592 12.9495 31.6801 13.094 32.0219 13.3603L33.2936 14.3497C33.3306 14.3788 33.3732 14.4001 33.4187 14.4123C33.4642 14.4244 33.5116 14.4273 33.5583 14.4207L35.1529 14.199C35.5823 14.1383 36.0197 14.223 36.3954 14.4398C36.7711 14.6565 37.0635 14.9928 37.2258 15.395L37.8294 16.8859C37.8473 16.9298 37.8738 16.9696 37.9073 17.003C37.9409 17.0364 37.9808 17.0628 38.0247 17.0805L39.5149 17.684C39.9168 17.8467 40.2528 18.1391 40.4695 18.5147C40.6862 18.8903 40.7711 19.3276 40.7108 19.757L40.4892 21.3516C40.4769 21.4455 40.5024 21.5404 40.5601 21.6155L41.5488 22.8912C41.8159 23.2326 41.9611 23.6536 41.9611 24.0871C41.9611 24.5206 41.8159 24.9417 41.5488 25.2831L40.5593 26.5548C40.5021 26.63 40.4769 26.7249 40.4892 26.8187L40.7108 28.4133C40.7711 28.8427 40.6862 29.2799 40.4695 29.6555C40.2528 30.0311 39.9168 30.3235 39.5149 30.4862L38.0207 31.0946C37.9769 31.1124 37.9371 31.1388 37.9035 31.1722C37.87 31.2056 37.8434 31.2454 37.8254 31.2891L37.2226 32.7793C37.0599 33.1812 36.7675 33.5172 36.3919 33.7339C36.0163 33.9506 35.5791 34.0355 35.1497 33.9752L33.5551 33.7535C33.4609 33.7414 33.3658 33.7669 33.2904 33.8245L32.0195 34.8132C31.679 35.0813 31.2585 35.2278 30.8251 35.2293ZM28.139 32.1606C28.5719 32.1613 28.9923 32.3051 29.335 32.5696L30.6107 33.5598C30.6725 33.6076 30.7485 33.6336 30.8267 33.6336C30.9049 33.6336 30.9809 33.6076 31.0428 33.5598L32.3137 32.5704C32.5194 32.4111 32.7549 32.2945 33.0062 32.2273C33.2575 32.1601 33.5198 32.1436 33.7775 32.1789L35.3721 32.3997C35.4499 32.4126 35.5298 32.3981 35.5981 32.3587C35.6664 32.3193 35.719 32.2574 35.7468 32.1837L36.3504 30.6927C36.4489 30.4511 36.5947 30.2316 36.7793 30.0472C36.9639 29.8627 37.1835 29.7171 37.4252 29.6188L38.9161 29.0152C38.9887 28.9858 39.0494 28.9329 39.0886 28.865C39.1277 28.7971 39.1431 28.7181 39.1322 28.6405L38.9113 27.0459C38.876 26.7886 38.8923 26.5269 38.9592 26.2759C39.0261 26.025 39.1424 25.7899 39.3012 25.5844L40.2914 24.3088C40.3395 24.2471 40.3656 24.1712 40.3656 24.0931C40.3656 24.015 40.3395 23.9391 40.2914 23.8774L39.3028 22.6018C39.1439 22.397 39.0274 22.1627 38.9599 21.9125C38.8924 21.6623 38.8754 21.4012 38.9097 21.1443L39.1306 19.5497C39.1415 19.4721 39.1261 19.3931 39.087 19.3252C39.0478 19.2573 38.9871 19.2044 38.9145 19.175L37.4236 18.5706C37.182 18.4724 36.9625 18.3269 36.7781 18.1426C36.5937 17.9583 36.448 17.7389 36.3496 17.4975L35.7453 16.0065C35.7164 15.9334 35.6637 15.8722 35.5957 15.8328C35.5276 15.7934 35.4483 15.7782 35.3705 15.7896L33.7759 16.0113C33.5184 16.0466 33.2564 16.0302 33.0053 15.963C32.7543 15.8957 32.5191 15.7791 32.3137 15.6198L31.038 14.6304C30.9763 14.5821 30.9003 14.5559 30.8219 14.5559C30.7436 14.5559 30.6676 14.5821 30.6059 14.6304L29.3302 15.619C29.1244 15.7776 28.8892 15.8939 28.6383 15.9612C28.3873 16.0285 28.1255 16.0456 27.868 16.0113L26.2734 15.7896C26.1957 15.7791 26.1167 15.7947 26.0489 15.8339C25.981 15.8732 25.9282 15.9339 25.8986 16.0065L25.2943 17.4975C25.196 17.7388 25.0504 17.9581 24.8661 18.1424C24.6818 18.3267 24.4625 18.4723 24.2211 18.5706L22.7302 19.1742C22.6576 19.2037 22.5969 19.2566 22.5576 19.3244C22.5183 19.3923 22.5027 19.4712 22.5133 19.5489L22.735 21.1435C22.7702 21.4012 22.7536 21.6634 22.6861 21.9147C22.6186 22.1659 22.5016 22.4012 22.3419 22.6065L21.3612 23.879C21.313 23.9407 21.2868 24.0168 21.2868 24.0951C21.2868 24.1734 21.313 24.2495 21.3612 24.3112L22.3507 25.5868C22.5098 25.7923 22.6264 26.0275 22.6936 26.2785C22.7608 26.5296 22.7773 26.7916 22.7421 27.0491L22.5205 28.6437C22.5096 28.7214 22.5251 28.8005 22.5644 28.8684C22.6037 28.9363 22.6646 28.9891 22.7373 29.0184L24.2283 29.6228C24.4696 29.7212 24.6888 29.8668 24.8731 30.0511C25.0574 30.2354 25.203 30.4546 25.3015 30.6959L25.9058 32.1877C25.9355 32.26 25.9882 32.3204 26.0559 32.3595C26.1236 32.3986 26.2023 32.4142 26.2797 32.4037L27.8743 32.1829C27.962 32.1695 28.0504 32.162 28.139 32.1606Z" fill="#572F9A"/>
<path d="M30.8251 35.2293C30.3918 35.2294 29.9708 35.0846 29.6292 34.8179L28.3575 33.8285C28.2817 33.7729 28.1878 33.7479 28.0944 33.7583L26.4998 33.98C26.0703 34.0413 25.6326 33.9568 25.2568 33.74C24.881 33.5232 24.5887 33.1866 24.4268 32.784L23.8233 31.2939C23.8058 31.2493 23.7796 31.2088 23.7462 31.1745C23.7128 31.1403 23.6728 31.1131 23.6287 31.0946L22.1386 30.491C21.7364 30.3286 21.4001 30.0363 21.1834 29.6606C20.9666 29.2849 20.8819 28.8475 20.9426 28.418L21.1635 26.8234C21.1702 26.7769 21.1674 26.7296 21.1552 26.6842C21.143 26.6388 21.1216 26.5964 21.0925 26.5595L20.1031 25.2839C19.8363 24.9423 19.6914 24.5213 19.6914 24.0879C19.6914 23.6545 19.8363 23.2335 20.1031 22.892L21.0909 21.6163C21.12 21.5792 21.1414 21.5367 21.1537 21.4912C21.166 21.4458 21.1691 21.3983 21.1627 21.3516L20.9418 19.757C20.8811 19.3275 20.9658 18.8901 21.1826 18.5144C21.3993 18.1387 21.7356 17.8464 22.1378 17.684L23.6287 17.0797C23.6725 17.0622 23.7122 17.036 23.7455 17.0027C23.7788 16.9694 23.805 16.9297 23.8225 16.8859L24.4268 15.395C24.589 14.9926 24.8813 14.6562 25.257 14.4394C25.6328 14.2226 26.0703 14.138 26.4998 14.199L28.0944 14.4207C28.1411 14.4272 28.1886 14.4242 28.2341 14.4119C28.2796 14.3995 28.3221 14.3781 28.3591 14.3489L29.63 13.3603C29.9718 13.094 30.3927 12.9495 30.8259 12.9495C31.2592 12.9495 31.6801 13.094 32.0219 13.3603L33.2936 14.3497C33.3306 14.3788 33.3732 14.4001 33.4187 14.4123C33.4642 14.4244 33.5116 14.4273 33.5583 14.4207L35.1529 14.199C35.5823 14.1383 36.0197 14.223 36.3954 14.4398C36.7711 14.6565 37.0635 14.9928 37.2258 15.395L37.8294 16.8859C37.8473 16.9298 37.8738 16.9696 37.9073 17.003C37.9409 17.0364 37.9808 17.0628 38.0247 17.0805L39.5149 17.684C39.9168 17.8467 40.2528 18.1391 40.4695 18.5147C40.6862 18.8903 40.7711 19.3276 40.7108 19.757L40.4892 21.3516C40.4769 21.4455 40.5024 21.5404 40.5601 21.6155L41.5488 22.8912C41.8159 23.2326 41.9611 23.6536 41.9611 24.0871C41.9611 24.5206 41.8159 24.9417 41.5488 25.2831L40.5593 26.5548C40.5021 26.63 40.4769 26.7249 40.4892 26.8187L40.7108 28.4133C40.7711 28.8427 40.6862 29.2799 40.4695 29.6555C40.2528 30.0311 39.9168 30.3235 39.5149 30.4862L38.0207 31.0946C37.9769 31.1124 37.9371 31.1388 37.9035 31.1722C37.87 31.2056 37.8434 31.2454 37.8254 31.2891L37.2226 32.7793C37.0599 33.1812 36.7675 33.5172 36.3919 33.7339C36.0163 33.9506 35.5791 34.0355 35.1497 33.9752L33.5551 33.7535C33.4609 33.7414 33.3658 33.7669 33.2904 33.8245L32.0195 34.8132C31.679 35.0813 31.2585 35.2278 30.8251 35.2293ZM28.139 32.1606C28.5719 32.1613 28.9923 32.3051 29.335 32.5696L30.6107 33.5598C30.6725 33.6076 30.7485 33.6336 30.8267 33.6336C30.9049 33.6336 30.9809 33.6076 31.0428 33.5598L32.3137 32.5704C32.5194 32.4111 32.7549 32.2945 33.0062 32.2273C33.2575 32.1601 33.5198 32.1436 33.7775 32.1789L35.3721 32.3997C35.4499 32.4126 35.5298 32.3981 35.5981 32.3587C35.6664 32.3193 35.719 32.2574 35.7468 32.1837L36.3504 30.6927C36.4489 30.4511 36.5947 30.2316 36.7793 30.0472C36.9639 29.8627 37.1835 29.7171 37.4252 29.6188L38.9161 29.0152C38.9887 28.9858 39.0494 28.9329 39.0886 28.865C39.1277 28.7971 39.1431 28.7181 39.1322 28.6405L38.9113 27.0459C38.876 26.7886 38.8923 26.5269 38.9592 26.2759C39.0261 26.025 39.1424 25.7899 39.3012 25.5844L40.2914 24.3088C40.3395 24.2471 40.3656 24.1712 40.3656 24.0931C40.3656 24.015 40.3395 23.9391 40.2914 23.8774L39.3028 22.6018C39.1439 22.397 39.0274 22.1627 38.9599 21.9125C38.8924 21.6623 38.8754 21.4012 38.9097 21.1443L39.1306 19.5497C39.1415 19.4721 39.1261 19.3931 39.087 19.3252C39.0478 19.2573 38.9871 19.2044 38.9145 19.175L37.4236 18.5706C37.182 18.4724 36.9625 18.3269 36.7781 18.1426C36.5937 17.9583 36.448 17.7389 36.3496 17.4975L35.7453 16.0065C35.7164 15.9334 35.6637 15.8722 35.5957 15.8328C35.5276 15.7934 35.4483 15.7782 35.3705 15.7896L33.7759 16.0113C33.5184 16.0466 33.2564 16.0302 33.0053 15.963C32.7543 15.8957 32.5191 15.7791 32.3137 15.6198L31.038 14.6304C30.9763 14.5821 30.9003 14.5559 30.8219 14.5559C30.7436 14.5559 30.6676 14.5821 30.6059 14.6304L29.3302 15.619C29.1244 15.7776 28.8892 15.8939 28.6383 15.9612C28.3873 16.0285 28.1255 16.0456 27.868 16.0113L26.2734 15.7896C26.1957 15.7791 26.1167 15.7947 26.0489 15.8339C25.981 15.8732 25.9282 15.9339 25.8986 16.0065L25.2943 17.4975C25.196 17.7388 25.0504 17.9581 24.8661 18.1424C24.6818 18.3267 24.4625 18.4723 24.2211 18.5706L22.7302 19.1742C22.6576 19.2037 22.5969 19.2566 22.5576 19.3244C22.5183 19.3923 22.5027 19.4712 22.5133 19.5489L22.735 21.1435C22.7702 21.4012 22.7536 21.6634 22.6861 21.9147C22.6186 22.1659 22.5016 22.4012 22.3419 22.6065L21.3612 23.879C21.313 23.9407 21.2868 24.0168 21.2868 24.0951C21.2868 24.1734 21.313 24.2495 21.3612 24.3112L22.3507 25.5868C22.5098 25.7923 22.6264 26.0275 22.6936 26.2785C22.7608 26.5296 22.7773 26.7916 22.7421 27.0491L22.5205 28.6437C22.5096 28.7214 22.5251 28.8005 22.5644 28.8684C22.6037 28.9363 22.6646 28.9891 22.7373 29.0184L24.2283 29.6228C24.4696 29.7212 24.6888 29.8668 24.8731 30.0511C25.0574 30.2354 25.203 30.4546 25.3015 30.6959L25.9058 32.1877C25.9355 32.26 25.9882 32.3204 26.0559 32.3595C26.1236 32.3986 26.2023 32.4142 26.2797 32.4037L27.8743 32.1829C27.962 32.1695 28.0504 32.162 28.139 32.1606Z" fill="#572F9A"/>
<path d="M27.9941 29.2447C27.878 29.2447 27.7634 29.2193 27.6581 29.1703C27.5529 29.1213 27.4597 29.05 27.3849 28.9612C27.3101 28.8724 27.2556 28.7684 27.2252 28.6564C27.1947 28.5444 27.1891 28.4271 27.2088 28.3127L27.6776 25.5764L25.6899 23.6382C25.5847 23.5341 25.5105 23.4029 25.4756 23.2592C25.4407 23.1154 25.4465 22.9648 25.4924 22.8241C25.5382 22.6834 25.6223 22.5583 25.7352 22.4627C25.8481 22.3671 25.9853 22.3048 26.1316 22.2827L28.8791 21.8841L30.1077 19.3949C30.1811 19.2706 30.2856 19.1676 30.411 19.096C30.5363 19.0245 30.6782 18.9868 30.8225 18.9868C30.9668 18.9868 31.1087 19.0245 31.234 19.096C31.3594 19.1676 31.4639 19.2706 31.5373 19.3949L32.7683 21.8793L35.515 22.278C35.6623 22.2992 35.8008 22.3613 35.9146 22.4572C36.0285 22.553 36.1132 22.6789 36.1593 22.8204C36.2053 22.962 36.2109 23.1136 36.1752 23.2581C36.1395 23.4026 36.0641 23.5343 35.9575 23.6382L33.9643 25.5764L34.4331 28.3127C34.4581 28.4592 34.4416 28.6098 34.3856 28.7475C34.3296 28.8852 34.2362 29.0044 34.1159 29.0918C33.9957 29.1792 33.8534 29.2313 33.7052 29.2421C33.5569 29.2529 33.4086 29.2221 33.277 29.1531L30.8189 27.8614L28.3624 29.1531C28.2488 29.2128 28.1225 29.2443 27.9941 29.2447ZM30.8221 26.1632C30.9513 26.1633 31.0785 26.1947 31.1928 26.2549L32.5921 26.9908L32.325 25.4337C32.3031 25.3063 32.3125 25.1755 32.3524 25.0526C32.3922 24.9297 32.4614 24.8183 32.5538 24.7281L33.686 23.6254L32.1225 23.3982C31.9946 23.3796 31.8731 23.3302 31.7685 23.2542C31.6639 23.1782 31.5793 23.078 31.5221 22.962L30.8221 21.5444L30.1229 22.962C30.0658 23.0781 29.9813 23.1785 29.8767 23.2547C29.7721 23.3308 29.6505 23.3803 29.5225 23.399L27.959 23.6262L29.0904 24.7289C29.1828 24.8191 29.252 24.9305 29.2918 25.0534C29.3317 25.1763 29.3411 25.3071 29.3192 25.4345L29.0529 26.9924L30.4506 26.2565C30.5651 26.196 30.6926 26.164 30.8221 26.1632Z" fill="#572F9A"/>
<path d="M10.7211 12.5175H2.0473C1.83584 12.5175 1.63305 12.4335 1.48352 12.284C1.334 12.1345 1.25 11.9317 1.25 11.7202V6.82086C1.26683 5.47027 1.81516 4.1807 2.77618 3.23158C3.7372 2.28246 5.0335 1.75024 6.3842 1.75024C7.73489 1.75024 9.03119 2.28246 9.99221 3.23158C10.9532 4.1807 11.5016 5.47027 11.5184 6.82086V11.7202C11.5184 11.9317 11.4344 12.1345 11.2849 12.284C11.1353 12.4335 10.9326 12.5175 10.7211 12.5175ZM2.84459 10.923H9.9238V6.82086C9.90985 5.8913 9.53079 5.00453 8.8685 4.35211C8.20621 3.69969 7.31386 3.33398 6.3842 3.33398C5.45453 3.33398 4.56218 3.69969 3.89989 4.35211C3.2376 5.00453 2.85855 5.8913 2.84459 6.82086V10.923Z" fill="#572F9A"/>
</svg>
