<svg width="57" height="57" viewBox="0 0 57 57" fill="none" xmlns="http://www.w3.org/2000/svg">
<g clip-path="url(#clip0_85_2012)">
<path d="M43.1308 6.3175L28.8808 0.0797989C28.6385 -0.0259486 28.3631 -0.0259486 28.1208 0.0797989L13.8708 6.3175C13.5247 6.46852 13.301 6.81014 13.3008 7.1877V22.1027C13.3059 25.4546 14.9166 28.6011 17.6328 30.5653L27.4814 37.6684C28.0897 38.1087 28.9119 38.1087 29.5201 37.6684L39.3688 30.5662C42.0849 28.6021 43.6956 25.4556 43.7008 22.1036V7.1877C43.7006 6.81014 43.4768 6.46852 43.1308 6.3175ZM41.8008 22.1036C41.7964 24.8453 40.4789 27.4188 38.2573 29.0253L28.5008 36.062L18.7443 29.0253C16.5227 27.4188 15.2051 24.8453 15.2008 22.1036V7.809L28.5008 1.9874L41.8008 7.809V22.1036Z" fill="#572F9A"/>
<path d="M28.1177 4.2275L17.6677 8.8027C17.3216 8.95373 17.0979 9.29534 17.0977 9.6729V22.1037C17.1006 24.2351 18.1251 26.236 19.8527 27.4845L27.9419 33.3194C28.2737 33.5587 28.7216 33.5587 29.0534 33.3194L37.1427 27.4845C38.8703 26.236 39.8947 24.2351 39.8977 22.1037V9.6729C39.8975 9.29534 39.6737 8.95373 39.3277 8.8027L28.8777 4.2275C28.6354 4.12176 28.36 4.12176 28.1177 4.2275ZM37.9977 10.2933V22.1037C37.9947 23.6246 37.2636 25.0523 36.0312 25.9436L28.4977 31.3776L20.9642 25.9436C19.7317 25.0523 19.0006 23.6246 18.9977 22.1037V10.2933L28.4977 6.1351L37.9977 10.2933Z" fill="#572F9A"/>
<path d="M7.86981 31.54L5.81496 26.7387C5.37798 25.7488 4.44611 25.0672 3.37037 24.9508C2.29463 24.8343 1.23845 25.3005 0.599692 26.1739C-0.0390677 27.0472 -0.163369 28.195 0.273612 29.1849L3.99666 37.3749C4.49894 38.4836 5.19768 39.4923 6.05911 40.3522L11.914 46.208C11.5842 46.5575 11.4001 47.0195 11.3991 47.5V55.1C11.3991 56.1493 12.2497 57 13.2991 57H23.7491C24.7984 57 25.6491 56.1493 25.6491 55.1V47.5C25.6491 46.4506 24.7984 45.6 23.7491 45.6V43.832C23.7782 41.5821 23.0441 39.3887 21.6667 37.6095C20.8591 36.5473 19.7584 35.7446 18.5003 35.3001C16.4995 34.4594 14.6593 33.2785 13.0616 31.8098C11.5785 30.5883 9.47153 30.4788 7.86981 31.54ZM23.7491 55.1H13.2991V47.5H23.7491V55.1ZM20.1837 38.7961C21.291 40.2388 21.878 42.0136 21.8491 43.832V45.6H13.9935L7.40241 39.0089C6.70239 38.3098 6.13436 37.4901 5.72566 36.5892L2.00261 28.3993C1.84373 28.0497 1.8733 27.6434 2.08112 27.3205C2.28894 26.9976 2.64654 26.8025 3.03051 26.8023C3.48238 26.8019 3.89075 27.0716 4.06791 27.4873L6.19306 32.4434C6.75738 33.7657 7.57079 34.9671 8.58896 35.9822L12.9286 40.3227C13.1671 40.5697 13.5203 40.6687 13.8524 40.5818C14.1846 40.4948 14.444 40.2354 14.5309 39.9033C14.6179 39.5711 14.5188 39.2179 14.2719 38.9794L9.93226 34.6389C9.49589 34.2036 9.10354 33.7262 8.76091 33.2139C9.67323 32.5118 10.9496 32.5331 11.838 33.2652C13.6138 34.8949 15.6664 36.1947 17.899 37.1032C18.8086 37.434 19.6024 38.0221 20.1837 38.7961Z" fill="#572F9A"/>
<path d="M20.9 50.3501H19.95C19.4253 50.3501 19 50.7754 19 51.3001C19 51.8248 19.4253 52.2501 19.95 52.2501H20.9C21.4247 52.2501 21.85 51.8248 21.85 51.3001C21.85 50.7754 21.4247 50.3501 20.9 50.3501Z" fill="#582F9A"/>
<path d="M53.0001 37.375L56.7231 29.185C57.1809 28.1918 57.0676 27.0289 56.4268 26.1427C55.786 25.2565 54.7172 24.7846 53.6306 24.9081C52.5439 25.0316 51.6083 25.7313 51.1827 26.7388L49.1326 31.522C47.5253 30.4661 45.4173 30.5817 43.9352 31.807C42.3374 33.2758 40.4973 34.4567 38.4964 35.2973C37.2383 35.7418 36.1377 36.5446 35.3301 37.6068C33.952 39.3867 33.2179 41.5812 33.2477 43.8321V45.6001C32.1983 45.6001 31.3477 46.4507 31.3477 47.5001V55.1001C31.3477 56.1494 32.1983 57.0001 33.2477 57.0001H43.6977C44.747 57.0001 45.5977 56.1494 45.5977 55.1001V47.5001C45.5966 47.0196 45.4125 46.5576 45.0828 46.2081L50.9376 40.3523C51.799 39.4924 52.4978 38.4837 53.0001 37.375ZM43.6977 55.1001H33.2477V47.5001H43.6977V55.1001ZM43.0032 45.6001H35.1477V43.8321C35.119 42.014 35.7059 40.2396 36.813 38.7971C37.393 38.0237 38.1851 37.4353 39.093 37.1033C41.326 36.195 43.3789 34.8953 45.155 33.2653C46.0424 32.5277 47.3223 32.5028 48.2377 33.2054C47.8941 33.7216 47.4998 34.2021 47.0607 34.6399L42.7211 38.9805C42.361 39.3532 42.3662 39.9458 42.7326 40.3122C43.0991 40.6787 43.6916 40.6838 44.0644 40.3238L48.404 35.9832C49.4221 34.9682 50.2355 33.7668 50.7999 32.4445L52.925 27.4874C53.1027 27.0722 53.5108 26.8031 53.9624 26.8034C54.3464 26.8035 54.704 26.9987 54.9118 27.3216C55.1196 27.6444 55.1492 28.0508 54.9903 28.4003L51.2673 36.5903C50.8586 37.4912 50.2905 38.3109 49.5905 39.0099L43.0032 45.6001Z" fill="#572F9A"/>
<path d="M37.0484 50.3501H36.0984C35.5738 50.3501 35.1484 50.7754 35.1484 51.3001C35.1484 51.8248 35.5738 52.2501 36.0984 52.2501H37.0484C37.5731 52.2501 37.9984 51.8248 37.9984 51.3001C37.9984 50.7754 37.5731 50.3501 37.0484 50.3501Z" fill="#582F9A"/>
<path d="M23.3677 20.14C22.948 19.8252 22.3525 19.9103 22.0377 20.33C21.7229 20.7498 21.808 21.3452 22.2277 21.66L26.0277 24.51C26.1922 24.6334 26.3922 24.7 26.5977 24.7C26.6515 24.6998 26.7052 24.6954 26.7583 24.6867C27.0156 24.6426 27.2433 24.4945 27.3881 24.2773L34.9881 12.8773C35.1765 12.5949 35.1999 12.2335 35.0495 11.9291C34.8992 11.6248 34.5979 11.4238 34.2591 11.4019C33.9204 11.38 33.5957 11.5404 33.4073 11.8228L26.364 22.3877L23.3677 20.14Z" fill="#572F9A"/>
</g>
<defs>
<clipPath id="clip0_85_2012">
<rect width="57" height="57" fill="white"/>
</clipPath>
</defs>
</svg>
