<svg width="64" height="64" viewBox="0 0 64 64" fill="none" xmlns="http://www.w3.org/2000/svg">
<g clip-path="url(#clip0_85_2005)">
<path d="M31.8878 8.1325C32.583 8.1325 33.1467 7.56887 33.1467 6.87362V1.25888C33.1467 0.563625 32.583 0 31.8878 0C31.1925 0 30.6289 0.563625 30.6289 1.25888V6.87362C30.629 7.56887 31.1927 8.1325 31.8878 8.1325Z" fill="#582F9A"/>
<path d="M62.6615 43.2482L60.4377 41.0306C59.6465 40.2405 58.5922 39.8052 57.4687 39.8052C56.7503 39.8052 56.0607 39.984 55.4495 40.3189L51.2588 36.1331L51.4629 35.9292C53.163 34.2257 53.1624 31.4576 51.4628 29.7599C50.8554 29.1514 50.0975 28.7456 49.2714 28.5749C49.3852 28.1822 49.445 27.771 49.445 27.3501C49.445 26.1807 48.9908 25.0842 48.1685 24.2654C47.561 23.6569 46.8033 23.2511 45.9772 23.0804C46.0909 22.6877 46.1508 22.2766 46.1508 21.8556C46.1508 20.6861 45.6965 19.5897 44.8729 18.7696C44.2509 18.1484 43.4863 17.7551 42.6834 17.5877C43.1129 16.1069 42.7459 14.4407 41.5809 13.2737C40.6112 12.3081 39.2953 11.8931 38.0272 12.0276L29.7228 10.4557C28.4563 10.2155 26.8747 10.0566 25.8763 10.9672C25.8133 11.0247 25.749 11.0909 25.6858 11.1645C24.1378 10.6002 22.3323 10.9362 21.0927 12.1745C20.2703 12.9959 19.8173 14.0919 19.8173 15.2606C19.8173 15.6816 19.8769 16.0927 19.9905 16.4855C19.1653 16.6561 18.4084 17.0614 17.803 17.6679C16.979 18.4885 16.5247 19.5832 16.5238 20.7506C16.5234 21.1726 16.5833 21.5851 16.6975 21.9789C15.8719 22.1491 15.1145 22.5536 14.5073 23.1601C13.6833 23.9832 13.2295 25.0799 13.2295 26.248C13.2295 27.1427 13.4967 27.9951 13.9917 28.7151C13.3667 28.927 12.7942 29.2796 12.3148 29.7585C10.6135 31.4576 10.6129 34.2259 12.3159 35.9319L12.5193 36.1344L8.32803 40.318C6.77041 39.5846 4.85128 39.8594 3.56591 41.1431L1.34066 43.3621C0.549156 44.1526 0.113406 45.2071 0.113281 46.3312C0.113281 47.4555 0.549156 48.5101 1.34066 49.3007L4.11778 52.0745C4.60966 52.5659 5.40678 52.5654 5.89803 52.0735C6.38941 51.5816 6.38891 50.7845 5.89703 50.2932L3.11991 47.5195C2.80466 47.2046 2.63103 46.7826 2.63103 46.3314C2.63103 45.8802 2.80466 45.4584 3.11916 45.1442L5.34453 42.9251C5.90053 42.3697 6.75153 42.287 7.39778 42.6734C7.44328 42.7417 7.49591 42.8067 7.55616 42.8671C7.66403 42.9752 7.78716 43.0581 7.91791 43.1187L20.6795 55.8616C20.7402 55.9937 20.8234 56.1181 20.932 56.2269C21.0378 56.3327 21.1584 56.4146 21.2864 56.4749C21.5563 56.78 21.7054 57.1697 21.7054 57.5855C21.7054 58.0367 21.5318 58.4586 21.2165 58.7735L18.9934 60.994C18.3365 61.648 17.268 61.6479 16.6132 60.996L13.836 58.2186C13.3444 57.727 12.5474 57.727 12.0558 58.2186C11.5642 58.7102 11.5642 59.5072 12.0558 59.9989L14.8349 62.7782C15.6529 63.5929 16.7272 64 17.8019 64C18.8769 64 19.9524 63.5922 20.7714 62.7769L22.9959 60.555C23.7874 59.7644 24.2233 58.7099 24.2233 57.5855C24.2233 56.7831 24.0002 56.0169 23.5853 55.3561L28.3023 50.6449C28.3073 50.6397 28.3123 50.6346 28.3174 50.6295C28.8575 50.0711 30.3617 50.1756 31.8163 50.2766C32.8498 50.3485 34.002 50.4284 35.1278 50.2986L40.2933 55.458C39.9587 56.0681 39.78 56.7569 39.78 57.4741C39.78 58.5972 40.2159 59.6511 41.0074 60.4417L43.232 62.6636C44.023 63.4537 45.0774 63.889 46.2009 63.889C47.3243 63.889 48.3787 63.4539 49.1698 62.6636L62.6624 49.1874C63.4539 48.3969 63.8898 47.3424 63.8898 46.2181C63.8897 45.094 63.4538 44.0395 62.6615 43.2482ZM29.254 12.9295L34.7149 13.9631L31.4463 17.2305C30.9407 16.9875 30.2477 16.5342 29.4874 15.807C28.4468 14.8115 27.7024 13.6621 27.6347 12.9452C27.6345 12.9449 27.6345 12.9445 27.6345 12.9441C27.6345 12.944 27.6344 12.9439 27.6344 12.9437C27.6295 12.8922 27.6283 12.8511 27.6289 12.8197C27.7935 12.7797 28.2308 12.7354 29.254 12.9295ZM22.8718 13.9559C23.5095 13.3187 24.5003 13.2452 25.2209 13.7332C25.6293 15.4455 27.0899 16.9974 27.747 17.6261C28.234 18.0921 29.7967 19.4892 31.3739 19.8732C31.5873 20.1791 31.7034 20.5437 31.7034 20.9285C31.7034 21.4241 31.5128 21.8875 31.1654 22.2345C30.819 22.5815 30.3549 22.7725 29.8584 22.7725C29.3618 22.7725 28.8977 22.5815 28.5497 22.2329L28.5495 22.2327L28.5489 22.2321L22.8717 16.5651C22.5255 16.2195 22.3349 15.7561 22.3349 15.2606C22.335 14.765 22.5257 14.3016 22.8718 13.9559ZM19.5823 19.4492C19.9287 19.1024 20.3923 18.9112 20.888 18.9112C21.3844 18.9112 21.8495 19.1027 22.1982 19.451L26.7697 24.0134C27.4895 24.7344 27.4895 25.9076 26.7722 26.6261C26.4239 26.973 25.9582 27.164 25.4608 27.164C24.9634 27.164 24.4977 26.973 24.1509 26.6276L24.1508 26.6275L20.6827 23.1601C20.6773 23.1547 20.6714 23.1497 20.6659 23.1442L19.5809 22.0597C19.2328 21.712 19.0412 21.2477 19.0415 20.7525C19.042 20.2589 19.233 19.797 19.5823 19.4492ZM16.2865 24.9415C16.6332 24.5954 17.0978 24.4047 17.595 24.4047C18.0882 24.4047 18.5488 24.5926 18.8939 24.9327L22.3727 28.4099C22.7195 28.7554 22.9107 29.2182 22.9107 29.7132C22.9107 30.2081 22.7195 30.671 22.3713 31.0179C22.0248 31.3639 21.5607 31.5545 21.0643 31.5545C20.5672 31.5545 20.1015 31.3634 19.7545 31.0179L18.4934 29.7582C18.4932 29.7579 18.4928 29.7576 18.4925 29.7574L16.2867 27.5541C15.9389 27.2067 15.7474 26.7427 15.7474 26.2477C15.7474 25.7529 15.9389 25.2887 16.2865 24.9415ZM14.094 31.5397C14.4422 31.192 14.9074 31.0005 15.404 31.0005C15.9005 31.0005 16.3657 31.1919 16.7137 31.5394L17.9765 32.8007C18.3235 33.1462 18.5145 33.6091 18.5145 34.1041C18.5145 34.5991 18.3234 35.0619 17.9739 35.4101C17.6275 35.757 17.1634 35.9481 16.6669 35.9481C16.1703 35.9481 15.7062 35.7571 15.3573 35.4076L15.1992 35.2501C15.197 35.248 15.1954 35.2457 15.1934 35.2437C15.191 35.2415 15.1885 35.2395 15.1862 35.2372L14.0953 34.1506C13.3754 33.4292 13.3748 32.2581 14.094 31.5397ZM39.7483 45.847C39.2569 45.355 38.4598 45.3546 37.968 45.8459L36.848 46.9645C35.7838 48.0287 33.8554 47.8947 31.9905 47.7654C29.9654 47.6246 27.8713 47.4794 26.5162 48.8706L21.8793 53.5019L10.2839 41.9235L14.3874 37.8274C15.0657 38.2431 15.8483 38.466 16.6672 38.466C17.837 38.466 18.934 38.0125 19.7534 37.1916C20.5783 36.3701 21.0327 35.2737 21.0327 34.1042C21.0327 34.0934 21.0319 34.0826 21.0319 34.0717C21.0428 34.0719 21.0537 34.0725 21.0645 34.0725C22.2328 34.0725 23.3289 33.6204 24.1494 32.8009C24.9743 31.9794 25.4287 30.8829 25.4287 29.7135C25.4287 29.7026 25.4279 29.6919 25.4279 29.681C25.4389 29.681 25.4499 29.6817 25.461 29.6817C26.6289 29.6817 27.7257 29.2301 28.5517 28.4075C29.4092 27.5486 29.8333 26.4179 29.8252 25.2895C29.8364 25.2896 29.8477 25.2902 29.8589 25.2902C31.0288 25.2901 32.1257 24.8367 32.9463 24.0146C33.7687 23.1932 34.2217 22.0972 34.2217 20.9285C34.2217 20.1111 33.9994 19.3297 33.585 18.6529L37.1817 15.0577C37.4497 14.7909 37.7802 14.6234 38.1265 14.5542C38.164 14.5502 38.201 14.5442 38.2377 14.537C38.7934 14.4604 39.377 14.6319 39.802 15.0551C40.5219 15.7762 40.5219 16.9495 39.8047 17.668L38.7093 18.7589C38.7057 18.7625 38.7018 18.7657 38.6982 18.7694L37.4365 20.0289C36.9445 20.5201 36.944 21.3172 37.4354 21.8091C37.9269 22.3011 38.7239 22.3015 39.2157 21.8102L40.3154 20.712C40.3157 20.7117 40.3159 20.7115 40.3162 20.7112L40.4824 20.5456C41.2043 19.8304 42.3738 19.8319 43.0949 20.552C43.4419 20.8975 43.633 21.3604 43.633 21.8554C43.633 22.3502 43.4419 22.8131 43.0922 23.1614L41.9905 24.2652C41.9904 24.2654 41.9903 24.2655 41.9902 24.2657L40.7287 25.5221C40.236 26.0127 40.2344 26.8099 40.725 27.3024C41.2157 27.795 42.0127 27.7965 42.5053 27.306L43.7725 26.0439C44.1189 25.6969 44.583 25.5059 45.0795 25.5059C45.5762 25.5059 46.0404 25.6969 46.3893 26.0464C46.7363 26.392 46.9273 26.8549 46.9273 27.3499C46.9273 27.8447 46.7363 28.3076 46.3873 28.6551L44.191 30.8522C43.6995 31.344 43.6997 32.141 44.1913 32.6325C44.4372 32.8782 44.7592 33.001 45.0813 33.001C45.4035 33.001 45.7258 32.878 45.9715 32.6321L47.0479 31.5554C47.054 31.5495 47.0607 31.5444 47.0668 31.5382C47.4132 31.1912 47.8773 31.0002 48.3738 31.0002C48.8704 31.0002 49.3345 31.1912 49.6822 31.5395C50.4013 32.2579 50.4007 33.4291 49.6822 34.1489L48.5878 35.242C48.5874 35.2424 48.5869 35.2427 48.5865 35.2431C48.5862 35.2435 48.5858 35.244 48.5854 35.2444L46.8484 36.9792C46.3565 37.4706 46.356 38.2677 46.8473 38.7596C47.0932 39.0057 47.4157 39.1289 47.738 39.1289C48.0599 39.1289 48.3819 39.0061 48.6277 38.7607L49.4773 37.9121L53.5494 41.9795L41.955 53.5597L37.8008 49.4105C38.0904 49.2242 38.3675 49.0052 38.6277 48.7451L39.747 47.6271C40.2392 47.136 40.2397 46.3389 39.7483 45.847ZM60.883 47.406L47.3904 60.8822C47.0748 61.1975 46.6523 61.3711 46.2008 61.3711C45.7493 61.3711 45.3268 61.1975 45.011 60.8821L42.7864 58.6602C42.4712 58.3455 42.2975 57.9242 42.2975 57.4741C42.2975 57.0241 42.4712 56.6029 42.7864 56.288L56.279 42.8117C56.5948 42.4964 57.0172 42.3227 57.4688 42.3227C57.9203 42.3227 58.3428 42.4964 58.6593 42.8125L60.8832 45.0301C61.1984 45.345 61.372 45.7667 61.372 46.218C61.3719 46.6694 61.1983 47.0912 60.883 47.406Z" fill="#572F9A"/>
<path d="M15.1717 7.07116C15.4174 7.31641 15.7392 7.43891 16.0609 7.43891C16.3834 7.43891 16.7061 7.31566 16.9519 7.06928C17.4431 6.57716 17.4423 5.78016 16.9502 5.28903L12.3629 0.710909C11.8709 0.219784 11.0738 0.220409 10.5827 0.712659C10.0916 1.20478 10.0923 2.00178 10.5844 2.49291L15.1717 7.07116Z" fill="#582F9A"/>
<path d="M47.7159 7.43911C48.0377 7.43911 48.3597 7.31636 48.6055 7.07098L53.1893 2.49273C53.6811 2.00148 53.6816 1.20436 53.1902 0.712481C52.699 0.220606 51.902 0.220106 51.41 0.711481L46.8263 5.28973C46.3344 5.78098 46.3339 6.57811 46.8252 7.06998C47.0711 7.31611 47.3935 7.43911 47.7159 7.43911Z" fill="#582F9A"/>
<path d="M7.85333 54.1505C7.36595 54.6463 7.3727 55.4434 7.86858 55.9308L7.8722 55.9343C8.11683 56.1748 8.43445 56.2945 8.75195 56.2945C9.07783 56.2945 9.4037 56.1684 9.65058 55.9173C10.138 55.4215 10.1293 54.6226 9.63358 54.1353C9.13795 53.6479 8.34095 53.6548 7.85333 54.1505Z" fill="#582F9A"/>
<path d="M42.8246 44.0333C43.0161 44.0333 43.2103 43.9897 43.3927 43.8978C44.0134 43.5847 44.2628 42.8277 43.9498 42.2069C43.6367 41.5862 42.8796 41.3367 42.2589 41.6498L42.2519 41.6533C41.6312 41.9664 41.3853 42.7217 41.6983 43.3424C41.9193 43.7809 42.3638 44.0333 42.8246 44.0333Z" fill="#582F9A"/>
</g>
<defs>
<clipPath id="clip0_85_2005">
<rect width="64" height="64" fill="white"/>
</clipPath>
</defs>
</svg>
