<svg width="203" height="115" viewBox="0 0 203 115" fill="none" xmlns="http://www.w3.org/2000/svg">
<path d="M54.6144 0.597252C54.233 1.7275 52.9932 3.85882 51.8012 5.50575C48.9561 9.38088 45.1892 12.3195 40.4528 14.3378C39.6263 14.693 37.3376 15.5488 35.3667 16.2269C31.2183 17.664 27.1971 19.2948 25.5759 20.1667C19.1547 23.6866 16.707 27.7877 16.707 35.0375C16.7229 37.9277 16.9772 39.6876 17.8196 42.271C18.964 45.8717 20.8236 49.0364 23.0647 51.2161C24.0819 52.2011 28.9296 56.1892 29.1203 56.1892C29.168 56.1892 28.9773 55.9147 28.7071 55.5756C25.4488 51.6359 23.3349 48.3098 22.0157 45.0482C20.3945 41.0601 20.156 36.5391 21.3958 33.1483C21.9044 31.8082 23.1282 30.0644 24.5905 28.6435C26.4024 26.8835 29.0726 25.2366 34.6832 22.3949C40.5164 19.4239 42.3919 18.2775 45.3005 15.8879C49.6873 12.2711 52.9455 7.65322 54.3442 3.09994C54.7257 1.87282 55.0595 -0.000164032 54.8846 -0.000164032C54.8528 -0.000164032 54.7257 0.274326 54.6144 0.597252Z" fill="#7F09A8"/>
<path d="M49.9055 19.1657C48.3955 21.0549 44.6286 24.9138 43.071 26.1571C40.0988 28.5468 39.6379 28.7728 28.973 33.31L27.4312 33.9558L27.3836 36.9429C27.3518 38.5737 27.3836 39.9461 27.4471 39.9784C27.7014 40.1399 32.7876 37.6372 35.8392 35.8611C41.2273 32.6964 44.6286 29.3057 48.03 23.7352C49.2697 21.7007 51.2724 17.7449 51.0499 17.761C51.034 17.761 50.5254 18.3907 49.9055 19.1657Z" fill="#7F09A8"/>
<path d="M45.3033 35.4414C41.3298 39.5103 39.343 41.141 36.3232 42.8203C35.147 43.4823 32.1748 44.8063 31.5232 44.9677L31.0781 45.0808V48.1324V51.1841L31.841 50.8127C34.6861 49.4564 38.3258 46.986 40.3762 45.0162C42.1722 43.2885 43.3643 41.7062 45.0649 38.7998C46.0821 37.0883 48.6888 32.0668 48.5298 32.1475C48.498 32.1637 47.0517 33.6491 45.3033 35.4414Z" fill="#7F09A8"/>
<path d="M36.159 62.7448C36.159 62.8256 36.318 63.4391 36.4928 64.1011C36.9061 65.635 37.065 68.9612 36.8107 70.269C36.4133 72.2066 35.2531 73.902 33.5524 75.0322C33.0915 75.3552 31.6928 75.9041 29.9762 76.4693C26.6862 77.5511 25.208 78.1969 23.8729 79.1818C22.7444 79.9892 20.4557 82.3627 19.5974 83.5575C18.7868 84.7039 17.5312 87.1581 16.8477 88.9665C16.5298 89.8062 16.0053 91.1463 15.7034 91.9536C14.1616 95.9418 11.5232 98.7835 7.37485 100.915C5.94439 101.658 3.2265 102.497 1.55762 102.739L0 102.949L0.794704 103.224C2.17749 103.692 4.0212 103.983 5.72187 103.983C9.82254 103.983 13.2239 102.239 16.5775 98.4283C17.9126 96.9106 18.8345 95.3121 19.7881 92.7932C21.3775 88.6759 21.9974 87.6264 23.9524 85.818C26.0027 83.9289 28.1007 82.734 31.0729 81.7814C33.759 80.8934 35.1418 79.9084 36.7153 77.7448C38.3365 75.5166 39.0041 73.7082 39.1312 71.2055C39.2425 69.1065 38.861 67.3143 37.9074 65.3767C37.3193 64.1657 36.159 62.4219 36.159 62.7448Z" fill="#7F09A8"/>
<path d="M49.8201 63.1967L49.2638 63.4066L48.7552 66.216C48.4691 67.7661 48.2148 69.4292 48.1989 69.9136C48.1512 70.7532 48.1671 70.8016 48.5485 70.8016C48.9936 70.8016 48.9459 70.9954 49.6293 66.8619C49.8995 65.328 50.1697 64.004 50.2651 63.9071C50.3605 63.8102 50.7578 63.6972 51.1393 63.6649C51.7591 63.5842 51.9181 63.6326 52.2677 63.9878C52.4903 64.2139 52.681 64.5691 52.681 64.7629C52.681 64.9405 52.4585 66.2968 52.1883 67.7338C51.9181 69.187 51.7273 70.4948 51.775 70.624C51.8704 70.8823 52.4426 70.9792 52.5697 70.7532C52.6174 70.6886 52.8717 69.2677 53.1578 67.5723C53.428 65.8931 53.7459 64.4077 53.8413 64.2946C54.1115 63.9556 54.8426 63.6165 55.3035 63.6165C55.8598 63.6165 56.3366 64.1493 56.3366 64.779C56.3366 65.0697 56.1141 66.4744 55.8598 67.8953C55.6055 69.3161 55.383 70.5756 55.383 70.6886C55.383 70.8339 55.5419 70.8823 55.828 70.8501L56.2572 70.8016L56.7658 67.8145C57.3221 64.5853 57.338 63.9394 56.7976 63.3581C56.2731 62.793 54.8744 62.8092 54.0479 63.3743C53.73 63.6003 53.428 63.7779 53.3962 63.7779C53.3644 63.7779 53.1578 63.6003 52.9353 63.3743C52.5856 63.0191 52.4108 62.9706 51.4571 62.9868C50.8691 62.9868 50.122 63.0836 49.8201 63.1967Z" fill="white"/>
<path d="M59.4166 63.9717C59.4802 64.5369 59.6391 66.3453 59.7822 67.9922L60.0524 70.9954L59.3212 72.4001C58.908 73.159 58.5742 73.8372 58.5742 73.8695C58.5742 73.9179 58.7967 73.9502 59.051 73.9502C59.5755 73.9502 59.5755 73.9663 61.5941 69.3485C62.1027 68.1859 62.9133 66.3775 63.406 65.328C63.8987 64.2785 64.2961 63.3097 64.2961 63.1806C64.2961 63.0191 64.153 62.9707 63.8669 63.003C63.4855 63.0514 63.3424 63.2936 62.214 65.9577C61.5464 67.5562 60.9265 68.961 60.8471 69.0901C60.7517 69.2516 60.6881 69.0094 60.6722 68.3635C60.6087 66.9265 60.3067 63.229 60.2113 63.0998C60.1795 63.0191 59.957 62.9707 59.7345 62.9707C59.3212 62.9707 59.3212 62.9707 59.4166 63.9717Z" fill="white"/>
<path d="M66.5301 63.1806C66.3235 63.2774 66.0851 63.4873 66.0215 63.6165C65.8944 63.8587 64.2891 73.1913 64.2891 73.6757C64.2891 73.8533 64.4162 73.9502 64.6864 73.9502C64.9089 73.9502 65.0838 73.934 65.0997 73.9018C65.0997 73.8856 65.2268 73.1752 65.3699 72.3356L65.656 70.8017L66.5619 70.8501C67.3089 70.8985 67.595 70.8339 68.1513 70.511C69.3911 69.7683 70.1381 68.1859 70.2811 66.0062C70.3924 64.5692 70.2017 63.9717 69.5023 63.3743C69.105 63.0352 68.8666 62.9707 67.9765 62.9707C67.3884 62.9707 66.7368 63.0675 66.5301 63.1806ZM68.8666 63.9394C69.2798 64.3431 69.4387 65.1666 69.3116 66.2484C69.0573 68.525 68.1513 69.9782 66.9116 70.1558C65.7831 70.3173 65.7672 70.3011 66.3553 66.9911C66.6414 65.3603 66.9434 63.9233 67.0228 63.8103C67.293 63.4873 68.4692 63.5681 68.8666 63.9394Z" fill="white"/>
<path d="M73.5578 63.4388C72.5087 64.1977 71.7617 66.1837 71.7617 68.1859C71.7617 70.075 72.3339 70.8823 73.669 70.8823C74.5432 70.8823 75.3856 70.4625 75.8465 69.7682C76.7684 68.3958 77.2611 65.4571 76.7842 64.1816C76.4187 63.2451 76.0213 62.9706 75.0041 62.9706C74.3683 62.9706 74.0664 63.0675 73.5578 63.4388ZM75.6399 63.8748C76.0213 64.2462 76.1008 64.8113 76.0054 66.103C75.8147 68.525 74.9405 70.075 73.7485 70.075C72.9697 70.075 72.7154 69.6229 72.7154 68.2343C72.7154 67.1041 73.2081 64.8759 73.5578 64.4238C74.1299 63.6649 75.1631 63.3904 75.6399 63.8748Z" fill="white"/>
<path d="M80.0443 63.1807C79.7423 63.2776 79.4403 63.4875 79.3767 63.6167C79.2496 63.8589 78.1211 70.1721 78.1211 70.6403C78.1211 70.8341 78.2482 70.8825 78.5502 70.8502C79.0747 70.7857 79.043 70.8664 79.7105 66.9267C79.9807 65.3282 80.2668 63.9557 80.3463 63.875C80.4257 63.7943 80.839 63.6974 81.2681 63.649C81.9357 63.5844 82.1105 63.6328 82.4125 63.9396C82.7463 64.2787 82.7622 64.4078 82.6668 65.4574C82.6191 66.0871 82.3966 67.5079 82.19 68.622C81.9834 69.7361 81.8403 70.6888 81.888 70.7534C81.9834 70.9471 82.5396 70.9148 82.6509 70.7211C82.8416 70.3981 83.684 65.5381 83.684 64.7469C83.684 64.1495 83.5887 63.8427 83.3026 63.5036C82.9529 63.1 82.8098 63.0516 81.7608 63.0193C81.1092 62.987 80.3463 63.0677 80.0443 63.1807Z" fill="white"/>
<path d="M87.2575 63.2778C86.5899 63.6976 86.3039 64.0528 85.8429 65.07C85.382 66.1034 85.0323 68.0894 85.1913 68.8806C85.4456 70.2853 86.2562 70.9634 87.6231 70.8989C88.8151 70.8666 89.4032 70.6082 89.4032 70.1238C89.4032 69.7686 89.3555 69.7363 89.0535 69.8332C88.8469 69.8978 88.3224 69.9947 87.8774 70.027C87.1939 70.0915 87.0032 70.0431 86.6217 69.704C86.2403 69.3811 86.1608 69.1712 86.0972 68.3639L86.0337 67.4112L88.1476 67.0399C89.3237 66.83 90.3092 66.6362 90.341 66.5878C90.3886 66.5555 90.4522 66.0872 90.484 65.5867C90.5635 64.5372 90.1502 63.4554 89.578 63.1325C89.0694 62.858 87.782 62.9387 87.2575 63.2778ZM89.2284 64.0367C89.4668 64.3434 89.5621 64.6987 89.5621 65.3122C89.5621 66.281 89.6893 66.2003 87.6072 66.5393C86.9237 66.6362 86.3356 66.6847 86.2721 66.6201C86.2085 66.5716 86.288 66.1357 86.431 65.6513C86.9555 63.9559 88.4972 63.084 89.2284 64.0367Z" fill="white"/>
<path d="M93.122 63.2293L92.6452 63.4715L91.8187 68.5091C91.3578 71.2863 90.9922 73.6437 90.9922 73.7567C90.9922 73.902 91.1511 73.9505 91.4213 73.9182C91.8346 73.8697 91.8664 73.8051 92.1366 72.3358C92.2796 71.4962 92.4068 70.8019 92.4068 70.7858C92.4227 70.7858 92.82 70.8019 93.2968 70.8504C94.9816 70.9957 96.2531 69.704 96.7935 67.2982C97.2227 65.3444 96.9843 63.9397 96.0783 63.2939C95.522 62.8902 93.869 62.8579 93.122 63.2293ZM95.5697 63.9397C95.7604 64.1173 95.967 64.4564 96.0147 64.6824C96.1737 65.3444 95.967 67.0237 95.6015 68.0247C95.1723 69.1873 94.6319 69.8331 93.9167 70.0753C93.2968 70.2852 92.5816 70.1722 92.5816 69.8654C92.5657 69.2519 93.6147 63.8428 93.7578 63.746C94.1233 63.4876 95.22 63.6168 95.5697 63.9397Z" fill="white"/>
<path d="M100.576 63.3904C100.226 63.6326 99.7491 64.117 99.5107 64.4884C98.557 65.9738 98.1756 68.525 98.716 69.6875C99.1451 70.5917 99.6378 70.8823 100.766 70.8823C101.545 70.8823 102.721 70.6563 102.753 70.511C102.769 70.4948 103.039 68.9125 103.389 67.0072L104.009 63.5357L103.675 63.2451C103.437 63.0513 103.071 62.9706 102.292 62.9706C101.418 62.9706 101.116 63.0513 100.576 63.3904ZM102.848 63.7456C102.96 63.8264 102.848 64.779 102.499 66.7973C102.213 68.4281 101.942 69.8167 101.879 69.9135C101.72 70.1557 100.798 70.2688 100.321 70.0912C99.4471 69.7521 99.1769 68.202 99.6696 66.2968C99.9716 65.0858 100.417 64.3269 101.068 63.9232C101.561 63.6165 102.531 63.5196 102.848 63.7456Z" fill="white"/>
<path d="M106.779 63.1481C106.493 63.2289 106.238 63.358 106.191 63.4226C106.159 63.4872 105.857 65.0373 105.539 66.8457C105.221 68.6702 104.919 70.3171 104.872 70.5109C104.808 70.8338 104.856 70.8823 105.205 70.8823C105.762 70.8823 105.825 70.7046 106.445 67.1686C106.811 65.0534 107.033 64.1169 107.24 63.907C107.621 63.5195 108.654 63.5195 109.115 63.907C109.576 64.2784 109.56 65.005 109.052 67.8952C108.527 70.7531 108.527 70.8823 109.02 70.8823C109.497 70.8823 109.449 71.0276 110.069 67.4108C110.625 64.2299 110.784 63.8747 111.754 63.681C112.453 63.5518 112.85 63.6971 113.057 64.1815C113.2 64.5044 113.152 65.1503 112.771 67.3785C112.167 70.8823 112.167 70.9145 112.723 70.85L113.168 70.8015L113.693 67.7337C114.265 64.343 114.233 63.6971 113.486 63.1966C112.898 62.8091 111.42 62.9544 110.752 63.4549L110.244 63.8263L109.815 63.4065C109.433 63.019 109.274 62.9705 108.336 62.9867C107.764 62.9867 107.065 63.0674 106.779 63.1481Z" fill="white"/>
<path d="M117.6 63.2774C116.471 63.9717 115.645 65.99 115.629 68.0244C115.629 70.0589 116.169 70.8823 117.504 70.8823C118.887 70.8823 119.761 70.075 120.365 68.2182C121.049 66.1353 120.953 64.1654 120.159 63.3581C119.666 62.8576 118.347 62.8091 117.6 63.2774ZM119.38 63.7456C120.016 64.1654 120.095 65.7801 119.587 67.7015C119.221 69.0739 118.744 69.7844 118.029 70.0427C116.948 70.4302 116.376 69.4453 116.583 67.54C116.757 65.8124 117.171 64.666 117.806 64.1008C118.331 63.6326 118.998 63.4873 119.38 63.7456Z" fill="white"/>
<path d="M123.76 63.1326C123.569 63.2133 123.347 63.4555 123.251 63.6492C123.172 63.8591 122.743 66.1196 122.298 68.703C121.853 71.2703 121.44 73.5147 121.392 73.6761C121.328 73.9345 121.392 73.9668 121.853 73.9183L122.377 73.8699L122.616 72.336L122.854 70.8021L123.76 70.8505C124.73 70.9151 125.349 70.6891 126.033 69.9786C127.225 68.7676 127.924 65.6514 127.32 64.1982C126.971 63.3263 126.319 62.9711 125.127 62.9872C124.587 62.9872 123.967 63.0518 123.76 63.1326ZM125.874 63.7138C126.987 64.1498 126.716 67.8957 125.461 69.3489C124.698 70.237 123.093 70.5276 123.093 69.7849C123.093 69.0906 124.11 63.843 124.269 63.7461C124.491 63.6008 125.508 63.5846 125.874 63.7138Z" fill="white"/>
<path d="M191.57 73.6598L190.648 73.9827V75.2422C190.648 77.4058 191.364 78.8751 192.762 79.6501C193.716 80.1507 196.116 80.1668 197.181 79.6663C198.659 78.972 199.899 77.4542 200.598 75.4682C201.139 73.9504 201.123 73.902 200.074 73.5629C199.215 73.2884 199.152 73.2884 198.993 73.5468C197.976 75.2906 197.165 76.0656 196.021 76.3724C194.352 76.8406 192.731 75.5812 192.715 73.8213C192.715 73.2239 192.762 73.2239 191.57 73.6598Z" fill="white"/>
<path d="M75.5089 82.1043C70.7089 83.3476 67.1486 88.9988 66.8784 95.8287C66.8149 97.3788 66.8626 98.2345 67.0374 99.0903C67.8957 103.159 70.693 105.42 74.8573 105.436C76.8281 105.436 79.4984 104.822 81.1354 103.966L81.7076 103.692L81.4215 101.448C81.2785 100.221 81.1513 99.2033 81.1354 99.2033C81.1354 99.1871 80.7222 99.3486 80.2136 99.5585C78.7354 100.156 77.4957 100.43 76.2242 100.43C74.6824 100.43 73.8242 100.027 73.252 99.058C72.8069 98.2668 72.4096 96.4746 72.648 96.2485C72.7275 96.1678 75.0798 95.7318 77.8772 95.2797C80.6745 94.8276 83.1858 94.424 83.4719 94.3755C83.9487 94.2948 83.9805 94.2464 84.1394 93.1968C84.7116 89.3379 84.3461 86.6737 82.9474 84.5262C81.8666 82.8632 80.1977 82.0074 77.8772 81.9267C76.9712 81.8944 76.1129 81.959 75.5089 82.1043ZM78.0997 86.593C78.7195 87.1742 78.9421 87.9493 78.9262 89.467C78.9103 91.7114 79.101 91.5661 75.7473 92.0989C74.1579 92.3572 72.8069 92.5025 72.7593 92.4541C72.5844 92.2765 73.0295 90.4035 73.5381 89.1602C74.5712 86.6253 76.7805 85.382 78.0997 86.593Z" fill="white"/>
<path d="M93.7774 82.0235C91.8065 82.2818 88.5165 83.3798 88.3893 83.8319C88.2939 84.1225 86.339 95.4088 85.7509 98.8965C85.4966 100.495 84.8608 104.209 84.3363 107.147C83.8118 110.086 83.335 112.863 83.2714 113.331L83.1602 114.155L86.2436 114.122L89.3112 114.074L89.4383 113.428C89.486 113.073 89.8357 111.103 90.2012 109.069C90.5509 107.018 90.8688 105.274 90.9165 105.161C90.9642 105.016 91.1231 105.016 91.584 105.145C92.6648 105.452 94.9218 105.371 96.0979 104.967C99.547 103.805 101.852 101.06 103.298 96.4099C104.156 93.6489 104.442 89.9675 103.95 87.8685C103.266 84.9621 101.438 82.9923 98.7205 82.2496C97.6715 81.9589 95.192 81.8459 93.7774 82.0235ZM96.8926 86.5929C98.0688 87.3841 98.3867 89.2894 97.9258 92.7285C97.2582 97.5725 95.7165 100.43 93.5072 100.899C92.633 101.092 91.6317 100.979 91.6317 100.689C91.6317 100.592 91.886 99.0902 92.188 97.3626C92.5059 95.6349 92.9986 92.6801 93.3006 90.8233C94.0317 86.3669 93.9999 86.5445 94.3814 86.383C95.0807 86.0924 96.3205 86.2054 96.8926 86.5929Z" fill="white"/>
<path d="M151.595 82.0235C150.228 82.2173 148.734 82.6209 147.383 83.1376L146.223 83.5897L145.714 86.3992C145.428 87.9492 144.761 91.7921 144.236 94.9406C143.712 98.0891 142.996 102.239 142.647 104.144C142.313 106.049 141.804 108.923 141.534 110.522C141.28 112.12 141.026 113.59 140.978 113.783L140.898 114.155H143.998C145.698 114.155 147.097 114.106 147.097 114.026C147.113 113.751 148.671 105.081 148.718 105.016C148.75 104.984 149.068 105.048 149.418 105.145C149.751 105.242 150.657 105.323 151.404 105.323C156.475 105.323 160.226 101.157 161.656 93.9718C162.006 92.2442 162.038 89.0472 161.736 87.8362C161.004 84.9783 159.383 83.1376 156.824 82.3464C155.616 81.9589 153.089 81.8136 151.595 82.0235ZM154.853 86.6414C155.696 87.2711 155.918 88.03 155.902 90.1774C155.855 94.1656 154.71 98.1376 153.089 99.9137C152.374 100.705 151.023 101.157 150.006 100.979C149.577 100.899 149.481 100.802 149.481 100.479C149.481 100.253 149.863 97.8792 150.34 95.1989C150.816 92.5348 151.325 89.6123 151.468 88.7243C151.849 86.3669 151.834 86.4153 152.231 86.3346C153.01 86.157 154.408 86.3184 154.853 86.6414Z" fill="white"/>
<path d="M45.6151 82.8632C45.5515 83.1538 45.0429 85.1398 44.4707 87.2711C43.9144 89.4025 43.0243 92.8416 42.4998 94.9245C41.9753 96.9913 41.1965 100.011 40.7674 101.625C40.3223 103.224 39.9727 104.645 39.9727 104.742C39.9727 104.903 40.672 104.951 42.9766 104.951H45.9806L46.3303 103.45C46.521 102.642 47.1568 99.8492 47.7608 97.2819C48.3647 94.6985 48.9369 92.1635 49.0482 91.6307L49.2548 90.6619L49.382 91.8729C49.4455 92.5349 49.6839 95.3766 49.9065 98.1699C50.129 100.963 50.3515 103.644 50.3992 104.096L50.4945 104.951H51.7184H52.9263L53.2283 104.176C53.4032 103.757 53.9436 102.465 54.4363 101.318C55.8667 98.0246 58.3621 92.0182 58.5846 91.3077C58.982 90.0968 58.9184 91.2431 58.1714 97.847C57.774 101.448 57.4562 104.499 57.4562 104.661C57.4562 104.935 57.6787 104.951 60.3966 104.951C62.9873 104.951 63.337 104.919 63.337 104.693C63.337 104.548 63.5118 102.174 63.7343 99.3971C64.2429 92.7932 64.9264 83.396 64.9264 82.8147V82.3465H61.8747H58.8071L58.2668 83.6059C57.9648 84.2841 57.5515 85.2367 57.3449 85.7049C57.1542 86.1732 56.9793 86.593 56.9793 86.6253C56.9793 86.6737 56.3436 88.1753 55.5648 89.9676C54.8018 91.776 53.9595 93.875 53.7051 94.6662C53.4667 95.4412 53.1965 96.0709 53.133 96.0709C53.0694 96.0709 53.0058 95.5704 53.0058 94.973C53.0058 93.8266 52.4495 84.8815 52.2747 83.2668L52.1793 82.3465H48.9528H45.7263L45.6151 82.8632Z" fill="white"/>
<path d="M108.731 82.6209C108.635 82.9923 106.824 93.2129 106.49 95.2635C106.235 96.9105 105.043 103.773 104.884 104.515L104.789 104.951H107.888H110.988L111.083 104.176C111.369 102.19 112.816 94.0364 112.911 93.9234C113.022 93.8104 113.96 96.6198 115.613 102.029C116.058 103.482 116.471 104.725 116.519 104.806C116.567 104.887 118.029 104.951 119.777 104.951H122.956L122.845 104.58C122.718 104.112 119.682 95.2635 119.3 94.1979C119.078 93.5843 119.046 93.3098 119.173 93.0676C119.269 92.9062 120.524 91.0493 121.971 88.9664C123.417 86.8836 124.911 84.6877 125.308 84.0741C125.69 83.4767 126.071 83.0407 126.135 83.1053C126.198 83.186 126.437 85.1559 126.675 87.5133C126.898 89.8706 127.406 94.763 127.788 98.3959L128.503 105.016L126.739 108.568C125.753 110.538 124.72 112.589 124.418 113.154L123.862 114.155L127.406 114.122L130.951 114.074L131.571 112.621C131.904 111.814 132.397 110.699 132.667 110.118C132.937 109.537 133.637 107.938 134.225 106.566C134.829 105.194 136.116 102.239 137.086 100.027C138.071 97.7985 139.422 94.7146 140.106 93.1645C140.789 91.6144 142.124 88.5466 143.094 86.3346L144.842 82.3464L141.504 82.3787L138.151 82.4272L136.863 85.7372C134.352 92.1311 134.066 92.9385 133.573 94.9406C133.096 96.8459 132.651 97.9761 132.874 96.7167C132.922 96.4099 132.858 93.2452 132.731 89.693C132.588 86.1408 132.477 83.0407 132.477 82.7824V82.3464L126.087 82.3626H119.682L116.535 87.368C114.802 90.1128 113.324 92.3572 113.261 92.3572C113.165 92.3572 114.421 84.4293 114.771 82.7824L114.866 82.3464H111.83C109.096 82.3464 108.81 82.3787 108.731 82.6209Z" fill="white"/>
<path d="M166.493 82.4433C166.493 82.4917 166.27 83.7027 166.016 85.1397C165.587 87.4648 164.697 92.567 164.013 96.7974C163.663 98.848 163.775 101.221 164.251 102.336C164.903 103.837 166.62 104.935 168.877 105.29C170.498 105.549 173.995 105.387 175.648 104.967C176.951 104.645 179.033 103.902 179.24 103.692C179.399 103.53 179.494 103.03 180.654 96.1515C181.179 93.0353 181.926 88.7081 182.307 86.5283C182.705 84.3324 183.022 82.5079 183.022 82.4433C183.022 82.3948 181.624 82.3464 179.923 82.3464C178.159 82.3464 176.824 82.411 176.824 82.4917C176.824 82.75 175.266 91.905 174.519 96.0224C174.122 98.1698 173.804 99.9621 173.804 99.9944C173.804 100.204 172.723 100.463 171.897 100.463C170.736 100.463 170.228 100.172 170.005 99.3485C169.814 98.6542 169.814 98.5735 170.641 93.9718C171.563 88.7726 172.532 82.9438 172.532 82.6209C172.532 82.3625 172.278 82.3464 169.512 82.3464C167.859 82.3464 166.493 82.3948 166.493 82.4433Z" fill="white"/>
<path d="M186.439 82.54C186.312 82.9275 183.896 97.3462 183.737 98.7348C183.61 99.8166 183.896 101.577 184.373 102.529C185.104 103.982 186.582 104.903 188.776 105.274C190.222 105.5 192.781 105.468 194.402 105.193C196.23 104.87 199.202 103.853 199.298 103.514C199.393 103.175 200.49 96.9103 201.221 92.5992C201.761 89.2892 202.095 87.3355 202.699 83.9932L203.001 82.3463H199.933C196.866 82.3463 196.85 82.3463 196.77 82.7015C196.739 82.9114 196.548 84.0093 196.357 85.1719C196.182 86.3183 195.642 89.4184 195.181 92.0341C194.72 94.6498 194.211 97.54 194.052 98.4442C193.766 100.027 193.735 100.107 193.274 100.301C192.558 100.608 191.112 100.559 190.588 100.22C189.666 99.6067 189.666 99.1708 190.667 93.568C191.478 88.9178 192.558 82.6207 192.558 82.4593C192.558 82.3947 191.192 82.3463 189.539 82.3463C187.25 82.3463 186.487 82.3947 186.439 82.54Z" fill="white"/>
</svg>
