<svg width="87" height="87" viewBox="0 0 87 87" fill="none" xmlns="http://www.w3.org/2000/svg">
<path d="M70.7616 16.8199C71.4028 16.8199 71.9216 16.3005 71.9216 15.6599V13.3399C71.9216 12.6993 71.4028 12.1799 70.7616 12.1799C70.1204 12.1799 69.6016 12.6993 69.6016 13.3399V15.6599C69.6016 16.3005 70.1204 16.8199 70.7616 16.8199Z" fill="#572F9A"/>
<path d="M70.7616 19.1399C70.1204 19.1399 69.6016 19.6593 69.6016 20.2999V22.6199C69.6016 23.2605 70.1204 23.7799 70.7616 23.7799C71.4028 23.7799 71.9216 23.2605 71.9216 22.6199V20.2999C71.9216 19.6593 71.4028 19.1399 70.7616 19.1399Z" fill="#572F9A"/>
<path d="M69.6009 17.9801C69.6009 17.3395 69.0821 16.8201 68.4409 16.8201H66.1209C65.4797 16.8201 64.9609 17.3395 64.9609 17.9801C64.9609 18.6207 65.4797 19.1401 66.1209 19.1401H68.4409C69.0821 19.1401 69.6009 18.6207 69.6009 17.9801Z" fill="#572F9A"/>
<path d="M75.4019 16.8201H73.0819C72.4407 16.8201 71.9219 17.3395 71.9219 17.9801C71.9219 18.6207 72.4407 19.1401 73.0819 19.1401H75.4019C76.0431 19.1401 76.5619 18.6207 76.5619 17.9801C76.5619 17.3395 76.0431 16.8201 75.4019 16.8201Z" fill="#572F9A"/>
<path d="M45.2395 41.8362L55.1906 35.8654C55.9173 36.9683 57.1632 37.7 58.5795 37.7C60.818 37.7 62.6395 35.8785 62.6395 33.6399C62.6395 31.4014 60.818 29.58 58.5795 29.58C56.3692 29.58 54.5732 31.3579 54.5279 33.5576L45.2395 39.1308V34.7002L51.0172 28.9225C51.7074 29.33 52.5017 29.58 53.3595 29.58C55.9185 29.58 57.9995 27.4983 57.9995 24.94C57.9995 22.3816 55.9185 20.3 53.3595 20.3C50.8006 20.3 48.7195 22.3816 48.7195 24.94C48.7195 25.7978 48.9695 26.5921 49.377 27.2823L45.2395 31.4197V23.1002L49.5397 18.8001C49.9926 18.3471 49.9926 17.6128 49.5397 17.1598C49.0867 16.7069 48.3524 16.7069 47.8994 17.1598L45.2395 19.8197V17.98C45.2395 17.9249 45.2158 17.8779 45.2085 17.8251C47.2202 17.3173 48.7195 15.5071 48.7195 13.34C48.7195 10.7816 46.6385 8.69995 44.0795 8.69995C41.5206 8.69995 39.4395 10.7816 39.4395 13.34C39.4395 15.5071 40.9388 17.3173 42.9509 17.8251C42.9436 17.8779 42.9195 17.9251 42.9195 17.98V19.8197L40.2597 17.1598C39.8067 16.7069 39.0724 16.7069 38.6194 17.1598C38.1664 17.6128 38.1664 18.3471 38.6194 18.8001L42.9195 23.1002V31.4197L38.7818 27.2826C39.1895 26.5924 39.4395 25.7981 39.4395 24.94C39.4395 22.3816 37.3585 20.3 34.7995 20.3C32.2406 20.3 30.1595 22.3816 30.1595 24.94C30.1595 27.4983 32.2406 29.58 34.7995 29.58C35.6574 29.58 36.4514 29.33 37.1416 28.9228L42.9195 34.7002V39.1308L33.6311 33.5576C33.5859 31.3579 31.7899 29.58 29.5795 29.58C27.341 29.58 25.5195 31.4014 25.5195 33.6399C25.5195 35.8785 27.341 37.7 29.5795 37.7C30.9959 37.7 32.2417 36.9683 32.9685 35.8654L42.9195 41.8362V49.9797L38.7821 45.8423C39.1896 45.1521 39.4395 44.3581 39.4395 43.5C39.4395 40.9416 37.3585 38.86 34.7995 38.86C32.2406 38.86 30.1595 40.9416 30.1595 43.5C30.1595 46.0583 32.2406 48.1399 34.7995 48.1399C35.6574 48.1399 36.4517 47.89 37.1419 47.4825L42.9195 53.2602V69.02H32.4795C29.2817 69.02 26.6795 71.6221 26.6795 74.8199V77.1399C26.6795 77.7806 27.1983 78.2999 27.8395 78.2999C28.4807 78.2999 28.9995 77.7806 28.9995 77.1399V74.8199C28.9995 72.901 30.5606 71.34 32.4795 71.34H42.9195V72.5C42.9195 73.1406 43.4383 73.66 44.0795 73.66C44.7207 73.66 45.2395 73.1406 45.2395 72.5V71.34H55.6795C57.5985 71.34 59.1595 72.901 59.1595 74.8199V77.1399C59.1595 77.7806 59.6783 78.2999 60.3195 78.2999C60.9607 78.2999 61.4795 77.7806 61.4795 77.1399V74.8199C61.4795 71.6221 58.8774 69.02 55.6795 69.02H45.2395V53.2602L51.0172 47.4825C51.7074 47.89 52.5017 48.1399 53.3595 48.1399C55.9185 48.1399 57.9995 46.0583 57.9995 43.5C57.9995 40.9416 55.9185 38.86 53.3595 38.86C50.8006 38.86 48.7195 40.9416 48.7195 43.5C48.7195 44.3578 48.9695 45.1521 49.377 45.8423L45.2395 49.9797V41.8362ZM58.5795 31.9C59.5391 31.9 60.3195 32.6803 60.3195 33.6399C60.3195 34.5996 59.5391 35.3799 58.5795 35.3799C57.6199 35.3799 56.8395 34.5996 56.8395 33.6399C56.8395 32.6803 57.6199 31.9 58.5795 31.9ZM53.3595 22.62C54.6384 22.62 55.6795 23.6605 55.6795 24.94C55.6795 26.2194 54.6384 27.26 53.3595 27.26C52.0806 27.26 51.0395 26.2194 51.0395 24.94C51.0395 23.6605 52.0806 22.62 53.3595 22.62ZM32.4795 24.94C32.4795 23.6605 33.5206 22.62 34.7995 22.62C36.0784 22.62 37.1195 23.6605 37.1195 24.94C37.1195 26.2194 36.0784 27.26 34.7995 27.26C33.5206 27.26 32.4795 26.2194 32.4795 24.94ZM29.5795 35.3799C28.6199 35.3799 27.8395 34.5996 27.8395 33.6399C27.8395 32.6803 28.6199 31.9 29.5795 31.9C30.5391 31.9 31.3195 32.6803 31.3195 33.6399C31.3195 34.5996 30.5391 35.3799 29.5795 35.3799ZM32.4795 43.5C32.4795 42.2205 33.5206 41.18 34.7995 41.18C36.0784 41.18 37.1195 42.2205 37.1195 43.5C37.1195 44.7794 36.0784 45.82 34.7995 45.82C33.5206 45.82 32.4795 44.7794 32.4795 43.5ZM53.3595 41.18C54.6384 41.18 55.6795 42.2205 55.6795 43.5C55.6795 44.7794 54.6384 45.82 53.3595 45.82C52.0806 45.82 51.0395 44.7794 51.0395 43.5C51.0395 42.2205 52.0806 41.18 53.3595 41.18ZM41.7595 13.34C41.7595 12.0605 42.8006 11.02 44.0795 11.02C45.3584 11.02 46.3995 12.0605 46.3995 13.34C46.3995 14.6194 45.3584 15.66 44.0795 15.66C42.8006 15.66 41.7595 14.6194 41.7595 13.34Z" fill="#572F9A"/>
<path d="M68.9549 51.1246C69.6397 51.1246 70.1949 50.5694 70.1949 49.8846C70.1949 49.1997 69.6397 48.6445 68.9549 48.6445C68.27 48.6445 67.7148 49.1997 67.7148 49.8846C67.7148 50.5694 68.27 51.1246 68.9549 51.1246Z" fill="#572F9A"/>
<path d="M19.076 18.6446C19.7608 18.6446 20.316 18.0894 20.316 17.4046C20.316 16.7197 19.7608 16.1646 19.076 16.1646C18.3911 16.1646 17.8359 16.7197 17.8359 17.4046C17.8359 18.0894 18.3911 18.6446 19.076 18.6446Z" fill="#572F9A"/>
<path d="M14.5014 49.2999C12.2629 49.2999 10.4414 51.1214 10.4414 53.3599C10.4414 55.5984 12.2629 57.4199 14.5014 57.4199C16.7399 57.4199 18.5614 55.5984 18.5614 53.3599C18.5614 51.1214 16.7399 49.2999 14.5014 49.2999ZM14.5014 55.0999C13.5418 55.0999 12.7614 54.3195 12.7614 53.3599C12.7614 52.4003 13.5418 51.6199 14.5014 51.6199C15.461 51.6199 16.2414 52.4003 16.2414 53.3599C16.2414 54.3195 15.461 55.0999 14.5014 55.0999Z" fill="#572F9A"/>
</svg>
