<svg width="60" height="60" viewBox="0 0 60 60" fill="none" xmlns="http://www.w3.org/2000/svg">
<g clip-path="url(#clip0_85_1995)">
<path d="M54.6578 10.3607C46.4025 8.09873 38.0988 4.57666 30.6441 0.175341C30.2482 -0.0584472 29.7568 -0.0584472 29.3609 0.175341C21.6913 4.70311 13.8362 8.03462 5.34656 10.3607C4.79812 10.5108 4.41797 11.0093 4.41797 11.578V24.474C4.41797 37.754 10.5444 46.5445 15.684 51.5801C21.2171 57.0018 27.6624 60 30.0025 60C32.3424 60 38.7877 57.0018 44.3208 51.5801C49.4603 46.5446 55.5864 37.7541 55.5864 24.474V11.5779C55.5864 11.0093 55.2062 10.5108 54.6578 10.3607ZM53.0622 24.4739C53.0622 36.8773 47.348 45.0799 42.5541 49.777C37.113 55.1084 31.2955 57.4756 30.0025 57.4756C28.7096 57.4756 22.8917 55.1084 17.4505 49.777C12.6567 45.0798 6.9423 36.8773 6.9423 24.4739V12.536C15.0608 10.2309 22.6215 7.01404 30.0028 2.72463C37.1997 6.90025 45.1376 10.2771 53.0622 12.5356V24.4739Z" fill="#572F9A"/>
<path d="M18.8138 12.3949C18.5583 11.7462 17.8255 11.4276 17.1768 11.6832C14.9221 12.5716 12.6079 13.3893 10.2985 14.1138C9.77219 14.279 9.41406 14.7665 9.41406 15.318V20.1919C9.41406 20.889 9.97926 21.454 10.6762 21.454C11.3731 21.454 11.9383 20.889 11.9383 20.1919V16.2404C14.01 15.5701 16.0796 14.8286 18.1021 14.0316C18.7507 13.7763 19.0694 13.0435 18.8138 12.3949Z" fill="#572F9A"/>
<path d="M21.2142 12.6344C21.3835 12.6344 21.5555 12.6003 21.7203 12.5283L21.7435 12.5182C22.3821 12.2384 22.6697 11.4951 22.3898 10.8568C22.1098 10.2182 21.3622 9.92934 20.7244 10.209L20.704 10.2177C20.0651 10.4968 19.7766 11.2395 20.0556 11.8782C20.2626 12.3523 20.7273 12.6344 21.2142 12.6344Z" fill="#572F9A"/>
<path d="M45.0419 40.6971C44.4587 40.3159 43.6766 40.4798 43.2949 41.0633C42.2549 42.6552 41.0347 44.1796 39.6678 45.5937C38.5438 46.7564 37.3257 47.8401 36.0476 48.8146C35.4934 49.2371 35.3868 50.0291 35.8092 50.5835C36.0578 50.9092 36.4336 51.0805 36.8137 51.0805C37.0807 51.0805 37.3496 50.9962 37.5782 50.8219C38.9569 49.7706 40.2705 48.6019 41.4825 47.3482C42.9603 45.8196 44.281 44.1696 45.4081 42.444C45.7896 41.8604 45.6254 41.0783 45.0419 40.6971Z" fill="#572F9A"/>
<path d="M33.1165 50.7939L33.0441 50.8366C32.441 51.1859 32.2348 51.958 32.584 52.5611C32.8181 52.9654 33.2417 53.1911 33.6775 53.1911C33.892 53.1911 34.1097 53.1364 34.3086 53.021L34.3921 52.9719C34.9936 52.6196 35.1957 51.8465 34.8434 51.245C34.4909 50.6437 33.7177 50.442 33.1165 50.7939Z" fill="#572F9A"/>
<path d="M21.3986 27.424C20.6236 26.6489 19.5929 26.2223 18.4968 26.2223C17.4006 26.2223 16.3698 26.649 15.5945 27.424C13.9945 29.0243 13.9945 31.6282 15.5945 33.2284L23.0471 40.6808C23.8222 41.4556 24.8529 41.8823 25.9492 41.8823C27.0455 41.8823 28.0761 41.4556 28.8513 40.6805L44.4092 25.1225C46.009 23.5219 46.0091 20.9183 44.409 19.3186C43.6339 18.5435 42.6032 18.1169 41.5068 18.1169C40.4105 18.1169 39.3799 18.5436 38.6047 19.3186L25.949 31.9742L21.3986 27.424ZM40.3897 21.1036C40.6879 20.8053 41.0848 20.6412 41.5069 20.6412C41.9293 20.6412 42.3259 20.8053 42.6243 21.1036C43.2401 21.7194 43.2401 22.7218 42.6241 23.3379L27.0664 38.8957C26.7682 39.1939 26.3713 39.3581 25.9492 39.3581C25.5271 39.3581 25.1301 39.1939 24.8318 38.8957L17.3794 31.4435C16.7633 30.8274 16.7633 29.825 17.3791 29.2092C17.6775 28.9109 18.0744 28.7465 18.4966 28.7465C18.9189 28.7465 19.3155 28.9107 19.6138 29.209L25.0566 34.6518C25.2934 34.8884 25.6142 35.0214 25.949 35.0214C26.2839 35.0214 26.6047 34.8885 26.8413 34.6518L40.3897 21.1036Z" fill="#572F9A"/>
</g>
<defs>
<clipPath id="clip0_85_1995">
<rect width="60" height="60" fill="white"/>
</clipPath>
</defs>
</svg>
