<svg width="67" height="67" viewBox="0 0 67 67" fill="none" xmlns="http://www.w3.org/2000/svg">
<path d="M26.2447 31.8213C29.0595 29.979 30.9243 26.8003 30.9243 23.1923C30.9243 17.5087 26.3002 12.8846 20.6166 12.8846C14.9329 12.8846 10.3089 17.5087 10.3089 23.1923C10.3089 26.8012 12.1745 29.9806 14.9905 31.8226C7.79072 34.1919 2.57812 40.9789 2.57812 48.9616V63.1346C2.57812 63.8461 3.15497 64.4231 3.86659 64.4231H37.3666C38.0781 64.4231 38.655 63.8461 38.655 63.1346V48.9616C38.655 41.1433 33.6138 34.2374 26.2447 31.8213ZM12.8858 23.1923C12.8858 18.9296 16.3538 15.4616 20.6166 15.4616C24.8793 15.4616 28.3474 18.9296 28.3474 23.1923C28.3474 27.4551 24.8793 30.9231 20.6166 30.9231C16.3538 30.9231 12.8858 27.4551 12.8858 23.1923ZM36.0781 61.8462H30.9243V52.827C30.9243 52.1155 30.3474 51.5385 29.6358 51.5385C28.9242 51.5385 28.3474 52.1155 28.3474 52.827V61.8462H12.8858V52.827C12.8858 52.1155 12.309 51.5385 11.5974 51.5385C10.8857 51.5385 10.3089 52.1155 10.3089 52.827V61.8462H5.15505V48.9616C5.15505 40.4361 12.0911 33.5 20.6166 33.5C29.209 33.5 36.0781 40.4776 36.0781 48.9616V61.8462Z" fill="#572F9A"/>
<path d="M7.72867 10.3077C9.86004 10.3077 11.5941 8.57366 11.5941 6.44229C11.5941 4.31092 9.86004 2.5769 7.72867 2.5769C5.59729 2.5769 3.86328 4.31092 3.86328 6.44229C3.86328 8.57366 5.59729 10.3077 7.72867 10.3077ZM7.72867 5.15383C8.43912 5.15383 9.01713 5.73183 9.01713 6.44229C9.01713 7.15275 8.43912 7.73075 7.72867 7.73075C7.01821 7.73075 6.4402 7.15275 6.4402 6.44229C6.4402 5.73183 7.01821 5.15383 7.72867 5.15383Z" fill="#572F9A"/>
<path d="M55.4084 54.1152C53.277 54.1152 51.543 55.8492 51.543 57.9806C51.543 60.112 53.277 61.846 55.4084 61.846C57.5397 61.846 59.2737 60.112 59.2737 57.9806C59.2737 55.8492 57.5397 54.1152 55.4084 54.1152ZM55.4084 59.2691C54.6979 59.2691 54.1199 58.6911 54.1199 57.9806C54.1199 57.2702 54.6979 56.6922 55.4084 56.6922C56.1188 56.6922 56.6968 57.2702 56.6968 57.9806C56.6968 58.6911 56.1188 59.2691 55.4084 59.2691Z" fill="#572F9A"/>
<path d="M57.9787 18.0384C60.11 18.0384 61.8441 16.3044 61.8441 14.173C61.8441 12.0416 60.11 10.3076 57.9787 10.3076C55.8473 10.3076 54.1133 12.0416 54.1133 14.173C54.1133 16.3044 55.8473 18.0384 57.9787 18.0384ZM57.9787 12.8845C58.6891 12.8845 59.2671 13.4625 59.2671 14.173C59.2671 14.8835 58.6891 15.4615 57.9787 15.4615C57.2682 15.4615 56.6902 14.8835 56.6902 14.173C56.6902 13.4625 57.2682 12.8845 57.9787 12.8845Z" fill="#572F9A"/>
<path d="M36.8281 5.15015L38.65 6.97203L36.8282 8.79382L35.0063 6.97194L36.8281 5.15015Z" fill="#572F9A"/>
<path d="M35.0117 10.6179L33.1897 12.4399L31.3679 10.618L33.1898 8.79604L35.0117 10.6179Z" fill="#572F9A"/>
<path d="M38.6602 10.6177L36.8382 12.4397L35.0163 10.6178L36.8383 8.79579L38.6602 10.6177Z" fill="#572F9A"/>
<path d="M31.3633 6.97876L33.1851 5.15697L35.007 6.97885L33.1852 8.80064L31.3633 6.97876Z" fill="#572F9A"/>
<path d="M51.5409 23.1921C44.4362 23.1921 38.6562 28.9722 38.6562 36.0768C38.6562 43.1815 44.4362 48.9614 51.5409 48.9614C58.6456 48.9614 64.4255 43.1815 64.4255 36.0768C64.4255 28.9722 58.6456 23.1921 51.5409 23.1921ZM51.5409 46.3844C45.8572 46.3844 41.2332 41.7604 41.2332 36.0768C41.2332 30.3931 45.8572 25.7691 51.5409 25.7691C57.2245 25.7691 61.8486 30.3931 61.8486 36.0768C61.8486 41.7604 57.2245 46.3844 51.5409 46.3844Z" fill="#572F9A"/>
<path d="M56.4678 31.1775C55.897 30.7529 55.0898 30.8715 54.6651 31.4424L48.958 39.1149L47.3679 37.2443C46.9069 36.7024 46.0941 36.6364 45.5516 37.0972C45.0095 37.5581 44.9435 38.3713 45.4044 38.9135L48.0435 42.0178C48.5747 42.6426 49.5602 42.6226 50.059 41.9521L56.7326 32.9803C57.1575 32.4094 57.0388 31.6021 56.4678 31.1775Z" fill="#572F9A"/>
</svg>
