<svg width="12" height="19" viewBox="0 0 12 19" fill="none" xmlns="http://www.w3.org/2000/svg">
<g clip-path="url(#clip0_85_119)">
<path d="M1.24271 9.16545C1.25467 8.96059 1.34665 8.76588 1.50279 8.61487L8.63633 1.74353C8.72497 1.65856 8.83156 1.58995 8.95002 1.54161C9.06848 1.49327 9.19648 1.46615 9.32673 1.4618C9.45697 1.45745 9.58691 1.47595 9.70911 1.51625C9.83131 1.55655 9.94339 1.61786 10.0389 1.69667C10.1345 1.77549 10.2117 1.87027 10.266 1.9756C10.3204 2.08093 10.3509 2.19475 10.3557 2.31056C10.3606 2.42637 10.3398 2.54189 10.2945 2.65055C10.2491 2.7592 10.1802 2.85885 10.0915 2.94381L3.58341 9.21501L10.0915 15.4862C10.1802 15.5712 10.2491 15.6708 10.2945 15.7795C10.3398 15.8881 10.3606 16.0036 10.3557 16.1194C10.3509 16.2353 10.3204 16.3491 10.266 16.4544C10.2117 16.5597 10.1345 16.6545 10.0389 16.7333C9.94339 16.8121 9.83131 16.8735 9.70911 16.9138C9.58691 16.9541 9.45697 16.9726 9.32673 16.9682C9.19648 16.9639 9.06848 16.9367 8.95002 16.8884C8.83156 16.8401 8.72497 16.7715 8.63634 16.6865L1.50279 9.81514C1.41253 9.72796 1.34297 9.6255 1.29829 9.51387C1.2536 9.40223 1.2347 9.28373 1.24271 9.16545Z" fill="white"/>
</g>
<defs>
<clipPath id="clip0_85_119">
<rect width="10.125" height="18" fill="white" transform="matrix(-1 8.74228e-08 8.74228e-08 1 11.0166 0.405762)"/>
</clipPath>
</defs>
</svg>
