<svg width="132" height="74" viewBox="0 0 132 74" fill="none" xmlns="http://www.w3.org/2000/svg">
<path d="M35.4013 0.387314C35.154 1.11998 34.3503 2.50159 33.5776 3.5692C31.7333 6.08122 29.2915 7.98617 26.2211 9.29451C25.6853 9.52478 24.2017 10.0795 22.9241 10.5191C20.235 11.4507 17.6282 12.5078 16.5773 13.073C12.4148 15.3548 10.8281 18.0133 10.8281 22.7129C10.8384 24.5864 11.0033 25.7273 11.5493 27.402C12.2912 29.7361 13.4967 31.7875 14.9494 33.2006C15.6088 33.839 18.7513 36.4243 18.8749 36.4243C18.9058 36.4243 18.7822 36.2464 18.607 36.0266C16.4949 33.4727 15.1246 31.3165 14.2694 29.2023C13.2185 26.617 13.0639 23.6863 13.8676 21.4883C14.1973 20.6195 14.9906 19.4891 15.9385 18.568C17.1131 17.4272 18.844 16.3596 22.481 14.5174C26.2623 12.5915 27.4781 11.8484 29.3636 10.2993C32.2073 7.95477 34.3194 4.96128 35.2261 2.00966C35.4734 1.21419 35.6898 4.19617e-05 35.5764 4.19617e-05C35.5558 4.19617e-05 35.4734 0.177979 35.4013 0.387314Z" fill="#7F09A8"/>
<path d="M32.3499 12.4242C31.3711 13.6488 28.9292 16.1504 27.9195 16.9563C25.9928 18.5054 25.694 18.6519 18.7806 21.5931L17.7812 22.0117L17.7503 23.9481C17.7297 25.0052 17.7503 25.8949 17.7915 25.9158C17.9563 26.0205 21.2534 24.3982 23.2316 23.2468C26.7244 21.1953 28.9292 18.9973 31.1341 15.3863C31.9378 14.0675 33.236 11.5031 33.0917 11.5136C33.0814 11.5136 32.7517 11.9218 32.3499 12.4242Z" fill="#7F09A8"/>
<path d="M29.3659 22.9746C26.7901 25.6122 25.5022 26.6694 23.5446 27.7579C22.7822 28.187 20.8555 29.0453 20.433 29.15L20.1445 29.2233V31.2015V33.1797L20.6391 32.939C22.4834 32.0597 24.8428 30.4583 26.1719 29.1814C27.3362 28.0614 28.1089 27.0357 29.2114 25.1517C29.8708 24.0422 31.5605 20.7871 31.4574 20.8394C31.4368 20.8499 30.4993 21.8128 29.3659 22.9746Z" fill="#7F09A8"/>
<path d="M23.4398 40.6739C23.4398 40.7263 23.5428 41.124 23.6562 41.5531C23.924 42.5475 24.0271 44.7036 23.8622 45.5514C23.6046 46.8074 22.8525 47.9065 21.7501 48.6391C21.4513 48.8485 20.5446 49.2043 19.4318 49.5707C17.2991 50.2719 16.3409 50.6906 15.4754 51.3291C14.7439 51.8524 13.2602 53.391 12.7038 54.1656C12.1784 54.9087 11.3644 56.4997 10.9214 57.6719C10.7153 58.2162 10.3753 59.0849 10.1796 59.6083C9.18015 62.1936 7.46982 64.0357 4.78069 65.4173C3.8534 65.8988 2.09155 66.4431 1.00971 66.6001L0 66.7361L0.51516 66.9141C1.41154 67.2176 2.60671 67.406 3.70915 67.406C6.36738 67.406 8.57226 66.2756 10.7462 63.8054C11.6117 62.8216 12.2093 61.7854 12.8275 60.1526C13.8578 57.4835 14.2596 56.8032 15.5269 55.6309C16.856 54.4063 18.2161 53.6318 20.1428 53.0142C21.884 52.4386 22.7804 51.8001 23.8004 50.3975C24.8513 48.9531 25.2841 47.7809 25.3665 46.1585C25.4386 44.7978 25.1913 43.636 24.5731 42.38C24.1919 41.595 23.4398 40.4646 23.4398 40.6739Z" fill="#7F09A8"/>
<path d="M32.2977 40.9669L31.9371 41.103L31.6074 42.9242C31.422 43.929 31.2571 45.0071 31.2468 45.3211C31.2159 45.8654 31.2262 45.8968 31.4735 45.8968C31.762 45.8968 31.7311 46.0224 32.1741 43.3429C32.3492 42.3485 32.5244 41.4903 32.5862 41.4275C32.648 41.3647 32.9056 41.2914 33.1529 41.2705C33.5547 41.2181 33.6578 41.2495 33.8844 41.4798C34.0287 41.6263 34.1523 41.8566 34.1523 41.9822C34.1523 42.0973 34.0081 42.9766 33.8329 43.9081C33.6578 44.8501 33.5341 45.6979 33.565 45.7816C33.6268 45.9491 33.9978 46.0119 34.0802 45.8654C34.1111 45.8235 34.2759 44.9024 34.4614 43.8034C34.6366 42.7149 34.8426 41.7519 34.9044 41.6787C35.0796 41.4589 35.5535 41.2391 35.8523 41.2391C36.2129 41.2391 36.522 41.5845 36.522 41.9927C36.522 42.1811 36.3778 43.0917 36.2129 44.0128C36.0481 44.9338 35.9039 45.7502 35.9039 45.8235C35.9039 45.9177 36.0069 45.9491 36.1923 45.9282L36.4705 45.8968L36.8002 43.9604C37.1608 41.8671 37.1711 41.4484 36.8208 41.0716C36.4808 40.7053 35.5741 40.7157 35.0384 41.0821C34.8323 41.2286 34.6366 41.3437 34.6159 41.3437C34.5953 41.3437 34.4614 41.2286 34.3172 41.0821C34.0905 40.8518 33.9772 40.8204 33.359 40.8309C32.9777 40.8309 32.4935 40.8937 32.2977 40.9669Z" fill="#582F9A"/>
<path d="M38.5148 41.4693C38.556 41.8356 38.6591 43.0079 38.7518 44.0755L38.9269 46.0223L38.453 46.9329C38.1851 47.4249 37.9688 47.8645 37.9688 47.8854C37.9688 47.9168 38.113 47.9377 38.2778 47.9377C38.6179 47.9377 38.6179 47.9482 39.9264 44.9547C40.2561 44.2011 40.7815 43.0288 41.1009 42.3485C41.4203 41.6682 41.6779 41.0402 41.6779 40.9564C41.6779 40.8518 41.5852 40.8204 41.3997 40.8413C41.1524 40.8727 41.0597 41.0297 40.3282 42.7567C39.8954 43.7929 39.4936 44.7035 39.4421 44.7873C39.3803 44.8919 39.3391 44.7349 39.3288 44.3162C39.2876 43.3847 39.0918 40.9878 39.03 40.9041C39.0094 40.8518 38.8651 40.8204 38.7209 40.8204C38.453 40.8204 38.453 40.8204 38.5148 41.4693Z" fill="#582F9A"/>
<path d="M43.1285 40.9564C42.9946 41.0192 42.84 41.1553 42.7988 41.239C42.7164 41.396 41.6758 47.4458 41.6758 47.7598C41.6758 47.8749 41.7582 47.9377 41.9334 47.9377C42.0776 47.9377 42.1909 47.9273 42.2012 47.9063C42.2012 47.8959 42.2837 47.4353 42.3764 46.8911L42.5619 45.8967L43.1491 45.9281C43.6334 45.9595 43.8188 45.9177 44.1795 45.7083C44.9831 45.2269 45.4674 44.2011 45.5601 42.7881C45.6322 41.8566 45.5086 41.4693 45.0552 41.082C44.7977 40.8622 44.6431 40.8204 44.0661 40.8204C43.6849 40.8204 43.2625 40.8832 43.1285 40.9564ZM44.6431 41.4484C44.911 41.71 45.014 42.2438 44.9316 42.9451C44.7667 44.4209 44.1795 45.3629 43.3758 45.4781C42.6443 45.5827 42.634 45.5723 43.0152 43.4266C43.2007 42.3694 43.3964 41.4379 43.4479 41.3646C43.6231 41.1553 44.3855 41.2076 44.6431 41.4484Z" fill="#582F9A"/>
<path d="M47.6838 41.1238C47.0038 41.6157 46.5195 42.9032 46.5195 44.201C46.5195 45.4256 46.8904 45.949 47.7559 45.949C48.3226 45.949 48.8687 45.6768 49.1675 45.2268C49.765 44.3371 50.0844 42.4321 49.7753 41.6053C49.5384 40.9982 49.2808 40.8203 48.6214 40.8203C48.2093 40.8203 48.0135 40.8831 47.6838 41.1238ZM49.0335 41.4064C49.2808 41.6471 49.3323 42.0135 49.2705 42.8508C49.1468 44.4208 48.5802 45.4256 47.8074 45.4256C47.3026 45.4256 47.1377 45.1326 47.1377 44.2324C47.1377 43.4998 47.4571 42.0553 47.6838 41.7623C48.0547 41.2703 48.7244 41.0924 49.0335 41.4064Z" fill="#582F9A"/>
<path d="M51.8873 40.9564C51.6916 41.0192 51.4958 41.1553 51.4546 41.239C51.3722 41.396 50.6406 45.4885 50.6406 45.7921C50.6406 45.9177 50.7231 45.9491 50.9188 45.9281C51.2588 45.8863 51.2382 45.9386 51.6709 43.3847C51.8461 42.3485 52.0316 41.4588 52.0831 41.4065C52.1346 41.3542 52.4025 41.2914 52.6807 41.26C53.1134 41.2181 53.2267 41.2495 53.4225 41.4484C53.6389 41.6682 53.6492 41.7519 53.5873 42.4322C53.5564 42.8404 53.4122 43.7615 53.2782 44.4837C53.1443 45.2059 53.0516 45.8235 53.0825 45.8653C53.1443 45.9909 53.5049 45.97 53.577 45.8444C53.7007 45.6351 54.2467 42.4846 54.2467 41.9717C54.2467 41.5844 54.1849 41.3856 53.9995 41.1658C53.7728 40.9041 53.6801 40.8727 53.0001 40.8518C52.5776 40.8308 52.0831 40.8832 51.8873 40.9564Z" fill="#582F9A"/>
<path d="M56.5639 41.0194C56.1311 41.2915 55.9457 41.5218 55.6469 42.1812C55.3481 42.851 55.1214 44.1385 55.2245 44.6513C55.3893 45.5619 55.9148 46.0015 56.8008 45.9597C57.5736 45.9387 57.9548 45.7713 57.9548 45.4573C57.9548 45.227 57.9239 45.2061 57.7281 45.2689C57.5942 45.3107 57.2542 45.3735 56.9657 45.3945C56.5227 45.4363 56.399 45.4049 56.1517 45.1851C55.9045 44.9758 55.8529 44.8397 55.8117 44.3164L55.7705 43.6989L57.1408 43.4581C57.9033 43.3221 58.5421 43.1964 58.5627 43.165C58.5936 43.1441 58.6348 42.8406 58.6554 42.5161C58.7069 41.8358 58.4391 41.1345 58.0681 40.9252C57.7384 40.7472 56.9039 40.7996 56.5639 41.0194ZM57.8415 41.5113C57.996 41.7102 58.0578 41.9404 58.0578 42.3382C58.0578 42.9662 58.1403 42.9138 56.7905 43.1336C56.3475 43.1964 55.9663 43.2279 55.9251 43.186C55.8839 43.1546 55.9354 42.872 56.0281 42.558C56.3681 41.459 57.3675 40.8938 57.8415 41.5113Z" fill="#582F9A"/>
<path d="M60.365 40.9879L60.0559 41.1449L59.5201 44.4105C59.2213 46.2108 58.9844 47.739 58.9844 47.8122C58.9844 47.9064 59.0874 47.9378 59.2626 47.9169C59.5304 47.8855 59.5511 47.8436 59.7262 46.8912C59.8189 46.3469 59.9014 45.8968 59.9014 45.8863C59.9117 45.8863 60.1692 45.8968 60.4783 45.9282C61.5705 46.0224 62.3947 45.1851 62.745 43.6255C63.0232 42.3591 62.8687 41.4484 62.2814 41.0298C61.9208 40.7681 60.8493 40.7472 60.365 40.9879ZM61.9517 41.4484C62.0753 41.5636 62.2093 41.7834 62.2402 41.9299C62.3432 42.3591 62.2093 43.4476 61.9723 44.0965C61.6941 44.8501 61.3438 45.2688 60.8802 45.4258C60.4783 45.5619 60.0147 45.4886 60.0147 45.2897C60.0044 44.892 60.6844 41.3856 60.7771 41.3228C61.0141 41.1554 61.725 41.2391 61.9517 41.4484Z" fill="#582F9A"/>
<path d="M65.1978 41.0924C64.9711 41.2494 64.662 41.5634 64.5075 41.8041C63.8893 42.7671 63.642 44.4208 63.9923 45.1744C64.2705 45.7606 64.5899 45.949 65.3214 45.949C65.8263 45.949 66.5887 45.8024 66.6093 45.7082C66.6196 45.6978 66.7948 44.672 67.0214 43.437L67.4233 41.1866L67.2069 40.9982C67.0523 40.8726 66.8154 40.8203 66.3105 40.8203C65.7438 40.8203 65.5481 40.8726 65.1978 41.0924ZM66.6711 41.3227C66.7432 41.375 66.6711 41.9925 66.4445 43.3009C66.259 44.358 66.0838 45.2582 66.0426 45.321C65.9396 45.478 65.342 45.5512 65.0329 45.4361C64.4662 45.2163 64.2911 44.2115 64.6105 42.9764C64.8062 42.1914 65.0947 41.6995 65.5172 41.4378C65.8366 41.2389 66.4651 41.1761 66.6711 41.3227Z" fill="#582F9A"/>
<path d="M69.2167 40.9354C69.0313 40.9877 68.8664 41.0714 68.8355 41.1133C68.8149 41.1552 68.6191 42.16 68.4131 43.3323C68.207 44.515 68.0113 45.5826 67.9803 45.7082C67.9391 45.9175 67.97 45.9489 68.1967 45.9489C68.5573 45.9489 68.5985 45.8338 69.0004 43.5416C69.2373 42.1704 69.3816 41.5634 69.5155 41.4273C69.7628 41.1761 70.4325 41.1761 70.7313 41.4273C71.0301 41.668 71.0198 42.139 70.6901 44.0126C70.3501 45.8652 70.3501 45.9489 70.6695 45.9489C70.9786 45.9489 70.9477 46.0431 71.3495 43.6986C71.7101 41.6366 71.8131 41.4064 72.4416 41.2808C72.895 41.197 73.1526 41.2912 73.2865 41.6052C73.3792 41.8146 73.3483 42.2332 73.101 43.6777C72.7095 45.9489 72.7095 45.9699 73.0701 45.928L73.3586 45.8966L73.6986 43.9079C74.0695 41.7099 74.0489 41.2912 73.5647 40.9668C73.1835 40.7156 72.2253 40.8098 71.7925 41.1342L71.4628 41.375L71.1846 41.1028C70.9374 40.8516 70.8343 40.8202 70.2264 40.8307C69.8555 40.8307 69.4022 40.883 69.2167 40.9354Z" fill="#582F9A"/>
<path d="M76.2307 41.0191C75.4992 41.4692 74.9634 42.7776 74.9531 44.0964C74.9531 45.4152 75.3034 45.949 76.1689 45.949C77.0653 45.949 77.632 45.4256 78.0235 44.222C78.4665 42.8718 78.4047 41.5948 77.8895 41.0715C77.5701 40.747 76.715 40.7156 76.2307 41.0191ZM77.3847 41.3227C77.7968 41.5948 77.8483 42.6415 77.5186 43.887C77.2816 44.7767 76.9726 45.2372 76.5089 45.4047C75.8083 45.6559 75.4374 45.0174 75.5713 43.7824C75.6847 42.6624 75.9525 41.9193 76.3647 41.5529C76.7047 41.2494 77.1374 41.1552 77.3847 41.3227Z" fill="#582F9A"/>
<path d="M80.2283 40.9251C80.1047 40.9775 79.9604 41.1345 79.8986 41.2601C79.8471 41.3961 79.5689 42.8615 79.2804 44.5362C78.9919 46.2004 78.724 47.6553 78.6931 47.7599C78.6519 47.9274 78.6931 47.9483 78.9919 47.9169L79.3319 47.8855L79.4865 46.8912L79.641 45.8968L80.2283 45.9282C80.8568 45.9701 81.2586 45.8236 81.7017 45.363C82.4744 44.578 82.9277 42.558 82.5362 41.6159C82.3096 41.0507 81.8871 40.8205 81.1144 40.8309C80.7641 40.8309 80.3623 40.8728 80.2283 40.9251ZM81.5986 41.3019C82.3199 41.5845 82.1447 44.0128 81.3308 44.9548C80.8362 45.5305 79.7956 45.7189 79.7956 45.2374C79.7956 44.7874 80.455 41.3857 80.558 41.3229C80.7023 41.2287 81.3617 41.2182 81.5986 41.3019Z" fill="#582F9A"/>
<path d="M124.184 47.7495L123.586 47.9589V48.7753C123.586 50.1778 124.05 51.1303 124.956 51.6327C125.574 51.9572 127.13 51.9676 127.821 51.6432C128.779 51.1931 129.582 50.2092 130.036 48.9218C130.386 47.9379 130.376 47.9065 129.696 47.6867C129.139 47.5088 129.098 47.5088 128.995 47.6763C128.336 48.8067 127.81 49.3091 127.068 49.508C125.987 49.8115 124.936 48.9951 124.925 47.8542C124.925 47.4669 124.956 47.4669 124.184 47.7495Z" fill="#582F9A"/>
<path d="M48.948 53.2235C45.8364 54.0294 43.5285 57.6928 43.3534 62.1202C43.3122 63.125 43.3431 63.6797 43.4564 64.2345C44.0128 66.8721 45.8261 68.3374 48.5256 68.3479C49.8032 68.3479 51.5341 67.9502 52.5953 67.3954L52.9663 67.2175L52.7808 65.7626C52.6881 64.9671 52.6056 64.3077 52.5953 64.3077C52.5953 64.2973 52.3275 64.4019 51.9978 64.538C51.0396 64.9253 50.2359 65.1032 49.4117 65.1032C48.4122 65.1032 47.8559 64.8415 47.485 64.2135C47.1965 63.7007 46.9389 62.5389 47.0934 62.3923C47.1449 62.34 48.6698 62.0574 50.4832 61.7643C52.2965 61.4712 53.9245 61.2096 54.1099 61.1782C54.419 61.1258 54.4396 61.0944 54.5426 60.4141C54.9136 57.9126 54.6766 56.1855 53.7699 54.7935C53.0693 53.7154 51.9875 53.1607 50.4832 53.1083C49.8959 53.0874 49.3395 53.1293 48.948 53.2235ZM50.6274 56.1332C51.0293 56.51 51.1735 57.0124 51.1632 57.9963C51.1529 59.4512 51.2765 59.357 49.1026 59.7024C48.0722 59.8698 47.1965 59.964 47.1656 59.9326C47.0522 59.8175 47.3407 58.6034 47.6704 57.7974C48.3401 56.1541 49.7723 55.3482 50.6274 56.1332Z" fill="#582F9A"/>
<path d="M60.7888 53.1712C59.5112 53.3386 57.3784 54.0504 57.296 54.3434C57.2342 54.5319 55.9669 61.8481 55.5857 64.1089C55.4208 65.1451 55.0087 67.5525 54.6687 69.4574C54.3287 71.3624 54.0196 73.1627 53.9784 73.4662L53.9062 74L55.9051 73.9791L57.8936 73.9477L57.976 73.529C58.0069 73.2987 58.2336 72.0218 58.4706 70.703C58.6972 69.3737 58.9033 68.2433 58.9342 68.17C58.9651 68.0758 59.0682 68.0758 59.3669 68.1596C60.0676 68.3584 61.5306 68.3061 62.2931 68.0444C64.5289 67.2908 66.0228 65.5115 66.9604 62.497C67.5168 60.7072 67.7022 58.3208 67.3828 56.9601C66.9398 55.0761 65.7549 53.7992 63.9931 53.3177C63.3131 53.1293 61.7058 53.056 60.7888 53.1712ZM62.8082 56.1333C63.5707 56.6461 63.7767 57.8812 63.4779 60.1106C63.0452 63.2507 62.0458 65.1033 60.6136 65.4068C60.047 65.5324 59.3979 65.4591 59.3979 65.2707C59.3979 65.2079 59.5627 64.2345 59.7585 63.1146C59.9645 61.9946 60.2839 60.0792 60.4797 58.8756C60.9536 55.9867 60.933 56.1019 61.1803 55.9972C61.6337 55.8088 62.4373 55.8821 62.8082 56.1333Z" fill="#582F9A"/>
<path d="M98.27 53.1712C97.3839 53.2968 96.4154 53.5584 95.5396 53.8934L94.7875 54.1865L94.4578 56.0077C94.2724 57.0125 93.8396 59.5036 93.4996 61.5446C93.1596 63.5856 92.696 66.2755 92.4693 67.5106C92.2529 68.7457 91.9232 70.6088 91.7481 71.645C91.5832 72.6812 91.4184 73.6337 91.3875 73.7593L91.3359 74H93.3451C94.4475 74 95.3542 73.9686 95.3542 73.9163C95.3645 73.7383 96.3742 68.1177 96.4051 68.0758C96.4257 68.0549 96.6318 68.0968 96.8585 68.1596C97.0748 68.2224 97.6621 68.2747 98.1464 68.2747C101.433 68.2747 103.865 65.5743 104.792 60.9166C105.019 59.7966 105.039 57.7242 104.843 56.9392C104.369 55.0866 103.319 53.8934 101.66 53.3805C100.877 53.1293 99.2385 53.0351 98.27 53.1712ZM100.382 56.1647C100.928 56.5729 101.072 57.0648 101.062 58.4569C101.031 61.0422 100.289 63.617 99.2385 64.7683C98.7749 65.2812 97.8991 65.5743 97.2397 65.4591C96.9615 65.4068 96.8997 65.344 96.8997 65.1347C96.8997 64.9881 97.1469 63.4495 97.456 61.712C97.7651 59.985 98.0948 58.0905 98.1876 57.5149C98.4348 55.9867 98.4245 56.0181 98.6821 55.9658C99.187 55.8507 100.094 55.9553 100.382 56.1647Z" fill="#582F9A"/>
<path d="M29.5717 53.7154C29.5305 53.9038 29.2008 55.1912 28.8299 56.5728C28.4693 57.9545 27.8923 60.1839 27.5523 61.5341C27.2123 62.8738 26.7074 64.8311 26.4292 65.8778C26.1407 66.914 25.9141 67.8351 25.9141 67.8979C25.9141 68.0025 26.3674 68.0339 27.8614 68.0339H29.8087L30.0353 67.0605C30.159 66.5372 30.5711 64.7264 30.9626 63.0622C31.3542 61.3876 31.7251 59.7443 31.7972 59.3989L31.9311 58.7709L32.0136 59.5559C32.0548 59.985 32.2093 61.8272 32.3536 63.6379C32.4978 65.4486 32.6421 67.1861 32.673 67.4792L32.7348 68.0339H33.5281H34.3112L34.5069 67.5315C34.6203 67.2594 34.9706 66.4221 35.29 65.6789C36.2173 63.5437 37.8349 59.6501 37.9791 59.1895C38.2367 58.4045 38.1955 59.1477 37.7112 63.4286C37.4537 65.7627 37.2476 67.7409 37.2476 67.8455C37.2476 68.0235 37.3918 68.0339 39.1537 68.0339C40.8331 68.0339 41.0598 68.013 41.0598 67.8665C41.0598 67.7723 41.1731 66.2337 41.3174 64.4334C41.6471 60.1525 42.0901 54.0608 42.0901 53.684V53.3805H40.1119H38.1234L37.7731 54.1969C37.5773 54.6365 37.3094 55.254 37.1755 55.5576C37.0518 55.8611 36.9385 56.1332 36.9385 56.1542C36.9385 56.1856 36.5264 57.159 36.0215 58.3208C35.527 59.4931 34.9809 60.8537 34.816 61.3666C34.6615 61.869 34.4863 62.2772 34.4451 62.2772C34.4039 62.2772 34.3627 61.9528 34.3627 61.5655C34.3627 60.8223 34.0021 55.0238 33.8887 53.9771L33.8269 53.3805H31.7354H29.6438L29.5717 53.7154Z" fill="#582F9A"/>
<path d="M70.4849 53.5584C70.4231 53.7992 69.2485 60.4246 69.0321 61.7539C68.8673 62.8215 68.0945 67.2699 67.9915 67.7514L67.9297 68.034H69.9388H71.9479L72.0098 67.5316C72.1952 66.2441 73.1328 60.9584 73.1946 60.8852C73.2667 60.8119 73.8746 62.6331 74.9462 66.1395C75.2347 67.0815 75.5025 67.8874 75.5335 67.9398C75.5644 67.9921 76.5123 68.034 77.6456 68.034H79.7062L79.6341 67.7932C79.5517 67.4897 77.5838 61.7539 77.3365 61.0631C77.1923 60.6654 77.1717 60.4874 77.2541 60.3304C77.3159 60.2258 78.1299 59.0221 79.0675 57.6719C80.005 56.3217 80.9735 54.8982 81.2311 54.5005C81.4784 54.1132 81.7257 53.8306 81.7669 53.8724C81.8081 53.9248 81.9627 55.2017 82.1172 56.7299C82.2614 58.258 82.5911 61.4294 82.8384 63.7845L83.3021 68.0758L82.1584 70.3785C81.5196 71.6554 80.8499 72.9847 80.6541 73.3511L80.2935 74L82.5911 73.9791L84.8888 73.9477L85.2906 73.0057C85.507 72.4823 85.8264 71.7601 86.0015 71.3833C86.1767 71.0065 86.63 69.9703 87.0112 69.0806C87.4027 68.191 88.2373 66.2755 88.8658 64.8416C89.5046 63.3972 90.3804 61.398 90.8234 60.3932C91.2664 59.3884 92.1319 57.3997 92.7604 55.9658L93.8938 53.3805L91.7301 53.4014L89.5561 53.4328L88.7216 55.5785C87.0936 59.7234 86.9082 60.2467 86.5888 61.5446C86.2797 62.7796 85.9912 63.5123 86.1354 62.6959C86.1664 62.497 86.1251 60.4456 86.0427 58.1429C85.95 55.8402 85.8779 53.8306 85.8779 53.6631V53.3805L81.736 53.391H77.5838L75.5438 56.6357C74.4207 58.415 73.4625 59.8699 73.4213 59.8699C73.3595 59.8699 74.1734 54.7307 74.4001 53.6631L74.4619 53.3805H72.494C70.7219 53.3805 70.5364 53.4014 70.4849 53.5584Z" fill="#582F9A"/>
<path d="M107.927 53.4434C107.927 53.4748 107.783 54.2598 107.618 55.1913C107.34 56.6985 106.763 60.006 106.32 62.7483C106.093 64.0776 106.166 65.6162 106.475 66.3384C106.897 67.3118 108.01 68.0236 109.473 68.2538C110.524 68.4213 112.79 68.3166 113.862 68.0445C114.707 67.8352 116.057 67.3537 116.191 67.2176C116.294 67.1129 116.355 66.7885 117.108 62.3296C117.448 60.3096 117.932 57.5045 118.179 56.0915C118.437 54.668 118.643 53.4852 118.643 53.4434C118.643 53.412 117.736 53.3806 116.634 53.3806C115.49 53.3806 114.624 53.4224 114.624 53.4748C114.624 53.6422 113.615 59.5769 113.13 62.2459C112.873 63.638 112.667 64.7998 112.667 64.8207C112.667 64.9568 111.966 65.1243 111.43 65.1243C110.678 65.1243 110.349 64.9359 110.204 64.4021C110.081 63.952 110.081 63.8997 110.616 60.9166C111.214 57.5463 111.843 53.7678 111.843 53.5585C111.843 53.391 111.678 53.3806 109.885 53.3806C108.813 53.3806 107.927 53.412 107.927 53.4434Z" fill="#582F9A"/>
<path d="M120.857 53.5061C120.775 53.7573 119.209 63.1041 119.106 64.0042C119.023 64.7055 119.209 65.8464 119.518 66.4639C119.992 67.4059 120.95 68.0025 122.372 68.2433C123.309 68.3898 124.968 68.3689 126.019 68.1909C127.204 67.9816 129.131 67.3222 129.192 67.1024C129.254 66.8826 129.965 62.8215 130.439 60.0269C130.789 57.8812 131.006 56.6147 131.397 54.4481L131.593 53.3805H129.604C127.616 53.3805 127.606 53.3805 127.554 53.6108C127.534 53.7468 127.41 54.4586 127.286 55.2122C127.173 55.9553 126.823 57.9649 126.524 59.6605C126.225 61.3562 125.895 63.2297 125.792 63.8158C125.607 64.8416 125.586 64.8939 125.287 65.0195C124.824 65.2184 123.886 65.187 123.546 64.9672C122.949 64.5694 122.949 64.2868 123.598 60.6549C124.123 57.6405 124.824 53.5584 124.824 53.4538C124.824 53.4119 123.938 53.3805 122.866 53.3805C121.383 53.3805 120.888 53.4119 120.857 53.5061Z" fill="#582F9A"/>
</svg>
