<svg width="100" height="57" viewBox="0 0 100 57" fill="none" xmlns="http://www.w3.org/2000/svg">
<path d="M26.9041 0.294252C26.7161 0.851025 26.1054 1.90094 25.5182 2.71223C24.1167 4.62116 22.2611 6.06877 19.9279 7.063C19.5207 7.23799 18.3933 7.65954 17.4224 7.9936C15.3789 8.7015 13.398 9.50484 12.5994 9.93435C9.43623 11.6683 8.23047 13.6886 8.23047 17.2599C8.2383 18.6836 8.36357 19.5506 8.77854 20.8232C9.34227 22.5969 10.2583 24.1559 11.3623 25.2297C11.8634 25.7148 14.2514 27.6794 14.3454 27.6794C14.3689 27.6794 14.2749 27.5442 14.1418 27.3772C12.5367 25.4365 11.4954 23.798 10.8456 22.1913C10.0469 20.2267 9.92949 17.9996 10.5402 16.3293C10.7907 15.6691 11.3936 14.8101 12.1139 14.1101C13.0065 13.2432 14.3219 12.4319 17.0857 11.032C19.9592 9.56847 20.8831 9.00375 22.3159 7.82657C24.4769 6.0449 26.082 3.7701 26.771 1.5271C26.9589 0.922609 27.1233 -4.00543e-05 27.0372 -4.00543e-05C27.0215 -4.00543e-05 26.9589 0.135176 26.9041 0.294252Z" fill="#7F09A8"/>
<path d="M24.5831 9.4413C23.8393 10.3719 21.9837 12.2729 21.2164 12.8853C19.7522 14.0625 19.5252 14.1739 14.2715 16.4089L13.5121 16.7271L13.4886 18.1985C13.4729 19.0019 13.4886 19.6779 13.5199 19.6938C13.6452 19.7734 16.1506 18.5405 17.6539 17.6656C20.3081 16.1066 21.9837 14.4363 23.6592 11.6922C24.2699 10.6901 25.2564 8.74136 25.1468 8.74931C25.139 8.74931 24.8885 9.05951 24.5831 9.4413Z" fill="#7F09A8"/>
<path d="M22.3161 17.4588C20.3587 19.4632 19.38 20.2666 17.8924 21.0938C17.313 21.4199 15.8488 22.0721 15.5278 22.1516L15.3086 22.2073V23.7106V25.2139L15.6844 25.0309C17.0859 24.3628 18.8789 23.1459 19.8889 22.1755C20.7737 21.3244 21.3609 20.5449 22.1986 19.1132C22.6997 18.2701 23.9838 15.7965 23.9055 15.8362C23.8898 15.8442 23.1773 16.576 22.3161 17.4588Z" fill="#7F09A8"/>
<path d="M17.8123 30.9089C17.8123 30.9487 17.8906 31.251 17.9768 31.5771C18.1803 32.3327 18.2586 33.9712 18.1333 34.6155C17.9376 35.5699 17.366 36.4051 16.5283 36.9618C16.3012 37.1209 15.6122 37.3914 14.7666 37.6697C13.1459 38.2027 12.4177 38.5208 11.7601 39.006C11.2042 39.4037 10.0767 40.5729 9.65389 41.1615C9.25458 41.7262 8.63604 42.9352 8.29937 43.826C8.14278 44.2396 7.8844 44.8998 7.73564 45.2975C6.97617 47.2621 5.67646 48.662 3.63293 49.7119C2.92827 50.0778 1.58941 50.4914 0.7673 50.6107L0 50.7141L0.39148 50.8493C1.07265 51.08 1.98089 51.2231 2.81865 51.2231C4.83869 51.2231 6.51422 50.3641 8.16627 48.487C8.82395 47.7393 9.27807 46.9519 9.74785 45.7111C10.5308 43.6829 10.8362 43.1659 11.7992 42.275C12.8092 41.3444 13.8427 40.7558 15.3069 40.2866C16.6301 39.8491 17.3112 39.3639 18.0864 38.2981C18.885 37.2005 19.2138 36.3096 19.2765 35.0768C19.3313 34.0428 19.1434 33.1599 18.6736 32.2054C18.3839 31.6089 17.8123 30.7499 17.8123 30.9089Z" fill="#7F09A8"/>
<path d="M24.5444 31.1314L24.2704 31.2348L24.0198 32.6188C23.8789 33.3824 23.7536 34.2016 23.7458 34.4402C23.7223 34.8538 23.7301 34.8777 23.918 34.8777C24.1373 34.8777 24.1138 34.9732 24.4504 32.937C24.5835 32.1813 24.7166 31.5291 24.7636 31.4814C24.8106 31.4337 25.0063 31.378 25.1942 31.3621C25.4996 31.3223 25.5779 31.3462 25.7501 31.5212C25.8598 31.6325 25.9537 31.8075 25.9537 31.903C25.9537 31.9904 25.8441 32.6586 25.711 33.3665C25.5779 34.0823 25.4839 34.7266 25.5074 34.7902C25.5544 34.9175 25.8363 34.9652 25.8989 34.8538C25.9224 34.822 26.0477 34.1221 26.1886 33.2869C26.3217 32.4597 26.4783 31.728 26.5253 31.6723C26.6584 31.5053 27.0185 31.3382 27.2456 31.3382C27.5196 31.3382 27.7545 31.6007 27.7545 31.9109C27.7545 32.0541 27.6449 32.7461 27.5196 33.446C27.3944 34.1459 27.2847 34.7663 27.2847 34.822C27.2847 34.8936 27.363 34.9175 27.504 34.9016L27.7154 34.8777L27.9659 33.4062C28.24 31.8155 28.2478 31.4973 27.9816 31.211C27.7232 30.9326 27.0342 30.9405 26.6271 31.2189C26.4705 31.3303 26.3217 31.4178 26.3061 31.4178C26.2904 31.4178 26.1886 31.3303 26.079 31.2189C25.9067 31.0439 25.8206 31.0201 25.3508 31.028C25.0611 31.028 24.6932 31.0758 24.5444 31.1314Z" fill="#582F9A"/>
<path d="M29.2685 31.5132C29.2998 31.7916 29.3781 32.6824 29.4486 33.4937L29.5817 34.9732L29.2215 35.6651C29.0179 36.039 28.8535 36.373 28.8535 36.3889C28.8535 36.4128 28.9631 36.4287 29.0884 36.4287C29.3468 36.4287 29.3468 36.4367 30.3411 34.1619C30.5917 33.5892 30.991 32.6983 31.2337 32.1813C31.4764 31.6643 31.6722 31.1871 31.6722 31.1235C31.6722 31.0439 31.6017 31.0201 31.4608 31.036C31.2729 31.0598 31.2024 31.1792 30.6465 32.4915C30.3177 33.279 30.0123 33.971 29.9731 34.0346C29.9262 34.1141 29.8949 33.9948 29.887 33.6767C29.8557 32.9688 29.7069 31.1473 29.66 31.0837C29.6443 31.0439 29.5347 31.0201 29.4251 31.0201C29.2215 31.0201 29.2215 31.0201 29.2685 31.5132Z" fill="#582F9A"/>
<path d="M32.7739 31.1235C32.6721 31.1712 32.5547 31.2746 32.5233 31.3382C32.4607 31.4575 31.6699 36.0549 31.6699 36.2935C31.6699 36.381 31.7326 36.4287 31.8657 36.4287C31.9753 36.4287 32.0614 36.4208 32.0692 36.4048C32.0692 36.3969 32.1319 36.0469 32.2023 35.6333L32.3433 34.8777L32.7896 34.9016C33.1575 34.9254 33.2985 34.8936 33.5725 34.7345C34.1832 34.3687 34.5512 33.5892 34.6217 32.5154C34.6765 31.8075 34.5825 31.5132 34.238 31.2189C34.0423 31.0519 33.9248 31.0201 33.4864 31.0201C33.1967 31.0201 32.8757 31.0678 32.7739 31.1235ZM33.9248 31.4973C34.1284 31.6962 34.2067 32.1018 34.1441 32.6347C34.0188 33.7562 33.5725 34.4721 32.9618 34.5596C32.4059 34.6391 32.3981 34.6311 32.6878 33.0006C32.8287 32.1972 32.9775 31.4894 33.0166 31.4337C33.1497 31.2746 33.7291 31.3144 33.9248 31.4973Z" fill="#582F9A"/>
<path d="M36.2363 31.2507C35.7196 31.6246 35.3516 32.6029 35.3516 33.5892C35.3516 34.5198 35.6334 34.9175 36.2911 34.9175C36.7217 34.9175 37.1367 34.7107 37.3638 34.3687C37.8179 33.6926 38.0606 32.245 37.8257 31.6166C37.6456 31.1553 37.4499 31.0201 36.9488 31.0201C36.6356 31.0201 36.4869 31.0678 36.2363 31.2507ZM37.262 31.4655C37.4499 31.6484 37.489 31.9268 37.4421 32.5631C37.3481 33.7562 36.9175 34.5198 36.3303 34.5198C35.9466 34.5198 35.8213 34.2971 35.8213 33.613C35.8213 33.0563 36.0641 31.9586 36.2363 31.7359C36.5182 31.3621 37.0271 31.2269 37.262 31.4655Z" fill="#582F9A"/>
<path d="M39.4318 31.1237C39.283 31.1714 39.1342 31.2748 39.1029 31.3385C39.0403 31.4578 38.4844 34.5677 38.4844 34.7984C38.4844 34.8939 38.547 34.9177 38.6958 34.9018C38.9542 34.87 38.9385 34.9098 39.2673 32.969C39.4004 32.1816 39.5414 31.5055 39.5805 31.4657C39.6197 31.426 39.8232 31.3782 40.0346 31.3544C40.3635 31.3226 40.4496 31.3464 40.5984 31.4976C40.7628 31.6646 40.7706 31.7282 40.7236 32.2452C40.7002 32.5554 40.5905 33.2554 40.4888 33.8042C40.387 34.353 40.3165 34.8223 40.34 34.8541C40.387 34.9495 40.661 34.9336 40.7158 34.8382C40.8098 34.6791 41.2247 32.285 41.2247 31.8952C41.2247 31.601 41.1778 31.4498 41.0368 31.2828C40.8646 31.084 40.7941 31.0601 40.2774 31.0442C39.9563 31.0283 39.5805 31.068 39.4318 31.1237Z" fill="#582F9A"/>
<path d="M42.9862 31.1714C42.6574 31.3782 42.5165 31.5532 42.2894 32.0543C42.0623 32.5634 41.8901 33.5417 41.9684 33.9314C42.0937 34.6234 42.493 34.9575 43.1663 34.9257C43.7535 34.9098 44.0432 34.7825 44.0432 34.5439C44.0432 34.3689 44.0197 34.353 43.871 34.4007C43.7692 34.4325 43.5108 34.4802 43.2916 34.4961C42.9549 34.528 42.861 34.5041 42.6731 34.3371C42.4851 34.178 42.446 34.0746 42.4147 33.6769L42.3834 33.2076L43.4247 33.0247C44.0041 32.9213 44.4895 32.8258 44.5052 32.802C44.5287 32.7861 44.56 32.5554 44.5756 32.3088C44.6148 31.7918 44.4112 31.2589 44.1294 31.0998C43.8788 30.9646 43.2446 31.0044 42.9862 31.1714ZM43.9571 31.5453C44.0746 31.6964 44.1215 31.8714 44.1215 32.1736C44.1215 32.6509 44.1842 32.6111 43.1585 32.7781C42.8218 32.8258 42.5321 32.8497 42.5008 32.8179C42.4695 32.794 42.5086 32.5793 42.5791 32.3406C42.8375 31.5055 43.597 31.076 43.9571 31.5453Z" fill="#582F9A"/>
<path d="M45.8734 31.1473L45.6385 31.2666L45.2314 33.7482C45.0043 35.1163 44.8242 36.2776 44.8242 36.3332C44.8242 36.4048 44.9025 36.4287 45.0356 36.4128C45.2392 36.3889 45.2548 36.3571 45.3879 35.6333C45.4584 35.2197 45.5211 34.8777 45.5211 34.8697C45.5289 34.8697 45.7246 34.8777 45.9595 34.9015C46.7894 34.9731 47.4158 34.3368 47.682 33.1517C47.8934 32.1893 47.776 31.4973 47.3297 31.1791C47.0557 30.9803 46.2414 30.9644 45.8734 31.1473ZM47.0791 31.4973C47.1731 31.5848 47.2749 31.7518 47.2984 31.8632C47.3767 32.1893 47.2749 33.0165 47.0948 33.5096C46.8834 34.0823 46.6172 34.4004 46.2649 34.5197C45.9595 34.6231 45.6072 34.5675 45.6072 34.4163C45.5993 34.1141 46.1161 31.4496 46.1866 31.4018C46.3666 31.2746 46.9069 31.3382 47.0791 31.4973Z" fill="#582F9A"/>
<path d="M49.5437 31.2269C49.3715 31.3462 49.1366 31.5848 49.0191 31.7677C48.5493 32.4995 48.3614 33.7562 48.6276 34.3289C48.839 34.7743 49.0818 34.9175 49.6377 34.9175C50.0213 34.9175 50.6007 34.8061 50.6164 34.7345C50.6242 34.7266 50.7573 33.9471 50.9295 33.0086L51.2349 31.2985L51.0705 31.1553C50.953 31.0599 50.773 31.0201 50.3893 31.0201C49.9587 31.0201 49.8099 31.0599 49.5437 31.2269ZM50.6633 31.4019C50.7181 31.4416 50.6633 31.9109 50.4911 32.9051C50.3502 33.7085 50.2171 34.3925 50.1857 34.4402C50.1074 34.5596 49.6533 34.6152 49.4184 34.5277C48.9878 34.3607 48.8547 33.5971 49.0974 32.6586C49.2462 32.062 49.4654 31.6882 49.7864 31.4894C50.0291 31.3382 50.5067 31.2905 50.6633 31.4019Z" fill="#582F9A"/>
<path d="M52.5998 31.1077C52.4588 31.1474 52.3336 31.2111 52.3101 31.2429C52.2944 31.2747 52.1457 32.0383 51.9891 32.9291C51.8325 33.8279 51.6837 34.6392 51.6602 34.7346C51.6289 34.8937 51.6524 34.9176 51.8246 34.9176C52.0987 34.9176 52.13 34.8301 52.4353 33.0882C52.6154 32.0462 52.725 31.5849 52.8268 31.4815C53.0147 31.2906 53.5237 31.2906 53.7507 31.4815C53.9778 31.6644 53.9699 32.0224 53.7194 33.4461C53.461 34.8539 53.461 34.9176 53.7037 34.9176C53.9386 34.9176 53.9151 34.9892 54.2205 33.2075C54.4945 31.6406 54.5728 31.4656 55.0504 31.3701C55.3949 31.3065 55.5907 31.3781 55.6925 31.6167C55.7629 31.7758 55.7394 32.0939 55.5515 33.1916C55.254 34.9176 55.254 34.9335 55.528 34.9017L55.7473 34.8778L56.0056 33.3666C56.2875 31.6963 56.2719 31.3781 55.9039 31.1315C55.6142 30.9406 54.886 31.0122 54.5572 31.2588L54.3066 31.4417L54.0952 31.2349C53.9073 31.044 53.829 31.0202 53.3671 31.0281C53.0852 31.0281 52.7407 31.0679 52.5998 31.1077Z" fill="#582F9A"/>
<path d="M57.9299 31.1712C57.374 31.5132 56.9668 32.5075 56.959 33.5096C56.959 34.5118 57.2252 34.9175 57.8829 34.9175C58.5641 34.9175 58.9947 34.5198 59.2922 33.6051C59.6289 32.579 59.5819 31.6087 59.1904 31.211C58.9477 30.9644 58.2978 30.9405 57.9299 31.1712ZM58.8068 31.4019C59.12 31.6087 59.1591 32.4041 58.9086 33.3506C58.7285 34.0266 58.4936 34.3766 58.1413 34.5039C57.6088 34.6948 57.327 34.2096 57.4288 33.271C57.5149 32.42 57.7185 31.8552 58.0316 31.5769C58.29 31.3462 58.6189 31.2746 58.8068 31.4019Z" fill="#582F9A"/>
<path d="M60.9678 31.0999C60.8739 31.1396 60.7643 31.2589 60.7173 31.3544C60.6781 31.4578 60.4667 32.5713 60.2475 33.8439C60.0283 35.1086 59.8247 36.2142 59.8012 36.2937C59.7699 36.421 59.8012 36.4369 60.0283 36.413L60.2867 36.3892L60.4041 35.6336L60.5216 34.8779L60.9678 34.9018C61.4454 34.9336 61.7508 34.8223 62.0875 34.4723C62.6747 33.8758 63.0192 32.3407 62.7217 31.6248C62.5494 31.1953 62.2284 31.0203 61.6412 31.0283C61.375 31.0283 61.0696 31.0601 60.9678 31.0999ZM62.0092 31.3862C62.5573 31.6009 62.4241 33.4462 61.8056 34.1621C61.4298 34.5996 60.639 34.7427 60.639 34.3768C60.639 34.0348 61.1401 31.4498 61.2184 31.4021C61.328 31.3305 61.8291 31.3226 62.0092 31.3862Z" fill="#582F9A"/>
<path d="M94.3701 36.2857L93.916 36.4448V37.0652C93.916 38.131 94.2683 38.8548 94.9574 39.2366C95.4271 39.4832 96.6094 39.4911 97.134 39.2445C97.8621 38.9025 98.4728 38.1549 98.8173 37.1765C99.0835 36.4289 99.0757 36.405 98.559 36.238C98.1362 36.1028 98.1049 36.1028 98.0266 36.23C97.5255 37.089 97.1262 37.4708 96.5624 37.6219C95.7403 37.8526 94.9417 37.2322 94.9339 36.3652C94.9339 36.0709 94.9574 36.0709 94.3701 36.2857Z" fill="#582F9A"/>
<path d="M37.1964 40.4454C34.8318 41.0578 33.078 43.8417 32.9449 47.2062C32.9136 47.9697 32.9371 48.3913 33.0232 48.8128C33.446 50.8172 34.824 51.9308 36.8753 51.9387C37.8462 51.9387 39.1616 51.6365 39.968 51.2149L40.2499 51.0797L40.109 49.9741C40.0385 49.3696 39.9759 48.8685 39.968 48.8685C39.968 48.8606 39.7645 48.9401 39.5139 49.0435C38.7858 49.3378 38.1751 49.473 37.5487 49.473C36.7892 49.473 36.3664 49.2742 36.0846 48.7969C35.8653 48.4072 35.6696 47.5243 35.787 47.413C35.8262 47.3732 36.985 47.1584 38.363 46.9357C39.741 46.713 40.9781 46.5142 41.119 46.4903C41.3539 46.4505 41.3695 46.4267 41.4478 45.9097C41.7297 44.0087 41.5496 42.6963 40.8606 41.6385C40.3282 40.8192 39.5061 40.3976 38.363 40.3579C37.9167 40.342 37.4939 40.3738 37.1964 40.4454ZM38.4726 42.6565C38.7779 42.9429 38.8875 43.3247 38.8797 44.0723C38.8719 45.1779 38.9658 45.1063 37.3138 45.3688C36.5308 45.4961 35.8653 45.5677 35.8418 45.5438C35.7557 45.4563 35.9749 44.5337 36.2255 43.9212C36.7344 42.6725 37.8227 42.06 38.4726 42.6565Z" fill="#582F9A"/>
<path d="M46.1931 40.4057C45.2222 40.5329 43.6015 41.0738 43.5388 41.2965C43.4919 41.4397 42.5288 46.9994 42.2391 48.7175C42.1138 49.5049 41.8007 51.3343 41.5423 52.7819C41.2839 54.2295 41.049 55.5976 41.0177 55.8282L40.9629 56.2339L42.4818 56.218L43.9929 56.1941L44.0556 55.876C44.0791 55.701 44.2513 54.7306 44.4314 53.7284C44.6037 52.7183 44.7602 51.8593 44.7837 51.8036C44.8072 51.732 44.8855 51.732 45.1126 51.7956C45.645 51.9467 46.7568 51.907 47.3362 51.7081C49.0352 51.1355 50.1705 49.7833 50.883 47.4926C51.3058 46.1325 51.4467 44.319 51.204 43.285C50.8673 41.8533 49.9669 40.8829 48.6281 40.517C48.1113 40.3739 46.8899 40.3182 46.1931 40.4057ZM47.7277 42.6566C48.3071 43.0464 48.4636 43.9849 48.2366 45.6791C47.9077 48.0653 47.1483 49.4731 46.06 49.7038C45.6293 49.7992 45.1361 49.7435 45.1361 49.6004C45.1361 49.5526 45.2613 48.8129 45.4101 47.9619C45.5667 47.1108 45.8094 45.6552 45.9582 44.7405C46.3183 42.5453 46.3027 42.6328 46.4906 42.5532C46.8351 42.41 47.4458 42.4657 47.7277 42.6566Z" fill="#582F9A"/>
<path d="M74.6775 40.4057C74.0042 40.5011 73.2682 40.7 72.6027 40.9545L72.0311 41.1772L71.7806 42.5612C71.6396 43.3247 71.3108 45.2178 71.0524 46.7688C70.794 48.3198 70.4417 50.3639 70.2695 51.3025C70.105 52.241 69.8545 53.6568 69.7214 54.4443C69.5961 55.2317 69.4708 55.9555 69.4474 56.0509L69.4082 56.2339H70.935C71.7727 56.2339 72.4617 56.21 72.4617 56.1703C72.4696 56.035 73.2369 51.7638 73.2604 51.732C73.276 51.7161 73.4326 51.7479 73.6049 51.7956C73.7693 51.8433 74.2156 51.8831 74.5836 51.8831C77.0812 51.8831 78.929 49.831 79.6337 46.2915C79.8059 45.4405 79.8216 43.8656 79.6728 43.2691C79.3126 41.8612 78.514 40.9545 77.2535 40.5648C76.6584 40.3739 75.4135 40.3023 74.6775 40.4057ZM76.2826 42.6805C76.6976 42.9907 76.8072 43.3645 76.7993 44.4224C76.7759 46.387 76.2121 48.3436 75.4135 49.2186C75.0612 49.6083 74.3957 49.831 73.8946 49.7435C73.6832 49.7038 73.6362 49.656 73.6362 49.497C73.6362 49.3856 73.8241 48.2164 74.059 46.896C74.2939 45.5836 74.5444 44.144 74.6149 43.7065C74.8028 42.5453 74.795 42.5691 74.9907 42.5294C75.3744 42.4419 76.0634 42.5214 76.2826 42.6805Z" fill="#582F9A"/>
<path d="M22.4709 40.8193C22.4396 40.9625 22.189 41.9408 21.9072 42.9907C21.6331 44.0406 21.1947 45.7348 20.9363 46.7608C20.6779 47.7789 20.2943 49.2663 20.0829 50.0617C19.8637 50.8491 19.6914 51.5491 19.6914 51.5968C19.6914 51.6763 20.0359 51.7002 21.1712 51.7002H22.651L22.8232 50.9605C22.9172 50.5628 23.2304 49.1868 23.5279 47.9221C23.8254 46.6495 24.1073 45.4007 24.1621 45.1382L24.2639 44.661L24.3265 45.2576C24.3578 45.5837 24.4753 46.9835 24.5849 48.3596C24.6945 49.7356 24.8041 51.0559 24.8276 51.2786L24.8746 51.7002H25.4775H26.0725L26.2213 51.3184C26.3074 51.1116 26.5736 50.4753 26.8163 49.9106C27.521 48.288 28.7502 45.3291 28.8599 44.9792C29.0556 44.3826 29.0243 44.9474 28.6563 48.2005C28.4606 49.9742 28.304 51.4775 28.304 51.557C28.304 51.6922 28.4136 51.7002 29.7524 51.7002C31.0287 51.7002 31.2009 51.6843 31.2009 51.5729C31.2009 51.5013 31.287 50.3321 31.3967 48.9641C31.6472 45.7109 31.9839 41.0818 31.9839 40.7954V40.5648H30.4806H28.9695L28.7033 41.1852C28.5545 41.5192 28.3509 41.9885 28.2492 42.2192C28.1552 42.4498 28.0691 42.6566 28.0691 42.6725C28.0691 42.6964 27.7559 43.4361 27.3722 44.319C26.9964 45.2098 26.5815 46.2438 26.4562 46.6336C26.3387 47.0154 26.2056 47.3256 26.1743 47.3256C26.143 47.3256 26.1117 47.079 26.1117 46.7847C26.1117 46.22 25.8376 41.8135 25.7515 41.0181L25.7045 40.5648H24.1151H22.5257L22.4709 40.8193Z" fill="#582F9A"/>
<path d="M53.5628 40.7C53.5159 40.8829 52.6233 45.9177 52.4589 46.9279C52.3336 47.7391 51.7464 51.1195 51.6681 51.4854L51.6211 51.7002H53.1479H54.6746L54.7216 51.3184C54.8625 50.3401 55.575 46.3234 55.622 46.2677C55.6768 46.212 56.1388 47.596 56.953 50.2605C57.1723 50.9764 57.3758 51.5888 57.3993 51.6286C57.4228 51.6684 58.1431 51.7002 59.0044 51.7002H60.5703L60.5155 51.5172C60.4529 51.2866 58.9574 46.9279 58.7695 46.4029C58.6599 46.1006 58.6442 45.9654 58.7069 45.8461C58.7539 45.7666 59.3724 44.8519 60.0849 43.8258C60.7974 42.7998 61.5334 41.7181 61.7291 41.4158C61.917 41.1215 62.1049 40.9068 62.1362 40.9386C62.1676 40.9784 62.285 41.9487 62.4024 43.11C62.5121 44.2713 62.7626 46.6813 62.9505 48.4709L63.3029 51.732L62.4338 53.4818C61.9483 54.4522 61.4394 55.4624 61.2906 55.7407L61.0166 56.2339L62.7626 56.218L64.5086 56.1941L64.814 55.4783C64.9784 55.0806 65.2211 54.5318 65.3542 54.2454C65.4873 53.9591 65.8318 53.1716 66.1215 52.4956C66.419 51.8195 67.0532 50.3639 67.5308 49.2742C68.0163 48.1766 68.6818 46.6574 69.0185 45.8938C69.3551 45.1303 70.0128 43.619 70.4904 42.5294L71.3517 40.5648L69.7075 40.5807L68.0554 40.6045L67.4212 42.2351C66.1841 45.3848 66.0432 45.7825 65.8005 46.7688C65.5656 47.7073 65.3464 48.2641 65.456 47.6437C65.4795 47.4926 65.4482 45.9336 65.3855 44.1838C65.3151 42.4339 65.2603 40.9068 65.2603 40.7795V40.5648L62.1128 40.5727H58.9574L57.4072 43.0384C56.5537 44.3906 55.8256 45.4962 55.7943 45.4962C55.7473 45.4962 56.3658 41.5908 56.5381 40.7795L56.5851 40.5648H55.0896C53.7429 40.5648 53.602 40.5807 53.5628 40.7Z" fill="#582F9A"/>
<path d="M82.0175 40.6124C82.0175 40.6363 81.9078 41.2328 81.7826 41.9407C81.5712 43.0861 81.1327 45.5995 80.796 47.6834C80.6238 48.6936 80.6786 49.8628 80.9135 50.4116C81.2345 51.1513 82.0801 51.6922 83.1919 51.8672C83.9905 51.9944 85.713 51.9149 86.5273 51.7081C87.1693 51.549 88.195 51.1831 88.2968 51.0797C88.3751 51.0002 88.4221 50.7536 88.9936 47.3653C89.252 45.8302 89.62 43.6986 89.8079 42.6248C90.0036 41.543 90.1602 40.6443 90.1602 40.6124C90.1602 40.5886 89.4712 40.5647 88.6335 40.5647C87.7644 40.5647 87.1067 40.5965 87.1067 40.6363C87.1067 40.7636 86.3394 45.2734 85.9714 47.3017C85.7757 48.3595 85.6191 49.2424 85.6191 49.2583C85.6191 49.3617 85.0867 49.489 84.6795 49.489C84.108 49.489 83.8574 49.3458 83.7478 48.9402C83.6538 48.5981 83.6538 48.5584 84.061 46.2915C84.5151 43.7304 84.9927 40.859 84.9927 40.6999C84.9927 40.5727 84.8674 40.5647 83.5051 40.5647C82.6908 40.5647 82.0175 40.5886 82.0175 40.6124Z" fill="#582F9A"/>
<path d="M91.842 40.6603C91.7794 40.8512 90.5893 47.954 90.511 48.638C90.4483 49.1709 90.5893 50.0379 90.8242 50.5072C91.1843 51.223 91.9125 51.6764 92.993 51.8593C93.7055 51.9707 94.966 51.9548 95.7646 51.8196C96.665 51.6605 98.1292 51.1594 98.1762 50.9924C98.2231 50.8253 98.7634 47.7392 99.1235 45.6156C99.3897 43.985 99.5542 43.0226 99.8517 41.3761L100 40.5648H98.4893C96.9782 40.5648 96.9704 40.5648 96.9312 40.7398C96.9156 40.8432 96.8216 41.3841 96.7277 41.9568C96.6415 42.5215 96.3753 44.0486 96.1483 45.3372C95.9212 46.6257 95.6707 48.0494 95.5924 48.4949C95.4515 49.2743 95.4358 49.3141 95.2087 49.4096C94.8564 49.5607 94.1439 49.5368 93.8855 49.3698C93.4314 49.0675 93.4314 48.8528 93.9247 46.0928C94.324 43.8021 94.8564 40.7001 94.8564 40.6205C94.8564 40.5887 94.1831 40.5648 93.3688 40.5648C92.2413 40.5648 91.8655 40.5887 91.842 40.6603Z" fill="#582F9A"/>
</svg>
