<svg width="227" height="171" viewBox="0 0 227 171" fill="none" xmlns="http://www.w3.org/2000/svg">
<g filter="url(#filter0_d_428_194)">
<path d="M110.414 51.0754L150.214 92.0262L112.356 130.979L72.556 90.0286L110.414 51.0754Z" fill="white"/>
<path d="M30 30C30 24.4771 34.4772 20 40 20H186.109C191.632 20 196.109 24.4772 196.109 30V94.7509C196.109 100.274 191.632 104.751 186.109 104.751H40C34.4772 104.751 30 100.274 30 94.7509V30Z" fill="white"/>
</g>
<path d="M87.8251 35.2825C87.6447 35.817 87.0584 36.8249 86.4947 37.6037C85.1492 39.4363 83.3679 40.826 81.128 41.7805C80.7371 41.9485 79.6547 42.3532 78.7227 42.6739C76.7609 43.3534 74.8593 44.1246 74.0926 44.537C71.056 46.2016 69.8984 48.141 69.8984 51.5695C69.906 52.9363 70.0262 53.7686 70.4246 54.9903C70.9658 56.693 71.8452 58.1896 72.905 59.2205C73.3861 59.6862 75.6786 61.5723 75.7688 61.5723C75.7913 61.5723 75.7011 61.4425 75.5733 61.2821C74.0325 59.419 73.0328 57.846 72.4089 56.3036C71.6422 54.4176 71.5295 52.2796 72.1158 50.6761C72.3563 50.0423 72.9351 49.2177 73.6266 48.5457C74.4835 47.7134 75.7462 46.9346 78.3995 45.5907C81.158 44.1857 82.045 43.6436 83.4205 42.5135C85.495 40.8031 87.0359 38.6193 87.6973 36.466C87.8777 35.8857 88.0355 35 87.9529 35C87.9378 35 87.8777 35.1298 87.8251 35.2825Z" fill="#7F09A8"/>
<path d="M85.602 44.0635C84.8879 44.9568 83.1065 46.7818 82.3699 47.3697C80.9643 48.4998 80.7464 48.6067 75.7029 50.7524L74.9738 51.0578L74.9512 52.4704C74.9362 53.2416 74.9512 53.8906 74.9813 53.9059C75.1015 53.9823 77.5068 52.7987 78.9499 51.9588C81.498 50.4622 83.1065 48.8587 84.715 46.2244C85.3013 45.2623 86.2484 43.3915 86.1432 43.3992C86.1356 43.3992 85.8951 43.6969 85.602 44.0635Z" fill="#7F09A8"/>
<path d="M83.4225 51.7602C81.5434 53.6845 80.6038 54.4557 79.1757 55.2498C78.6195 55.5628 77.2139 56.189 76.9058 56.2653L76.6953 56.3188V57.7619V59.2051L77.0561 59.0295C78.4015 58.3881 80.1228 57.2198 81.0924 56.2882C81.9418 55.4712 82.5055 54.7229 83.3098 53.3485C83.7908 52.5391 85.0235 50.1644 84.9483 50.2026C84.9333 50.2102 84.2493 50.9127 83.4225 51.7602Z" fill="#7F09A8"/>
<path d="M79.0998 64.6724C79.0998 64.7106 79.175 65.0008 79.2577 65.3138C79.4531 66.0392 79.5283 67.6122 79.408 68.2307C79.2201 69.147 78.6714 69.9487 77.8671 70.4832C77.6492 70.6359 76.9877 70.8956 76.176 71.1628C74.6201 71.6744 73.921 71.9798 73.2897 72.4456C72.756 72.8274 71.6736 73.9498 71.2677 74.5149C70.8844 75.057 70.2906 76.2176 69.9674 77.0729C69.8171 77.4699 69.569 78.1037 69.4262 78.4855C68.6971 80.3715 67.4494 81.7154 65.4876 82.7233C64.8111 83.0745 63.5258 83.4716 62.7366 83.5861L62 83.6854L62.3758 83.8152C63.0297 84.0366 63.9017 84.1741 64.7059 84.1741C66.6451 84.1741 68.2537 83.3494 69.8396 81.5474C70.471 80.8296 70.907 80.0737 71.3579 78.8825C72.1096 76.9354 72.4027 76.4391 73.3272 75.5839C74.2969 74.6905 75.289 74.1255 76.6946 73.675C77.9649 73.255 78.6188 72.7892 79.3629 71.766C80.1296 70.7123 80.4453 69.8571 80.5054 68.6736C80.558 67.6809 80.3776 66.8333 79.9266 65.9171C79.6485 65.3444 79.0998 64.5197 79.0998 64.6724Z" fill="#7F09A8"/>
<path d="M85.5609 64.886L85.2978 64.9852L85.0573 66.3139C84.922 67.0469 84.8017 67.8334 84.7942 68.0624C84.7717 68.4595 84.7792 68.4824 84.9596 68.4824C85.17 68.4824 85.1475 68.574 85.4707 66.6193C85.5985 65.8939 85.7263 65.2678 85.7714 65.2219C85.8165 65.1761 86.0044 65.1227 86.1848 65.1074C86.4779 65.0692 86.5531 65.0921 86.7184 65.2601C86.8237 65.367 86.9139 65.535 86.9139 65.6266C86.9139 65.7106 86.8086 66.352 86.6808 67.0316C86.5531 67.7188 86.4629 68.3373 86.4854 68.3984C86.5305 68.5206 86.8011 68.5664 86.8612 68.4595C86.8838 68.4289 87.004 67.757 87.1393 66.9553C87.2671 66.1611 87.4175 65.4586 87.4625 65.4052C87.5903 65.2448 87.9361 65.0845 88.1541 65.0845C88.4171 65.0845 88.6426 65.3365 88.6426 65.6343C88.6426 65.7717 88.5374 66.436 88.4171 67.108C88.2969 67.7799 88.1916 68.3755 88.1916 68.4289C88.1916 68.4977 88.2668 68.5206 88.4021 68.5053L88.605 68.4824L88.8456 67.0698C89.1086 65.5426 89.1162 65.2372 88.8606 64.9623C88.6126 64.6951 87.9511 64.7027 87.5603 64.97C87.4099 65.0769 87.2671 65.1609 87.2521 65.1609C87.2371 65.1609 87.1393 65.0769 87.0341 64.97C86.8688 64.802 86.7861 64.7791 86.3351 64.7867C86.057 64.7867 85.7037 64.8325 85.5609 64.886Z" fill="#582F9A"/>
<path d="M90.0976 65.2523C90.1277 65.5196 90.2028 66.3748 90.2705 67.1536L90.3982 68.5739L90.0525 69.2382C89.8571 69.597 89.6992 69.9177 89.6992 69.933C89.6992 69.9559 89.8044 69.9712 89.9247 69.9712C90.1728 69.9712 90.1728 69.9788 91.1273 67.795C91.3679 67.2452 91.7512 66.39 91.9842 65.8937C92.2172 65.3974 92.4051 64.9392 92.4051 64.8782C92.4051 64.8018 92.3375 64.7789 92.2022 64.7942C92.0218 64.8171 91.9541 64.9316 91.4205 66.1915C91.1048 66.9474 90.8116 67.6118 90.7741 67.6728C90.729 67.7492 90.6989 67.6347 90.6914 67.3292C90.6613 66.6497 90.5185 64.9011 90.4734 64.84C90.4584 64.8018 90.3531 64.7789 90.2479 64.7789C90.0525 64.7789 90.0525 64.7789 90.0976 65.2523Z" fill="#582F9A"/>
<path d="M93.4661 64.8782C93.3684 64.924 93.2556 65.0232 93.2255 65.0843C93.1654 65.1989 92.4062 69.6123 92.4062 69.8414C92.4062 69.9254 92.4664 69.9712 92.5942 69.9712C92.6994 69.9712 92.7821 69.9636 92.7896 69.9483C92.7896 69.9406 92.8497 69.6047 92.9174 69.2076L93.0527 68.4822L93.4811 68.5051C93.8344 68.528 93.9697 68.4975 94.2327 68.3448C94.819 67.9935 95.1723 67.2452 95.2399 66.2144C95.2926 65.5348 95.2024 65.2523 94.8716 64.9698C94.6837 64.8094 94.571 64.7789 94.1501 64.7789C93.872 64.7789 93.5638 64.8247 93.4661 64.8782ZM94.571 65.237C94.7664 65.4279 94.8416 65.8174 94.7814 66.329C94.6612 67.4056 94.2327 68.0928 93.6465 68.1768C93.1128 68.2532 93.1053 68.2455 93.3834 66.6802C93.5187 65.909 93.6615 65.2294 93.6991 65.176C93.8269 65.0232 94.3831 65.0614 94.571 65.237Z" fill="#582F9A"/>
<path d="M96.7829 65.0004C96.2869 65.3593 95.9336 66.2985 95.9336 67.2453C95.9336 68.1387 96.2042 68.5205 96.8356 68.5205C97.249 68.5205 97.6473 68.322 97.8653 67.9936C98.3013 67.3446 98.5343 65.9549 98.3088 65.3517C98.1359 64.9088 97.948 64.779 97.4669 64.779C97.1663 64.779 97.0235 64.8248 96.7829 65.0004ZM97.7676 65.2066C97.948 65.3822 97.9856 65.6495 97.9405 66.2603C97.8503 67.4057 97.4369 68.1387 96.8731 68.1387C96.5048 68.1387 96.3846 67.9249 96.3846 67.2682C96.3846 66.7337 96.6176 65.68 96.7829 65.4662C97.0535 65.1073 97.5421 64.9775 97.7676 65.2066Z" fill="#582F9A"/>
<path d="M99.8548 64.8783C99.712 64.9241 99.5692 65.0234 99.5391 65.0844C99.479 65.199 98.9453 68.1845 98.9453 68.406C98.9453 68.4976 99.0054 68.5205 99.1483 68.5052C99.3963 68.4747 99.3813 68.5129 99.697 66.6498C99.8247 65.8938 99.96 65.2448 99.9976 65.2066C100.035 65.1684 100.231 65.1226 100.434 65.0997C100.749 65.0692 100.832 65.0921 100.975 65.2372C101.133 65.3975 101.14 65.4586 101.095 65.9549C101.072 66.2527 100.967 66.9247 100.87 67.4515C100.772 67.9784 100.704 68.4289 100.727 68.4594C100.772 68.5511 101.035 68.5358 101.087 68.4442C101.178 68.2914 101.576 65.9931 101.576 65.6189C101.576 65.3364 101.531 65.1913 101.396 65.031C101.23 64.8401 101.163 64.8172 100.667 64.8019C100.358 64.7867 99.9976 64.8248 99.8548 64.8783Z" fill="#582F9A"/>
<path d="M103.265 64.9242C102.949 65.1227 102.814 65.2907 102.596 65.7718C102.378 66.2605 102.213 67.1997 102.288 67.5738C102.408 68.2381 102.792 68.5588 103.438 68.5283C104.002 68.513 104.28 68.3908 104.28 68.1618C104.28 67.9938 104.257 67.9785 104.114 68.0243C104.017 68.0549 103.769 68.1007 103.558 68.116C103.235 68.1465 103.145 68.1236 102.964 67.9632C102.784 67.8105 102.746 67.7113 102.716 67.3295L102.686 66.879L103.686 66.7033C104.242 66.6041 104.708 66.5124 104.723 66.4895C104.746 66.4743 104.776 66.2528 104.791 66.0161C104.828 65.5198 104.633 65.0082 104.362 64.8555C104.122 64.7257 103.513 64.7639 103.265 64.9242ZM104.197 65.2831C104.31 65.4282 104.355 65.5962 104.355 65.8863C104.355 66.3445 104.415 66.3063 103.43 66.4666C103.107 66.5124 102.829 66.5354 102.799 66.5048C102.769 66.4819 102.807 66.2757 102.874 66.0467C103.122 65.2449 103.851 64.8326 104.197 65.2831Z" fill="#582F9A"/>
<path d="M106.038 64.9013L105.813 65.0159L105.422 67.3982C105.204 68.7115 105.031 69.8264 105.031 69.8798C105.031 69.9485 105.106 69.9714 105.234 69.9562C105.43 69.9333 105.445 69.9027 105.572 69.2079C105.64 68.8108 105.7 68.4825 105.7 68.4748C105.708 68.4748 105.896 68.4825 106.121 68.5054C106.918 68.5741 107.519 67.9632 107.775 66.8255C107.978 65.9016 107.865 65.2373 107.437 64.9319C107.173 64.741 106.392 64.7257 106.038 64.9013ZM107.196 65.2373C107.286 65.3213 107.384 65.4816 107.406 65.5885C107.482 65.9016 107.384 66.6957 107.211 67.1691C107.008 67.7189 106.753 68.0243 106.414 68.1389C106.121 68.2381 105.783 68.1847 105.783 68.0396C105.775 67.7494 106.271 65.1915 106.339 65.1457C106.512 65.0235 107.031 65.0846 107.196 65.2373Z" fill="#582F9A"/>
<path d="M109.563 64.9775C109.397 65.0921 109.172 65.3211 109.059 65.4968C108.608 66.1992 108.428 67.4057 108.683 67.9555C108.886 68.3831 109.119 68.5205 109.653 68.5205C110.021 68.5205 110.577 68.4136 110.592 68.3449C110.6 68.3373 110.728 67.5889 110.893 66.6879L111.186 65.0463L111.028 64.9088C110.916 64.8172 110.743 64.779 110.375 64.779C109.961 64.779 109.818 64.8172 109.563 64.9775ZM110.638 65.1455C110.69 65.1837 110.638 65.6342 110.472 66.5887C110.337 67.3599 110.209 68.0166 110.179 68.0624C110.104 68.1769 109.668 68.2304 109.442 68.1464C109.029 67.986 108.901 67.253 109.134 66.352C109.277 65.7793 109.488 65.4204 109.796 65.2295C110.029 65.0844 110.487 65.0386 110.638 65.1455Z" fill="#582F9A"/>
<path d="M112.491 64.8631C112.356 64.9013 112.236 64.9624 112.213 64.9929C112.198 65.0235 112.055 65.7565 111.905 66.6117C111.755 67.4745 111.612 68.2534 111.589 68.345C111.559 68.4977 111.582 68.5206 111.747 68.5206C112.01 68.5206 112.04 68.4366 112.334 66.7644C112.506 65.7641 112.612 65.3212 112.709 65.222C112.89 65.0387 113.378 65.0387 113.596 65.222C113.814 65.3976 113.807 65.7412 113.566 67.108C113.318 68.4595 113.318 68.5206 113.551 68.5206C113.777 68.5206 113.754 68.5893 114.047 66.8789C114.31 65.3747 114.386 65.2067 114.844 65.1151C115.175 65.054 115.363 65.1227 115.46 65.3518C115.528 65.5045 115.505 65.8099 115.325 66.8637C115.039 68.5206 115.039 68.5359 115.303 68.5053L115.513 68.4824L115.761 67.0317C116.032 65.4281 116.017 65.1227 115.663 64.886C115.385 64.7028 114.686 64.7715 114.371 65.0082L114.13 65.1838L113.927 64.9853C113.747 64.802 113.671 64.7791 113.228 64.7867C112.957 64.7867 112.627 64.8249 112.491 64.8631Z" fill="#582F9A"/>
<path d="M117.612 64.9241C117.078 65.2524 116.687 66.2069 116.68 67.169C116.68 68.1311 116.935 68.5205 117.567 68.5205C118.221 68.5205 118.634 68.1387 118.92 67.2606C119.243 66.2756 119.198 65.344 118.822 64.9623C118.589 64.7256 117.965 64.7026 117.612 64.9241ZM118.454 65.1455C118.754 65.344 118.792 66.1076 118.551 67.0163C118.378 67.6653 118.153 68.0013 117.815 68.1235C117.304 68.3067 117.033 67.8409 117.131 66.9399C117.213 66.1229 117.409 65.5808 117.709 65.3135C117.957 65.0921 118.273 65.0233 118.454 65.1455Z" fill="#582F9A"/>
<path d="M120.528 64.8555C120.438 64.8937 120.333 65.0082 120.288 65.0998C120.25 65.1991 120.047 66.2681 119.837 67.4898C119.626 68.7039 119.431 69.7652 119.408 69.8416C119.378 69.9638 119.408 69.979 119.626 69.9561L119.874 69.9332L119.987 69.2078L120.1 68.4824L120.528 68.5053C120.987 68.5359 121.28 68.429 121.603 68.093C122.167 67.5203 122.497 66.0466 122.212 65.3594C122.047 64.9471 121.738 64.7791 121.175 64.7868C120.919 64.7868 120.626 64.8173 120.528 64.8555ZM121.528 65.1304C122.054 65.3365 121.926 67.108 121.332 67.7952C120.972 68.2152 120.213 68.3526 120.213 68.0014C120.213 67.6731 120.694 65.1914 120.769 65.1456C120.874 65.0769 121.355 65.0693 121.528 65.1304Z" fill="#582F9A"/>
<path d="M152.596 69.8341L152.16 69.9869V70.5824C152.16 71.6056 152.498 72.3005 153.16 72.667C153.611 72.9037 154.746 72.9113 155.249 72.6746C155.948 72.3463 156.535 71.6285 156.865 70.6893C157.121 69.9716 157.113 69.9487 156.617 69.7883C156.212 69.6585 156.181 69.6585 156.106 69.7807C155.625 70.6053 155.242 70.9719 154.701 71.1169C153.911 71.3384 153.145 70.7428 153.137 69.9105C153.137 69.628 153.16 69.628 152.596 69.8341Z" fill="#582F9A"/>
<path d="M97.7074 73.8272C95.4375 74.4152 93.7538 77.0877 93.626 80.3176C93.5959 81.0506 93.6185 81.4553 93.7012 81.86C94.107 83.7842 95.4299 84.8532 97.3992 84.8608C98.3313 84.8608 99.594 84.5707 100.368 84.166L100.639 84.0362L100.504 82.9748C100.436 82.3945 100.376 81.9135 100.368 81.9135C100.368 81.9058 100.173 81.9822 99.9323 82.0814C99.2332 82.364 98.647 82.4938 98.0456 82.4938C97.3166 82.4938 96.9107 82.3029 96.6401 81.8447C96.4296 81.4706 96.2417 80.623 96.3545 80.5161C96.392 80.4779 97.5045 80.2718 98.8274 80.058C100.15 79.8442 101.338 79.6533 101.473 79.6304C101.699 79.5922 101.714 79.5693 101.789 79.073C102.059 77.248 101.887 75.9881 101.225 74.9726C100.714 74.1861 99.9248 73.7814 98.8274 73.7432C98.3989 73.728 97.993 73.7585 97.7074 73.8272ZM98.9326 75.95C99.2257 76.2248 99.331 76.5914 99.3234 77.3091C99.3159 78.3705 99.4061 78.3018 97.8202 78.5537C97.0685 78.6759 96.4296 78.7446 96.4071 78.7217C96.3244 78.6377 96.5348 77.752 96.7754 77.164C97.2639 75.9652 98.3087 75.3773 98.9326 75.95Z" fill="#582F9A"/>
<path d="M106.345 73.7893C105.413 73.9115 103.857 74.4307 103.797 74.6445C103.752 74.7819 102.828 80.1193 102.549 81.7686C102.429 82.5246 102.128 84.2808 101.88 85.6705C101.632 87.0602 101.407 88.3735 101.377 88.595L101.324 88.9844L102.782 88.9691L104.233 88.9462L104.293 88.6408C104.316 88.4728 104.481 87.5412 104.654 86.5791C104.819 85.6094 104.97 84.7847 104.992 84.7313C105.015 84.6626 105.09 84.6626 105.308 84.7236C105.819 84.8687 106.886 84.8305 107.443 84.6396C109.074 84.0899 110.164 82.7918 110.848 80.5927C111.253 79.287 111.389 77.5461 111.156 76.5534C110.832 75.179 109.968 74.2474 108.683 73.8962C108.187 73.7587 107.014 73.7053 106.345 73.7893ZM107.818 75.9502C108.375 76.3243 108.525 77.2254 108.307 78.8518C107.991 81.1425 107.262 82.494 106.217 82.7154C105.804 82.8071 105.33 82.7536 105.33 82.6162C105.33 82.5704 105.451 81.8602 105.594 81.0432C105.744 80.2262 105.977 78.8289 106.12 77.9508C106.465 75.8433 106.45 75.9273 106.631 75.8509C106.962 75.7135 107.548 75.7669 107.818 75.9502Z" fill="#582F9A"/>
<path d="M133.687 73.7893C133.041 73.8809 132.334 74.0718 131.696 74.3162L131.147 74.53L130.906 75.8586C130.771 76.5916 130.455 78.4089 130.207 79.8979C129.959 81.3868 129.621 83.3492 129.456 84.2502C129.298 85.1512 129.057 86.5104 128.93 87.2663C128.809 88.0223 128.689 88.7171 128.666 88.8088L128.629 88.9844H130.095C130.899 88.9844 131.56 88.9615 131.56 88.9233C131.568 88.7935 132.304 84.6931 132.327 84.6626C132.342 84.6473 132.492 84.6778 132.658 84.7236C132.816 84.7695 133.244 84.8076 133.597 84.8076C135.995 84.8076 137.769 82.8376 138.445 79.4397C138.611 78.6227 138.626 77.1108 138.483 76.5381C138.137 75.1866 137.37 74.3162 136.16 73.942C135.589 73.7587 134.394 73.69 133.687 73.7893ZM135.228 75.9731C135.627 76.2709 135.732 76.6298 135.724 77.6453C135.702 79.5314 135.161 81.4097 134.394 82.2497C134.056 82.6238 133.417 82.8376 132.936 82.7536C132.733 82.7154 132.688 82.6696 132.688 82.5169C132.688 82.41 132.868 81.2876 133.094 80.02C133.319 78.7601 133.56 77.3781 133.627 76.9581C133.808 75.8433 133.8 75.8662 133.988 75.828C134.356 75.744 135.018 75.8204 135.228 75.9731Z" fill="#582F9A"/>
<path d="M83.5746 74.1862C83.5445 74.3236 83.304 75.2628 83.0334 76.2707C82.7703 77.2786 82.3494 78.905 82.1014 79.8901C81.8533 80.8674 81.485 82.2953 81.2821 83.0589C81.0716 83.8148 80.9062 84.4868 80.9062 84.5326C80.9062 84.6089 81.237 84.6318 82.3269 84.6318H83.7475L83.9128 83.9217C84.003 83.5399 84.3037 82.2189 84.5893 81.0049C84.8749 79.7832 85.1455 78.5843 85.1981 78.3324L85.2958 77.8742L85.356 78.4469C85.386 78.76 85.4988 80.1039 85.604 81.4248C85.7092 82.7458 85.8145 84.0133 85.837 84.2271L85.8821 84.6318H86.4609H87.0321L87.1749 84.2653C87.2576 84.0668 87.5132 83.4559 87.7462 82.9138C88.4227 81.3561 89.6027 78.5156 89.708 78.1797C89.8959 77.607 89.8658 78.1491 89.5125 81.2721C89.3246 82.9749 89.1743 84.418 89.1743 84.4944C89.1743 84.6242 89.2795 84.6318 90.5648 84.6318C91.79 84.6318 91.9554 84.6166 91.9554 84.5097C91.9554 84.4409 92.0381 83.3185 92.1433 82.0051C92.3838 78.8821 92.707 74.4381 92.707 74.1633V73.9418H91.2639H89.8132L89.5576 74.5374C89.4148 74.8581 89.2194 75.3086 89.1217 75.5301C89.0315 75.7515 88.9488 75.95 88.9488 75.9653C88.9488 75.9882 88.6482 76.6983 88.2799 77.5459C87.9191 78.4011 87.5207 79.3937 87.4004 79.7679C87.2877 80.1344 87.1599 80.4322 87.1298 80.4322C87.0998 80.4322 87.0697 80.1955 87.0697 79.913C87.0697 79.3708 86.8066 75.1406 86.724 74.3771L86.6789 73.9418H85.153H83.6272L83.5746 74.1862Z" fill="#582F9A"/>
<path d="M113.419 74.0718C113.374 74.2474 112.517 79.0808 112.359 80.0506C112.239 80.8294 111.675 84.0746 111.6 84.4258L111.555 84.632H113.02H114.486L114.531 84.2655C114.666 83.3263 115.35 79.4703 115.396 79.4168C115.448 79.3634 115.892 80.692 116.673 83.2499C116.884 83.9372 117.079 84.5251 117.102 84.5633C117.124 84.6015 117.816 84.632 118.643 84.632H120.146L120.093 84.4564C120.033 84.235 118.598 80.0506 118.417 79.5466C118.312 79.2565 118.297 79.1267 118.357 79.0121C118.402 78.9358 118.996 78.0577 119.68 77.0726C120.364 76.0876 121.07 75.0492 121.258 74.759C121.439 74.4765 121.619 74.2703 121.649 74.3009C121.679 74.3391 121.792 75.2706 121.905 76.3854C122.01 77.5002 122.251 79.8139 122.431 81.5319L122.769 84.6626L121.935 86.3424C121.469 87.274 120.98 88.2437 120.837 88.511L120.574 88.9844L122.251 88.9691L123.927 88.9462L124.22 88.259C124.378 87.8772 124.611 87.3503 124.738 87.0754C124.866 86.8006 125.197 86.0446 125.475 85.3956C125.761 84.7465 126.37 83.3492 126.828 82.3031C127.294 81.2494 127.933 79.791 128.256 79.0579C128.579 78.3249 129.211 76.8741 129.669 75.828L130.496 73.942L128.918 73.9573L127.332 73.9802L126.723 75.5455C125.535 78.5692 125.4 78.951 125.167 79.8979C124.941 80.7989 124.731 81.3334 124.836 80.7378C124.859 80.5927 124.829 79.0961 124.769 77.4163C124.701 75.7364 124.648 74.2703 124.648 74.1482V73.942L121.627 73.9496H118.598L117.109 76.3167C116.29 77.6148 115.591 78.6761 115.561 78.6761C115.516 78.6761 116.11 74.927 116.275 74.1482L116.32 73.942H114.884C113.592 73.942 113.456 73.9573 113.419 74.0718Z" fill="#582F9A"/>
<path d="M140.734 73.9878C140.734 74.0107 140.629 74.5834 140.509 75.263C140.306 76.3625 139.885 78.7754 139.562 80.776C139.396 81.7457 139.449 82.8682 139.674 83.395C139.982 84.1051 140.794 84.6244 141.862 84.7924C142.628 84.9145 144.282 84.8382 145.064 84.6396C145.68 84.4869 146.665 84.1357 146.762 84.0364C146.837 83.9601 146.883 83.7234 147.431 80.4705C147.679 78.9968 148.033 76.9505 148.213 75.9197C148.401 74.8812 148.551 74.0184 148.551 73.9878C148.551 73.9649 147.89 73.942 147.085 73.942C146.251 73.942 145.62 73.9725 145.62 74.0107C145.62 74.1329 144.883 78.4623 144.53 80.4095C144.342 81.425 144.192 82.2726 144.192 82.2878C144.192 82.3871 143.681 82.5093 143.29 82.5093C142.741 82.5093 142.5 82.3718 142.395 81.9824C142.305 81.6541 142.305 81.6159 142.696 79.4397C143.132 76.981 143.59 74.2245 143.59 74.0718C143.59 73.9496 143.47 73.942 142.162 73.942C141.381 73.942 140.734 73.9649 140.734 73.9878Z" fill="#582F9A"/>
<path d="M150.167 74.0337C150.107 74.2169 148.964 81.0356 148.889 81.6923C148.829 82.2039 148.964 83.0362 149.19 83.4867C149.536 84.1739 150.235 84.6092 151.272 84.7848C151.956 84.8917 153.166 84.8764 153.933 84.7466C154.797 84.5939 156.203 84.1128 156.248 83.9525C156.293 83.7921 156.812 80.8295 157.157 78.7907C157.413 77.2254 157.571 76.3015 157.856 74.7209L157.999 73.9421H156.549C155.098 73.9421 155.09 73.9421 155.053 74.11C155.038 74.2093 154.948 74.7285 154.857 75.2783C154.775 75.8204 154.519 77.2865 154.301 78.5235C154.083 79.7605 153.843 81.1273 153.767 81.5549C153.632 82.3032 153.617 82.3414 153.399 82.433C153.061 82.5781 152.377 82.5552 152.129 82.3948C151.693 82.1046 151.693 81.8985 152.166 79.2489C152.55 77.0498 153.061 74.0719 153.061 73.9955C153.061 73.965 152.414 73.9421 151.633 73.9421C150.55 73.9421 150.19 73.965 150.167 74.0337Z" fill="#582F9A"/>
<defs>
<filter id="filter0_d_428_194" x="0" y="0" width="226.109" height="170.979" filterUnits="userSpaceOnUse" color-interpolation-filters="sRGB">
<feFlood flood-opacity="0" result="BackgroundImageFix"/>
<feColorMatrix in="SourceAlpha" type="matrix" values="0 0 0 0 0 0 0 0 0 0 0 0 0 0 0 0 0 0 127 0" result="hardAlpha"/>
<feOffset dy="10"/>
<feGaussianBlur stdDeviation="15"/>
<feComposite in2="hardAlpha" operator="out"/>
<feColorMatrix type="matrix" values="0 0 0 0 0.713726 0 0 0 0 0.705882 0 0 0 0 0.827451 0 0 0 0.4 0"/>
<feBlend mode="normal" in2="BackgroundImageFix" result="effect1_dropShadow_428_194"/>
<feBlend mode="normal" in="SourceGraphic" in2="effect1_dropShadow_428_194" result="shape"/>
</filter>
</defs>
</svg>
