<svg width="46" height="28" viewBox="0 0 46 28" fill="none" xmlns="http://www.w3.org/2000/svg">
<path fill-rule="evenodd" clip-rule="evenodd" d="M22.7352 24.1347C25.131 26.3422 28.3484 27.6813 31.848 27.6813C39.3638 27.6813 45.4469 21.5512 45.4469 14.0115C45.4469 6.44898 39.3638 0.318604 31.848 0.318604C28.3484 0.318604 25.131 1.65735 22.7352 3.8652C19.9872 6.37822 18.249 9.9953 18.249 14.0115C18.2493 18.0278 19.9872 21.6452 22.7352 24.1347Z" fill="#E9B040"/>
<path fill-rule="evenodd" clip-rule="evenodd" d="M43.6396 21.6214C43.6396 21.3864 43.8276 21.1987 44.0623 21.1987C44.3205 21.1987 44.5082 21.3867 44.5082 21.6214C44.5082 21.8801 44.3202 22.0678 44.0623 22.0678C43.8276 22.0678 43.6396 21.8801 43.6396 21.6214ZM44.0623 21.9741C44.2503 21.9741 44.4142 21.8094 44.4142 21.6217C44.4142 21.434 44.25 21.293 44.0623 21.293C43.8976 21.293 43.7336 21.434 43.7336 21.6217C43.7336 21.8094 43.8978 21.9741 44.0623 21.9741ZM44.0153 21.8331H43.9213V21.4337H44.0855C44.1093 21.4337 44.1563 21.4337 44.1795 21.4575C44.2265 21.4807 44.2265 21.5045 44.2265 21.5515C44.2265 21.5984 44.2033 21.6454 44.1563 21.6454L44.2503 21.8334H44.1325L44.0855 21.6687H44.0153V21.8331V21.5982H44.1093C44.1325 21.5982 44.1325 21.5744 44.1325 21.5512C44.1325 21.5274 44.1325 21.5274 44.1093 21.5042H44.0153V21.8331Z" fill="#E9B040"/>
<path fill-rule="evenodd" clip-rule="evenodd" d="M27.1274 12.5556C27.0804 12.0624 26.9864 11.5928 26.8925 11.0994H18.578C18.672 10.6062 18.813 10.1366 18.9537 9.66663H26.4933C26.3296 9.17219 26.1415 8.68618 25.9297 8.21039H19.5411C19.7761 7.7129 20.0347 7.22693 20.3162 6.75416H25.1313C24.8215 6.25255 24.4762 5.77375 24.098 5.32143H21.3498C21.7749 4.80228 22.2381 4.31552 22.7355 3.8652C20.3165 1.68085 17.1221 0.318604 13.599 0.318604C6.10661 0.318604 0 6.44898 0 14.0115C0 21.5512 6.10661 27.6813 13.599 27.6813C17.1221 27.6813 20.3162 26.3422 22.7355 24.1347C23.2253 23.6922 23.6808 23.2132 24.098 22.7017H21.3498C20.9738 22.232 20.6451 21.7624 20.3162 21.2454H25.1313C25.4341 20.781 25.7011 20.2942 25.9299 19.7892H19.5411C19.3296 19.3195 19.1184 18.8499 18.9537 18.3562H26.4933C26.6575 17.8865 26.7752 17.3937 26.8922 16.9C26.9862 16.4303 27.0802 15.9374 27.1271 15.4437C27.1748 14.9675 27.1984 14.4893 27.1979 14.0107C27.1979 13.5184 27.1744 13.0252 27.1274 12.5556Z" fill="#CC2131"/>
<path fill-rule="evenodd" clip-rule="evenodd" d="M43.6396 17.1822C43.6396 16.924 43.8276 16.7363 44.0623 16.7363C44.3205 16.7363 44.5082 16.9243 44.5082 17.1822C44.5082 17.4172 44.3202 17.6286 44.0623 17.6286C43.8276 17.6286 43.6396 17.4169 43.6396 17.1822ZM44.0623 17.5109C44.2503 17.5109 44.4142 17.3699 44.4142 17.1822C44.4142 16.9945 44.25 16.8535 44.0623 16.8535C43.8976 16.8535 43.7336 16.9945 43.7336 17.1822C43.7336 17.3699 43.8978 17.5109 44.0623 17.5109ZM44.0153 17.3699H43.9213V16.9942H44.1795C44.2265 17.018 44.2265 17.065 44.2265 17.112C44.2265 17.1352 44.2033 17.1822 44.1563 17.206L44.2503 17.3702H44.1325L44.0855 17.2292H44.0153V17.3699V17.1587H44.0623C44.0855 17.1587 44.1093 17.1587 44.1093 17.1349C44.1325 17.1349 44.1325 17.1117 44.1325 17.0879C44.1325 17.0879 44.1325 17.0647 44.1093 17.0647C44.1093 17.041 44.0855 17.0647 44.0623 17.0647H44.0153V17.3699Z" fill="white"/>
<path fill-rule="evenodd" clip-rule="evenodd" d="M18.1087 17.9575C17.6625 18.0747 17.3336 18.1455 17.0049 18.1455C16.3003 18.1455 15.8773 17.6991 15.8773 16.9005C15.8773 16.7363 15.9008 16.5718 15.9243 16.3838L16.0183 15.844L16.0888 15.3975L16.7229 11.5458H18.1322L17.9677 12.3914H18.8603L18.6488 13.8006H17.7562L17.3806 16.1021C17.3571 16.2199 17.3571 16.2901 17.3571 16.3371C17.3571 16.6426 17.498 16.7598 17.8502 16.7598C18.0147 16.7598 18.1554 16.7366 18.2964 16.7128L18.1087 17.9575ZM22.6653 17.9105C22.1487 18.0515 21.679 18.1217 21.1621 18.1217C19.5649 18.1217 18.6488 17.2761 18.6488 15.609C18.6488 13.6593 19.7294 12.2501 21.2323 12.2501C22.4301 12.2501 23.2052 13.0487 23.2052 14.2932C23.2052 14.7164 23.1582 15.1156 23.041 15.6792H20.105C20.0816 15.7732 20.0816 15.8202 20.0816 15.8672C20.0816 16.5248 20.5277 16.8535 21.3733 16.8535C21.9135 16.8535 22.3831 16.7363 22.9 16.5016L22.6653 17.9105ZM21.7962 14.5519V14.27C21.7962 13.8003 21.5378 13.5419 21.0916 13.5419C20.6217 13.5419 20.293 13.894 20.152 14.5517L21.7962 14.5519ZM6.83477 18.0278H5.37854L6.22414 12.6965L4.32175 18.0278H3.31195L3.19447 12.72L2.30188 18.0278H0.869141L2.01992 11.0993H4.15727L4.20426 15.3743L5.637 11.0993H7.98582L6.83477 18.0278ZM10.3816 15.515C10.2407 15.4912 10.1937 15.4912 10.0997 15.4912C9.25408 15.4912 8.83142 15.8199 8.83142 16.3368C8.83142 16.6893 9.04289 16.9242 9.37156 16.9242C10.0762 16.9242 10.3579 16.3368 10.3816 15.515ZM11.5559 18.0278H10.2877L10.3111 17.4409C9.98219 17.8868 9.53604 18.1217 8.76093 18.1217C8.05631 18.1217 7.44568 17.4879 7.44568 16.5718C7.44568 16.3136 7.49267 16.0789 7.56316 15.844C7.79785 14.9746 8.66694 14.4347 10.0057 14.4109C10.1702 14.4109 10.4284 14.4109 10.6633 14.4347C10.71 14.2467 10.71 14.176 10.71 14.0588C10.71 13.6828 10.4049 13.5654 9.72373 13.5654C9.30107 13.5654 8.83114 13.6358 8.50247 13.7533L8.291 13.8003L8.19701 13.8235L8.40848 12.5553C9.0896 12.3438 9.58275 12.2501 10.1232 12.2501C11.3914 12.2501 12.0726 12.8372 12.0726 13.9175C12.0726 14.1995 12.0961 14.4109 12.0021 15.0216L11.6734 17.0415L11.6264 17.3939L11.6029 17.6759L11.5794 17.8638L11.5559 18.0278ZM29.7585 12.4381C30.1812 12.4381 30.5571 12.5556 31.0738 12.8137L31.332 11.3105C31.191 11.24 31.144 11.24 30.9563 11.1695L30.3694 11.0051C30.1815 10.9581 29.9468 10.9346 29.688 10.9346C28.9596 10.9346 28.537 10.9581 28.0911 11.2165C27.8561 11.381 27.5507 11.5925 27.2217 11.9681L27.0338 11.9211L25.5305 12.9779L25.6013 12.3908H24.0508L23.1353 18.0275H24.6153L25.1551 14.9981C25.1551 14.9981 25.3669 14.5749 25.4606 14.4344C25.7426 14.082 25.9772 14.082 26.2824 14.082H26.4002C26.3509 14.4399 26.3272 14.801 26.3294 15.1623C26.3294 16.9942 27.3627 18.1452 28.9599 18.1452C29.3594 18.1452 29.7121 18.0982 30.252 17.9573L30.5107 16.3603C30.041 16.6185 29.6181 16.736 29.2656 16.736C28.3968 16.736 27.8796 16.0784 27.8796 15.0451C27.8791 13.5184 28.6545 12.4381 29.7585 12.4381ZM42.2296 11.0993L41.9012 13.0722C41.5488 12.5321 41.1259 12.2736 40.5622 12.2736C39.7868 12.2736 39.059 12.7198 38.6126 13.5654V13.5421L37.6733 12.9782L37.7672 12.3911H36.1935L35.3009 18.0278H36.7572L37.2506 14.9984C37.2506 14.9984 37.6263 14.5751 37.7203 14.4347C37.9552 14.1528 38.1899 14.1055 38.3779 14.0823C38.2137 14.5519 38.1197 15.1156 38.1197 15.75C38.1197 17.1592 38.8475 18.0985 39.9278 18.0985C40.4682 18.0985 40.8909 17.9105 41.2901 17.4641L41.2198 18.0278H42.6059L43.7331 11.0993H42.2296ZM40.4215 16.6893C39.9281 16.6893 39.6699 16.3136 39.6699 15.5852C39.6699 14.4812 40.1396 13.6828 40.8204 13.6828C41.3371 13.6828 41.5958 14.0823 41.5958 14.7869C41.5958 15.9142 41.1261 16.6893 40.4215 16.6893ZM33.6341 15.515C33.4931 15.4912 33.4461 15.4912 33.3521 15.4912C32.506 15.4912 32.0833 15.8199 32.0833 16.3368C32.0833 16.6893 32.295 16.9242 32.6237 16.9242C33.3283 16.9242 33.6103 16.3368 33.6341 15.515ZM34.8083 18.0278H33.5163L33.5633 17.4409C33.2346 17.8868 32.7879 18.1217 32.0134 18.1217C31.285 18.1217 30.6511 17.5111 30.6511 16.5718C30.6511 15.2333 31.6606 14.4112 33.2578 14.4112C33.4226 14.4112 33.6805 14.4112 33.8923 14.435C33.9392 14.247 33.963 14.1763 33.963 14.0591C33.963 13.6831 33.6576 13.5656 32.9529 13.5656C32.5535 13.5656 32.0604 13.6361 31.7317 13.7536L31.5437 13.8006L31.4497 13.8238L31.6609 12.5556C32.3423 12.3441 32.8357 12.2504 33.3756 12.2504C34.6439 12.2504 35.3015 12.8375 35.3015 13.9178C35.3015 14.1998 35.3485 14.4112 35.2313 15.0219L34.9258 17.0417L34.8788 17.3942L34.8318 17.6761L34.8086 17.8641V18.0278H34.8083ZM14.6326 13.5888C14.9145 13.5888 15.3137 13.6123 15.7366 13.6828L15.9481 12.3676C15.5252 12.3206 14.9615 12.2501 14.6326 12.2501C12.9886 12.2501 12.4485 13.1427 12.4485 14.176C12.4485 14.8574 12.7537 15.3503 13.5523 15.7259C14.1394 16.0079 14.2334 16.0546 14.2334 16.3133C14.2334 16.6652 13.9282 16.877 13.3643 16.877C12.9182 16.877 12.4952 16.8062 12.0256 16.642L11.8611 17.9335L11.8843 17.9573L12.1663 18.0043C12.2603 18.0275 12.3777 18.0512 12.5422 18.0745C12.8944 18.0982 13.1998 18.1215 13.3878 18.1215C15.032 18.1215 15.7131 17.4876 15.7131 16.2426C15.7131 15.4677 15.3372 14.9981 14.6091 14.6694C13.9749 14.3872 13.9045 14.3407 13.9045 14.082C13.9045 13.8238 14.1864 13.5888 14.6326 13.5888Z" fill="#1B3771"/>
<path fill-rule="evenodd" clip-rule="evenodd" d="M31.7313 10.8641L31.4725 12.3674C30.9559 12.1089 30.5799 11.9917 30.1573 11.9917C29.0532 11.9917 28.2784 13.072 28.2784 14.5987C28.2784 15.6558 28.795 16.2896 29.6644 16.2896C30.0163 16.2896 30.4392 16.1724 30.9089 15.9377L30.6507 17.5109C30.1103 17.6519 29.7581 17.7226 29.3587 17.7226C27.7617 17.7226 26.7752 16.5716 26.7752 14.7165C26.7752 12.2502 28.1374 10.512 30.0868 10.512C30.345 10.512 30.5797 10.5355 30.7676 10.5825L31.355 10.7234C31.5433 10.7939 31.5903 10.8174 31.7313 10.8641ZM26.9866 11.8977H26.8456C26.3528 11.8977 26.0708 12.1327 25.6244 12.8135L25.7654 11.9444H24.4263L23.5108 17.5814H24.9908C25.5307 14.1288 25.6716 13.5416 26.3763 13.5416H26.4702C26.6112 12.8605 26.7989 12.3671 27.0339 11.9209L26.9866 11.8977ZM18.4845 17.5109C18.0853 17.6519 17.7564 17.6989 17.4277 17.6989C16.6761 17.6989 16.2531 17.2762 16.2531 16.4544C16.2531 16.3134 16.2766 16.1257 16.3001 15.9609L16.3941 15.3973L16.4646 14.9514L17.0987 11.0991H18.555L18.3905 11.9447H19.1421L18.9541 13.3304H18.2025L17.8034 15.6793C17.7799 15.7732 17.7799 15.844 17.7799 15.9142C17.7799 16.1962 17.9208 16.3137 18.273 16.3137C18.4375 16.3137 18.5782 16.3137 18.6722 16.2667L18.4845 17.5109ZM12.824 13.7296C12.824 14.4345 13.1527 14.9274 13.9278 15.3033C14.5384 15.5853 14.6324 15.679 14.6324 15.914C14.6324 16.2664 14.374 16.4306 13.7868 16.4306C13.3407 16.4306 12.9412 16.3604 12.4716 16.2194L12.2601 17.5109L12.3306 17.5347L12.5891 17.5817C12.6828 17.6049 12.8005 17.6286 12.9882 17.6286C13.3169 17.6756 13.5989 17.6756 13.7868 17.6756C15.3368 17.6756 16.0652 17.0882 16.0652 15.7967C16.0652 15.0214 15.76 14.5749 15.0319 14.223C14.3977 13.9411 14.3272 13.8709 14.3272 13.6124C14.3272 13.3072 14.5857 13.1662 15.0554 13.1662C15.3373 13.1662 15.7365 13.1897 16.1124 13.2367L16.3236 11.945C15.948 11.8745 15.3608 11.8275 15.0319 11.8275C13.3877 11.8272 12.8005 12.6963 12.824 13.7296ZM42.9817 17.5817H41.5956L41.6664 17.0412C41.267 17.4639 40.844 17.6519 40.3036 17.6519C39.2233 17.6519 38.5187 16.7363 38.5187 15.3271C38.5187 13.4479 39.6228 11.8507 40.9143 11.8507C41.5017 11.8507 41.9243 12.1092 42.324 12.6258L42.6527 10.6529H44.109L42.9817 17.5817ZM40.8205 16.2664C41.5019 16.2664 41.9716 15.4678 41.9716 14.3637C41.9716 13.6356 41.7129 13.2597 41.1962 13.2597C40.5386 13.2597 40.0457 14.0348 40.0457 15.1388C40.0457 15.8907 40.3039 16.2664 40.8205 16.2664ZM22.9939 17.4639C22.4769 17.6286 22.0073 17.6989 21.4671 17.6989C19.8229 17.6989 18.9773 16.83 18.9773 15.1623C18.9773 13.2365 20.0579 11.8037 21.5376 11.8037C22.7589 11.8037 23.5337 12.6023 23.5337 13.8471C23.5337 14.27 23.4867 14.6695 23.3458 15.2563H20.4339C20.4104 15.3271 20.4104 15.3741 20.4104 15.4211C20.4104 16.0787 20.8568 16.4074 21.7021 16.4074C22.2423 16.4074 22.7119 16.3134 23.2288 16.0549L22.9939 17.4639ZM22.1718 14.1053V13.8236C22.1718 13.3539 21.9133 13.0955 21.4671 13.0955C20.9975 13.0955 20.6685 13.4479 20.5276 14.1053H22.1718ZM7.21057 17.5817H5.75434L6.59994 12.2499L4.69755 17.5817H3.68747L3.56999 12.2969L2.67768 17.5817H1.31543L2.46621 10.6529H4.58006L4.65055 14.9511L6.05952 10.6529H8.36134L7.21057 17.5817ZM10.8511 15.0684C10.7102 15.0684 10.6397 15.0451 10.5222 15.0451C9.70009 15.0451 9.27743 15.3503 9.27743 15.914C9.27743 16.2664 9.4654 16.4776 9.79408 16.4776C10.4047 16.4776 10.8277 15.914 10.8511 15.0684ZM11.9314 17.5817H10.7099L10.7334 16.9942C10.3574 17.4639 9.86429 17.6756 9.18317 17.6756C8.38456 17.6756 7.84442 17.065 7.84442 16.1489C7.84442 14.7635 8.78373 13.9648 10.4279 13.9648C10.5924 13.9648 10.8039 13.9883 11.0386 14.0116C11.0856 13.8239 11.0856 13.7534 11.0856 13.6594C11.0856 13.2837 10.8271 13.1427 10.146 13.1427C9.72331 13.1427 9.25338 13.1897 8.92471 13.2837L8.71324 13.3542L8.57226 13.3777L8.78373 12.1094C9.51184 11.898 10.005 11.8275 10.5454 11.8275C11.8137 11.8275 12.4948 12.3911 12.4948 13.4714C12.4948 13.7534 12.4713 13.9648 12.3773 14.599L12.0484 16.5956L12.0014 16.9475L11.9779 17.2295L11.9544 17.4412L11.9314 17.5817ZM34.1036 15.0684C33.9388 15.0684 33.8686 15.0451 33.7749 15.0451C32.9293 15.0451 32.5061 15.3503 32.5061 15.914C32.5061 16.2664 32.7178 16.4776 33.0465 16.4776C33.6339 16.4776 34.0798 15.914 34.1036 15.0684ZM35.1839 17.5817H33.9626L33.9858 16.9942C33.6101 17.4639 33.117 17.6756 32.4359 17.6756C31.6373 17.6756 31.0969 17.065 31.0969 16.1489C31.0969 14.7635 32.0362 13.9648 33.6804 13.9648C33.8451 13.9648 34.0566 13.9883 34.2678 14.0116C34.3148 13.8239 34.3385 13.7534 34.3385 13.6594C34.3385 13.2837 34.0798 13.1427 33.3992 13.1427C32.976 13.1427 32.4831 13.1897 32.1542 13.2837L31.9662 13.3542L31.8252 13.3777L32.0364 12.1094C32.7648 11.898 33.2577 11.8275 33.7981 11.8275C35.0664 11.8275 35.724 12.3911 35.724 13.4714C35.724 13.7534 35.724 13.9648 35.6068 14.599L35.3013 16.5956L35.2544 16.9475L35.2074 17.2295L35.1841 17.4412L35.1839 17.5817ZM39.1296 11.8977H38.9886C38.4958 11.8977 38.2138 12.1327 37.7674 12.8135L37.9084 11.9444H36.5693L35.6767 17.5814H37.133C37.6734 14.1288 37.8144 13.5416 38.519 13.5416H38.613C38.754 12.8605 38.9416 12.3671 39.1766 11.9209L39.1296 11.8977Z" fill="white"/>
</svg>
