<svg width="33" height="20" viewBox="0 0 33 20" fill="none" xmlns="http://www.w3.org/2000/svg">
<path fill-rule="evenodd" clip-rule="evenodd" d="M16.4021 17.3118C18.1306 18.9044 20.4518 19.8705 22.9766 19.8705C28.399 19.8705 32.7878 15.4479 32.7878 10.0083C32.7878 4.55223 28.399 0.129395 22.9766 0.129395C20.4518 0.129395 18.1306 1.09525 16.4021 2.68812C14.4196 4.50117 13.1655 7.11075 13.1655 10.0083C13.1657 12.9059 14.4196 15.5157 16.4021 17.3118Z" fill="#E9B040"/>
<path fill-rule="evenodd" clip-rule="evenodd" d="M31.4834 15.4985C31.4834 15.329 31.619 15.1936 31.7883 15.1936C31.9746 15.1936 32.11 15.3292 32.11 15.4985C32.11 15.6852 31.9744 15.8206 31.7883 15.8206C31.619 15.8206 31.4834 15.6852 31.4834 15.4985ZM31.7883 15.753C31.9239 15.753 32.0422 15.6342 32.0422 15.4987C32.0422 15.3633 31.9237 15.2616 31.7883 15.2616C31.6695 15.2616 31.5512 15.3633 31.5512 15.4987C31.5512 15.6342 31.6697 15.753 31.7883 15.753ZM31.7544 15.6513H31.6866V15.3631H31.8051C31.8222 15.3631 31.8561 15.3631 31.8729 15.3803C31.9068 15.397 31.9068 15.4142 31.9068 15.4481C31.9068 15.482 31.89 15.5159 31.8561 15.5159L31.9239 15.6515H31.839L31.8051 15.5326H31.7544V15.6513V15.4818H31.8222C31.839 15.4818 31.839 15.4646 31.839 15.4479C31.839 15.4307 31.839 15.4307 31.8222 15.414H31.7544V15.6513Z" fill="#E9B040"/>
<path fill-rule="evenodd" clip-rule="evenodd" d="M19.5714 8.9579C19.5375 8.60212 19.4697 8.26328 19.4019 7.90729H13.4033C13.4711 7.5515 13.5728 7.21267 13.6743 6.87363H19.1139C18.9958 6.51691 18.8601 6.16627 18.7072 5.82301H14.0981C14.2677 5.46409 14.4543 5.11348 14.6573 4.7724H18.1313C17.9078 4.4105 17.6586 4.06507 17.3858 3.73874H15.403C15.7097 3.36419 16.0439 3.01301 16.4028 2.68812C14.6575 1.1122 12.3529 0.129395 9.81112 0.129395C4.40568 0.129395 0 4.55223 0 10.0083C0 15.4479 4.40568 19.8705 9.81112 19.8705C12.3529 19.8705 14.6573 18.9044 16.4028 17.3118C16.7562 16.9926 17.0848 16.6469 17.3858 16.2779H15.403C15.1318 15.9391 14.8947 15.6002 14.6573 15.2273H18.1313C18.3497 14.8922 18.5423 14.541 18.7074 14.1767H14.0981C13.9456 13.8378 13.7932 13.499 13.6743 13.1428H19.1139C19.2323 12.804 19.3173 12.4484 19.4017 12.0922C19.4695 11.7534 19.5373 11.3978 19.5712 11.0416C19.6055 10.698 19.6226 10.353 19.6222 10.0077C19.6222 9.65253 19.6053 9.29674 19.5714 8.9579Z" fill="#CC2131"/>
<path fill-rule="evenodd" clip-rule="evenodd" d="M31.4834 12.2958C31.4834 12.1095 31.619 11.9741 31.7883 11.9741C31.9746 11.9741 32.11 12.1097 32.11 12.2958C32.11 12.4653 31.9744 12.6179 31.7883 12.6179C31.619 12.6179 31.4834 12.4651 31.4834 12.2958ZM31.7883 12.5329C31.9239 12.5329 32.0422 12.4312 32.0422 12.2958C32.0422 12.1604 31.9237 12.0587 31.7883 12.0587C31.6695 12.0587 31.5512 12.1604 31.5512 12.2958C31.5512 12.4312 31.6697 12.5329 31.7883 12.5329ZM31.7544 12.4312H31.6866V12.1602H31.8729C31.9068 12.1773 31.9068 12.2112 31.9068 12.2452C31.9068 12.2619 31.89 12.2958 31.8561 12.313L31.9239 12.4314H31.839L31.8051 12.3297H31.7544V12.4312V12.2789H31.7883C31.8051 12.2789 31.8222 12.2789 31.8222 12.2617C31.839 12.2617 31.839 12.245 31.839 12.2278C31.839 12.2278 31.839 12.211 31.8222 12.211C31.8222 12.1939 31.8051 12.211 31.7883 12.211H31.7544V12.4312Z" fill="white"/>
<path fill-rule="evenodd" clip-rule="evenodd" d="M13.0646 12.8554C12.7427 12.9399 12.5054 12.991 12.2683 12.991C11.7599 12.991 11.4548 12.6689 11.4548 12.0927C11.4548 11.9743 11.4717 11.8556 11.4887 11.72L11.5565 11.3305L11.6073 11.0084L12.0648 8.22952H13.0816L12.9629 8.83959H13.6069L13.4543 9.8563H12.8103L12.5393 11.5168C12.5223 11.6017 12.5223 11.6524 12.5223 11.6863C12.5223 11.9067 12.6241 11.9912 12.8781 11.9912C12.9968 11.9912 13.0983 11.9745 13.2 11.9573L13.0646 12.8554ZM16.3521 12.8215C15.9793 12.9232 15.6405 12.9738 15.2675 12.9738C14.1152 12.9738 13.4543 12.3638 13.4543 11.161C13.4543 9.75439 14.2339 8.73768 15.3182 8.73768C16.1823 8.73768 16.7416 9.31384 16.7416 10.2117C16.7416 10.517 16.7077 10.805 16.6231 11.2116H14.5049C14.488 11.2795 14.488 11.3134 14.488 11.3473C14.488 11.8217 14.8098 12.0588 15.4199 12.0588C15.8096 12.0588 16.1484 11.9743 16.5214 11.805L16.3521 12.8215ZM15.725 10.3984V10.1949C15.725 9.8561 15.5386 9.66963 15.2167 9.66963C14.8777 9.66963 14.6405 9.92371 14.5388 10.3982L15.725 10.3984ZM4.93092 12.906H3.88031L4.49037 9.05976L3.11787 12.906H2.38934L2.30459 9.07671L1.66062 12.906H0.626953L1.45719 7.90744H2.99921L3.03311 10.9917L4.06678 7.90744H5.76136L4.93092 12.906ZM7.48985 11.0932C7.38814 11.076 7.35423 11.076 7.28643 11.076C6.67636 11.076 6.37143 11.3132 6.37143 11.6861C6.37143 11.9404 6.52399 12.1099 6.76112 12.1099C7.26948 12.1099 7.4727 11.6861 7.48985 11.0932ZM8.33704 12.906H7.42204L7.43899 12.4826C7.20167 12.8043 6.87978 12.9738 6.32057 12.9738C5.81222 12.9738 5.37167 12.5165 5.37167 11.8556C5.37167 11.6693 5.40557 11.5 5.45643 11.3305C5.62575 10.7033 6.25276 10.3138 7.21862 10.2966C7.33728 10.2966 7.52355 10.2966 7.69307 10.3138C7.72678 10.1782 7.72678 10.1271 7.72678 10.0426C7.72678 9.77134 7.5066 9.68658 7.0152 9.68658C6.71026 9.68658 6.37123 9.73744 6.1341 9.82219L5.98154 9.8561L5.91373 9.87285L6.06629 8.95785C6.5577 8.80528 6.91349 8.73768 7.30338 8.73768C8.21838 8.73768 8.70978 9.16127 8.70978 9.94066C8.70978 10.1441 8.72673 10.2966 8.65893 10.7372L8.4218 12.1945L8.3879 12.4487L8.37094 12.6522L8.35399 12.7878L8.33704 12.906ZM21.4695 8.87329C21.7745 8.87329 22.0457 8.95805 22.4184 9.14432L22.6047 8.0598C22.503 8.00895 22.4691 8.00895 22.3337 7.95809L21.9103 7.83943C21.7747 7.80553 21.6053 7.78857 21.4187 7.78857C20.8932 7.78857 20.5882 7.80553 20.2665 7.992C20.097 8.11066 19.8766 8.26322 19.6393 8.53425L19.5037 8.50035L18.4192 9.26278L18.4702 8.83919H17.3516L16.6911 12.9058H17.7589L18.1484 10.7202C18.1484 10.7202 18.3011 10.4149 18.3687 10.3136C18.5722 10.0593 18.7415 10.0593 18.9616 10.0593H19.0466C19.011 10.3176 18.994 10.578 18.9955 10.8387C18.9955 12.1603 19.741 12.9908 20.8934 12.9908C21.1815 12.9908 21.436 12.9569 21.8255 12.8552L22.0122 11.703C21.6733 11.8893 21.3682 11.9741 21.1139 11.9741C20.4871 11.9741 20.114 11.4996 20.114 10.7541C20.1136 9.65268 20.673 8.87329 21.4695 8.87329ZM30.4669 7.90744L30.23 9.33079C29.9757 8.9411 29.6706 8.75463 29.264 8.75463C28.7046 8.75463 28.1794 9.07651 27.8574 9.68658V9.66983L27.1797 9.26298L27.2475 8.83939H26.1121L25.4682 12.906H26.5188L26.8748 10.7204C26.8748 10.7204 27.1458 10.4151 27.2136 10.3138C27.3831 10.1104 27.5524 10.0763 27.688 10.0595C27.5696 10.3984 27.5018 10.805 27.5018 11.2627C27.5018 12.2794 28.0269 12.9571 28.8063 12.9571C29.1962 12.9571 29.5011 12.8215 29.7891 12.4994L29.7384 12.906H30.7384L31.5517 7.90744H30.4669ZM29.1625 11.9404C28.8065 11.9404 28.6202 11.6693 28.6202 11.1438C28.6202 10.3473 28.959 9.77134 29.4502 9.77134C29.823 9.77134 30.0096 10.0595 30.0096 10.5679C30.0096 11.3812 29.6708 11.9404 29.1625 11.9404ZM24.2656 11.0932C24.1639 11.076 24.13 11.076 24.0622 11.076C23.4517 11.076 23.1467 11.3132 23.1467 11.6861C23.1467 11.9404 23.2995 12.1099 23.5366 12.1099C24.045 12.1099 24.2484 11.6861 24.2656 11.0932ZM25.1128 12.906H24.1806L24.2145 12.4826C23.9774 12.8043 23.6551 12.9738 23.0963 12.9738C22.5708 12.9738 22.1135 12.5333 22.1135 11.8556C22.1135 10.89 22.8418 10.2968 23.9941 10.2968C24.113 10.2968 24.2991 10.2968 24.4518 10.314C24.4857 10.1784 24.5029 10.1273 24.5029 10.0428C24.5029 9.77154 24.2825 9.68678 23.7742 9.68678C23.486 9.68678 23.1302 9.73763 22.8931 9.82239L22.7575 9.8563L22.6896 9.87305L22.842 8.95805C23.3336 8.80548 23.6896 8.73788 24.0791 8.73788C24.9941 8.73788 25.4686 9.16147 25.4686 9.94086C25.4686 10.1443 25.5025 10.2968 25.4179 10.7374L25.1975 12.1947L25.1636 12.4489L25.1297 12.6524L25.113 12.788V12.906H25.1128ZM10.5567 9.70353C10.7602 9.70353 11.0481 9.72048 11.3533 9.77134L11.5058 8.82244C11.2007 8.78853 10.7941 8.73768 10.5567 8.73768C9.3707 8.73768 8.98101 9.38165 8.98101 10.1271C8.98101 10.6187 9.20119 10.9743 9.77735 11.2454C10.2009 11.4488 10.2688 11.4825 10.2688 11.6691C10.2688 11.923 10.0486 12.0758 9.64173 12.0758C9.31985 12.0758 9.01472 12.0247 8.67588 11.9063L8.55722 12.838L8.57397 12.8552L8.77739 12.8891C8.8452 12.9058 8.92996 12.923 9.04862 12.9397C9.3027 12.9569 9.52307 12.9736 9.65869 12.9736C10.8449 12.9736 11.3363 12.5163 11.3363 11.6181C11.3363 11.0591 11.0651 10.7202 10.5398 10.4831C10.0823 10.2795 10.0314 10.246 10.0314 10.0593C10.0314 9.87305 10.2348 9.70353 10.5567 9.70353Z" fill="#1B3771"/>
<path fill-rule="evenodd" clip-rule="evenodd" d="M22.8931 7.73772L22.7064 8.82224C22.3336 8.63577 22.0624 8.55121 21.7575 8.55121C20.9609 8.55121 20.4019 9.33059 20.4019 10.4321C20.4019 11.1947 20.7747 11.652 21.4019 11.652C21.6558 11.652 21.9609 11.5674 22.2997 11.3981L22.1135 12.5331C21.7236 12.6348 21.4695 12.6859 21.1813 12.6859C20.0292 12.6859 19.3174 11.8554 19.3174 10.517C19.3174 8.73768 20.3002 7.48364 21.7066 7.48364C21.8929 7.48364 22.0622 7.50059 22.1978 7.5345L22.6216 7.63621C22.7574 7.68706 22.7913 7.70402 22.8931 7.73772ZM19.47 8.4834H19.3683C19.0127 8.4834 18.8093 8.65292 18.4872 9.14412L18.5889 8.51711H17.6228L16.9623 12.5839H18.0301C18.4196 10.093 18.5213 9.66943 19.0296 9.66943H19.0974C19.1992 9.17803 19.3346 8.82204 19.5041 8.50015L19.47 8.4834ZM13.336 12.5331C13.048 12.6348 12.8107 12.6687 12.5736 12.6687C12.0313 12.6687 11.7262 12.3638 11.7262 11.7709C11.7262 11.6691 11.7431 11.5337 11.7601 11.4149L11.8279 11.0082L11.8788 10.6865L12.3363 7.90724H13.3869L13.2682 8.5173H13.8105L13.6749 9.51706H13.1326L12.8446 11.2116C12.8277 11.2795 12.8277 11.3305 12.8277 11.3812C12.8277 11.5846 12.9294 11.6693 13.1834 11.6693C13.3021 11.6693 13.4036 11.6693 13.4714 11.6354L13.336 12.5331ZM9.25222 9.80504C9.25222 10.3136 9.48935 10.6692 10.0486 10.9404C10.4891 11.1438 10.5569 11.2114 10.5569 11.381C10.5569 11.6352 10.3704 11.7537 9.94685 11.7537C9.62496 11.7537 9.33678 11.7031 8.99794 11.6013L8.84538 12.5331L8.89623 12.5502L9.0827 12.5841C9.15031 12.6009 9.23527 12.618 9.37068 12.618C9.60781 12.652 9.81123 12.652 9.94685 12.652C11.0651 12.652 11.5906 12.2282 11.5906 11.2964C11.5906 10.737 11.3704 10.4149 10.8451 10.161C10.3876 9.95761 10.3367 9.90695 10.3367 9.72048C10.3367 9.50031 10.5232 9.3986 10.862 9.3986C11.0655 9.3986 11.3534 9.41555 11.6247 9.44945L11.777 8.5175C11.506 8.46665 11.0824 8.43274 10.8451 8.43274C9.65887 8.43254 9.23527 9.05956 9.25222 9.80504ZM31.0098 12.5841H30.0098L30.0609 12.1943C29.7727 12.4992 29.4676 12.6348 29.0777 12.6348C28.2983 12.6348 27.7899 11.9743 27.7899 10.9576C27.7899 9.60182 28.5865 8.4495 29.5182 8.4495C29.942 8.4495 30.247 8.63597 30.5353 9.00871L30.7725 7.58535H31.8231L31.0098 12.5841ZM29.4506 11.6352C29.9422 11.6352 30.2811 11.0591 30.2811 10.2625C30.2811 9.73724 30.0944 9.46601 29.7216 9.46601C29.2472 9.46601 28.8916 10.0252 28.8916 10.8218C28.8916 11.3642 29.0779 11.6352 29.4506 11.6352ZM16.5894 12.4992C16.2164 12.6181 15.8776 12.6687 15.4879 12.6687C14.3017 12.6687 13.6916 12.0419 13.6916 10.8387C13.6916 9.44926 14.4712 8.41559 15.5388 8.41559C16.4199 8.41559 16.9789 8.99176 16.9789 9.8898C16.9789 10.1949 16.945 10.4831 16.8432 10.9065H14.7424C14.7255 10.9576 14.7255 10.9915 14.7255 11.0254C14.7255 11.4998 15.0476 11.737 15.6574 11.737C16.0471 11.737 16.3859 11.6691 16.7589 11.4827L16.5894 12.4992ZM15.9963 10.0761V9.87285C15.9963 9.53401 15.8098 9.34755 15.4879 9.34755C15.1491 9.34755 14.9117 9.60182 14.81 10.0761H15.9963ZM5.20233 12.5841H4.15172L4.76178 8.73748L3.38928 12.5841H2.66056L2.5758 8.77138L1.93203 12.5841H0.949219L1.77946 7.58535H3.30453L3.35538 10.6863L4.37189 7.58535H6.03257L5.20233 12.5841ZM7.82887 10.7709C7.72716 10.7709 7.6763 10.7541 7.59154 10.7541C6.99843 10.7541 6.69349 10.9743 6.69349 11.381C6.69349 11.6352 6.82911 11.7876 7.06623 11.7876C7.50678 11.7876 7.81192 11.381 7.82887 10.7709ZM8.60825 12.5841H7.72696L7.74391 12.1604C7.47268 12.4992 7.11689 12.652 6.62549 12.652C6.04932 12.652 5.65963 12.2114 5.65963 11.5505C5.65963 10.5509 6.33731 9.97476 7.52353 9.97476C7.6422 9.97476 7.79476 9.99171 7.96408 10.0085C7.99799 9.87305 7.99799 9.8222 7.99799 9.75439C7.99799 9.48336 7.81152 9.38165 7.32011 9.38165C7.01518 9.38165 6.67614 9.41555 6.43902 9.48336L6.28645 9.53421L6.18474 9.55117L6.33731 8.63617C6.86261 8.4836 7.2184 8.43274 7.60829 8.43274C8.52329 8.43274 9.0147 8.83939 9.0147 9.61877C9.0147 9.8222 8.99775 9.97476 8.92994 10.4323L8.69261 11.8728L8.65871 12.1266L8.64176 12.3301L8.6248 12.4828L8.60825 12.5841ZM24.6046 10.7709C24.4857 10.7709 24.4351 10.7541 24.3675 10.7541C23.7574 10.7541 23.4521 10.9743 23.4521 11.381C23.4521 11.6352 23.6048 11.7876 23.842 11.7876C24.2658 11.7876 24.5874 11.381 24.6046 10.7709ZM25.384 12.5841H24.5029L24.5196 12.1604C24.2486 12.4992 23.8928 12.652 23.4014 12.652C22.8252 12.652 22.4354 12.2114 22.4354 11.5505C22.4354 10.5509 23.113 9.97476 24.2993 9.97476C24.4181 9.97476 24.5707 9.99171 24.7231 10.0085C24.757 9.87305 24.7741 9.8222 24.7741 9.75439C24.7741 9.48336 24.5874 9.38165 24.0964 9.38165C23.7911 9.38165 23.4355 9.41555 23.1982 9.48336L23.0626 9.53421L22.9609 9.55117L23.1132 8.63617C23.6387 8.4836 23.9943 8.43274 24.3842 8.43274C25.2992 8.43274 25.7737 8.83939 25.7737 9.61877C25.7737 9.8222 25.7737 9.97476 25.6891 10.4323L25.4687 11.8728L25.4348 12.1266L25.4009 12.3301L25.3842 12.4828L25.384 12.5841ZM28.2307 8.4834H28.129C27.7734 8.4834 27.57 8.65292 27.2479 9.14412L27.3496 8.51711H26.3835L25.7396 12.5839H26.7902C27.1801 10.093 27.2818 9.66943 27.7901 9.66943H27.8579C27.9597 9.17803 28.0951 8.82204 28.2646 8.50015L28.2307 8.4834Z" fill="white"/>
</svg>
