<svg width="56" height="16" viewBox="0 0 56 16" fill="none" xmlns="http://www.w3.org/2000/svg">
<path d="M40.1709 7.2522V15.8H44.9197V10.7346H50.3016C52.5652 10.7188 54.4884 9.27043 55.2166 7.2522H40.1709Z" fill="#37A72E"/>
<path d="M39.5381 0.208008C39.8151 3.69835 43.1234 6.46056 47.1599 6.46056C47.1757 6.46056 55.4148 6.46056 55.4148 6.46056C55.4781 6.14397 55.5098 5.81156 55.5098 5.47123C55.5098 2.57448 53.175 0.231752 50.2861 0.208008H39.5381Z" fill="url(#paint0_linear_85_273)"/>
<path d="M32.5097 6.3735C32.5651 6.27852 32.6522 6.22312 32.763 6.22312C32.9213 6.22312 33.04 6.34975 33.0479 6.50013V15.7207H37.7967V0.208008H33.0479C32.4464 0.231752 31.7657 0.667056 31.5125 1.21316L27.7372 9.31774C27.7293 9.34939 27.7135 9.38105 27.6976 9.41271C27.6422 9.49186 27.5473 9.54726 27.4365 9.54726C27.2623 9.54726 27.1199 9.4048 27.1199 9.23067V0.208008H22.3711V15.7207H27.1199C27.7135 15.689 28.3783 15.2537 28.6316 14.7155L32.5097 6.39724C32.5018 6.38933 32.5097 6.38141 32.5097 6.3735Z" fill="#37A72E"/>
<path d="M14.7806 6.6427L12.0026 15.7208H8.5835L5.81338 6.63478C5.78963 6.49232 5.663 6.38151 5.50471 6.38151C5.33059 6.38151 5.19604 6.52398 5.19604 6.69018V15.7128H0.447266V0.200195H4.52329H5.73423C6.60484 0.200195 7.52294 0.880853 7.7762 1.71189L10.0873 9.27035C10.206 9.65025 10.388 9.64234 10.5067 9.27035L12.8178 1.71189C13.0711 0.872938 13.9892 0.200195 14.8598 0.200195H16.0707H20.1468V15.7128H15.398V6.69018C15.398 6.69018 15.398 6.69018 15.398 6.68227C15.398 6.50815 15.2555 6.3736 15.0893 6.3736C14.931 6.38151 14.8044 6.49232 14.7806 6.6427Z" fill="#37A72E"/>
<defs>
<linearGradient id="paint0_linear_85_273" x1="39.54" y1="3.33429" x2="55.5088" y2="3.33429" gradientUnits="userSpaceOnUse">
<stop stop-color="#00A0E5"/>
<stop offset="1" stop-color="#0077C3"/>
</linearGradient>
</defs>
</svg>
