<svg width="41" height="12" viewBox="0 0 41 12" fill="none" xmlns="http://www.w3.org/2000/svg">
<path d="M29.4478 5.46045V11.6273H32.8738V7.97289H36.7567C38.3898 7.96147 39.7773 6.91652 40.3026 5.46045H29.4478Z" fill="#37A72E"/>
<path d="M28.9907 0.378174C29.1906 2.89632 31.5774 4.88914 34.4895 4.88914C34.501 4.88914 40.4452 4.88914 40.4452 4.88914C40.4908 4.66074 40.5137 4.42092 40.5137 4.17538C40.5137 2.08549 38.8292 0.395304 36.745 0.378174H28.9907Z" fill="url(#paint0_linear_103_441)"/>
<path d="M23.9201 4.82633C23.9601 4.75781 24.0229 4.71784 24.1028 4.71784C24.217 4.71784 24.3027 4.8092 24.3084 4.9177V11.5699H27.7344V0.378174H24.3084C23.8744 0.395304 23.3833 0.709359 23.2006 1.10336L20.4769 6.95049C20.4712 6.97333 20.4598 6.99617 20.4484 7.01901C20.4084 7.07611 20.3399 7.11608 20.2599 7.11608C20.1343 7.11608 20.0315 7.0133 20.0315 6.88768V0.378174H16.6055V11.5699H20.0315C20.4598 11.5471 20.9394 11.2331 21.1221 10.8448L23.9201 4.84346C23.9144 4.83775 23.9201 4.83204 23.9201 4.82633Z" fill="#37A72E"/>
<path d="M11.1291 5.02057L9.12482 11.57H6.65806L4.65953 5.01486C4.6424 4.91208 4.55104 4.83214 4.43683 4.83214C4.31121 4.83214 4.21414 4.93492 4.21414 5.05483V11.5643H0.788086V0.372559H3.72878H4.60243C5.23054 0.372559 5.89291 0.863627 6.07563 1.46319L7.74298 6.91632C7.82863 7.19041 7.95996 7.1847 8.04561 6.91632L9.71296 1.46319C9.89568 0.857917 10.5581 0.372559 11.1862 0.372559H12.0598H15.0005V11.5643H11.5744V5.05483C11.5744 5.05483 11.5744 5.05483 11.5744 5.04912C11.5744 4.9235 11.4717 4.82643 11.3518 4.82643C11.2376 4.83214 11.1462 4.91208 11.1291 5.02057Z" fill="#37A72E"/>
<defs>
<linearGradient id="paint0_linear_103_441" x1="28.9921" y1="2.63367" x2="40.513" y2="2.63367" gradientUnits="userSpaceOnUse">
<stop stop-color="#00A0E5"/>
<stop offset="1" stop-color="#0077C3"/>
</linearGradient>
</defs>
</svg>
