<svg width="31" height="31" viewBox="0 0 31 31" fill="none" xmlns="http://www.w3.org/2000/svg">
<path d="M23.7184 29.5691H7.26713C5.7844 29.5691 4.57812 28.3713 4.57812 26.8989V4.11677C4.57812 2.63591 5.7844 1.43115 7.26713 1.43115H18.9337L26.4241 8.87472V26.8989C26.4241 28.3713 25.2103 29.5691 23.7184 29.5691ZM7.26713 2.521C6.38539 2.521 5.66797 3.23684 5.66797 4.11677V26.8989C5.66797 27.7703 6.38539 28.4793 7.26713 28.4793H23.7184C24.6094 28.4793 25.3343 27.7703 25.3343 26.8989V9.32816L18.4843 2.521H7.26713Z" fill="white" stroke="white" stroke-miterlimit="10"/>
<path d="M26.4057 10.4015L19.8068 10.3495C18.4109 10.3495 17.5062 9.27641 17.5062 7.61567L17.4531 1.46313H18.8834V2.55298H18.5524L18.596 7.61094C18.596 8.10997 18.7144 9.25963 19.8111 9.25963L25.3159 9.30299V8.97331H26.4057V10.4015Z" fill="white" stroke="white" stroke-miterlimit="10"/>
<path d="M10.4598 19.8923H9.41844V21.4786C9.41844 21.7054 9.36486 21.8775 9.25763 21.9946C9.1504 22.1118 9.01514 22.1704 8.85178 22.1704C8.68074 22.1704 8.54293 22.1124 8.43825 21.9965C8.33356 21.8806 8.28125 21.7104 8.28125 21.4862V17.1669C8.28125 16.9172 8.33871 16.7387 8.45357 16.6317C8.56842 16.5247 8.75091 16.4712 9.00109 16.4712H10.4598C10.8912 16.4712 11.223 16.5044 11.4554 16.5706C11.6851 16.6344 11.8835 16.7401 12.0507 16.8879C12.2179 17.0357 12.3449 17.2166 12.4317 17.4306C12.5184 17.6447 12.5619 17.8856 12.5619 18.1531C12.5619 18.724 12.3857 19.1565 12.0335 19.4509C11.6813 19.7451 11.1567 19.8923 10.4598 19.8923ZM10.1842 17.3236H9.41844V19.036H10.1842C10.4522 19.036 10.6762 19.008 10.8561 18.9519C11.0361 18.8959 11.1733 18.8042 11.2677 18.6767C11.3621 18.5493 11.4094 18.3824 11.4094 18.1759C11.4094 17.9288 11.3366 17.7275 11.1912 17.5719C11.0278 17.4064 10.6921 17.3236 10.1842 17.3236Z" fill="white" stroke="white" stroke-miterlimit="10"/>
<path d="M14.5875 16.4709H16.0692C16.4546 16.4709 16.7852 16.5067 17.0609 16.578C17.3365 16.6494 17.5867 16.7832 17.8113 16.9794C18.3958 17.4789 18.6881 18.2382 18.6881 19.2576C18.6881 19.594 18.6588 19.901 18.6 20.1788C18.5413 20.4566 18.4507 20.7069 18.3282 20.9299C18.2057 21.1529 18.0487 21.3523 17.8573 21.5281C17.7067 21.6631 17.542 21.7715 17.3634 21.853C17.1847 21.9346 16.9926 21.9919 16.7871 22.025C16.5816 22.0582 16.35 22.0747 16.0922 22.0747H14.6104C14.4036 22.0747 14.2479 22.0435 14.1433 21.981C14.0386 21.9187 13.9704 21.8307 13.9385 21.7173C13.9065 21.6039 13.8906 21.4567 13.8906 21.2758V17.1666C13.8906 16.922 13.9455 16.7449 14.0553 16.6353C14.165 16.5257 14.3424 16.4709 14.5875 16.4709ZM15.0278 17.3692V21.1725H15.8892C16.0781 21.1725 16.2262 21.1674 16.3334 21.1573C16.4406 21.1471 16.5516 21.1216 16.6665 21.0808C16.7813 21.0401 16.8809 20.9827 16.9651 20.9088C17.3454 20.5876 17.5357 20.0347 17.5357 19.2499C17.5357 18.6969 17.452 18.2828 17.2848 18.0075C17.1176 17.7323 16.9116 17.5572 16.6665 17.4819C16.4214 17.4068 16.1253 17.3692 15.7782 17.3692H15.0278V17.3692Z" fill="white" stroke="white" stroke-miterlimit="10"/>
<path d="M23.3926 17.3463H21.1528V18.7798H23.025C23.1986 18.7798 23.3281 18.8187 23.4137 18.8964C23.4992 18.9741 23.5419 19.0779 23.5419 19.2079C23.5419 19.3379 23.4985 19.4411 23.4118 19.5175C23.3249 19.594 23.1961 19.6322 23.025 19.6322H21.1528V21.4785C21.1528 21.713 21.0998 21.8869 20.9939 22.0002C20.8879 22.1136 20.752 22.1703 20.5862 22.1703C20.4177 22.1703 20.2804 22.113 20.1746 21.9983C20.0686 21.8837 20.0156 21.7104 20.0156 21.4785V17.1667C20.0156 17.0036 20.0398 16.8704 20.0884 16.7672C20.1368 16.664 20.2128 16.5889 20.3162 16.5417C20.4196 16.4946 20.5517 16.4709 20.7125 16.4709H23.3927C23.5739 16.4709 23.7086 16.5111 23.7966 16.5913C23.8847 16.6716 23.9287 16.7768 23.9287 16.9067C23.9287 17.0392 23.8847 17.1456 23.7966 17.2258C23.7085 17.3062 23.5738 17.3463 23.3926 17.3463Z" fill="white" stroke="white" stroke-miterlimit="10"/>
</svg>
