<svg width="12" height="19" viewBox="0 0 12 19" fill="none" xmlns="http://www.w3.org/2000/svg">
<g clip-path="url(#clip0_85_112)">
<path d="M10.749 9.57608C10.7405 9.7811 10.6519 9.97735 10.4983 10.131L3.48217 17.1222C3.39499 17.2086 3.28958 17.279 3.17195 17.3294C3.05433 17.3797 2.9268 17.409 2.79665 17.4155C2.6665 17.4221 2.53627 17.4058 2.4134 17.3676C2.29053 17.3293 2.17743 17.2699 2.08055 17.1928C1.98368 17.1156 1.90493 17.0221 1.84879 16.9177C1.79266 16.8133 1.76025 16.7 1.7534 16.5843C1.74656 16.4686 1.76542 16.3528 1.8089 16.2433C1.85239 16.1339 1.91965 16.0331 2.00685 15.9467L8.40783 9.56616L1.79442 3.40609C1.70434 3.32265 1.63371 3.22419 1.58654 3.11632C1.53937 3.00845 1.5166 2.89329 1.51952 2.77742C1.52244 2.66154 1.551 2.54723 1.60357 2.44099C1.65613 2.33476 1.73167 2.23868 1.82588 2.15826C1.92009 2.07783 2.03111 2.01464 2.15261 1.97227C2.27412 1.92991 2.40372 1.9092 2.53402 1.91135C2.66432 1.91349 2.79277 1.93844 2.91203 1.98477C3.03129 2.03109 3.13902 2.09788 3.22908 2.18134L10.478 8.93088C10.5697 9.01652 10.641 9.11779 10.6876 9.22865C10.7341 9.33951 10.755 9.45768 10.749 9.57608Z" fill="white"/>
</g>
<defs>
<clipPath id="clip0_85_112">
<rect width="10.125" height="18" fill="white" transform="matrix(0.999857 -0.0169369 -0.0169369 -0.999857 1.125 18.5)"/>
</clipPath>
</defs>
</svg>
