<svg width="68" height="34" viewBox="0 0 68 34" fill="none" xmlns="http://www.w3.org/2000/svg">
<path d="M0 7.40063L4.1174 14.7602V19.2493L0.00481666 26.5945L0 7.40063Z" fill="#5B57A2"/>
<path d="M15.8096 12.0823L19.6677 9.71757L27.5636 9.71021L15.8096 16.9108V12.0823Z" fill="#D90751"/>
<path d="M15.7869 7.35731L15.8087 17.1011L11.6816 14.5653V0L15.7871 7.35731H15.7869Z" fill="#FAB718"/>
<path d="M27.5627 9.71011L19.6665 9.71747L15.7869 7.35731L11.6816 0L27.5625 9.71011H27.5627Z" fill="#ED6F26"/>
<path d="M15.8087 26.6352V21.9078L11.6816 19.4202L11.6839 33.9999L15.8087 26.6352Z" fill="#63B22F"/>
<path d="M19.6576 24.2921L4.11711 14.7602L0 7.40063L27.5465 24.2825L19.6574 24.2921H19.6576Z" fill="#1487C9"/>
<path d="M11.6846 33.9999L15.8088 26.6353L19.6573 24.2921L27.5461 24.2825L11.6846 33.9999Z" fill="#017F36"/>
<path d="M0.00488281 26.5943L11.7159 19.4203L7.77869 17.0046L4.11746 19.2492L0.00488281 26.5943Z" fill="#984995"/>
<path fill-rule="evenodd" clip-rule="evenodd" d="M45.0178 18.1556C47.6748 18.1556 49.6479 16.5265 49.6479 14.0567C49.6479 11.6661 48.1923 10.1141 45.7592 10.1141C44.6363 10.1141 43.7098 10.5092 43.012 11.1913C43.1786 9.78182 44.3706 8.75252 45.6829 8.75252C45.9859 8.75252 48.2661 8.74782 48.2661 8.74782L49.5557 6.28027C49.5557 6.28027 46.6929 6.34557 45.362 6.34557C42.3213 6.39842 40.2674 9.1623 40.2674 12.5191C40.2674 16.4302 42.2705 18.1556 45.0178 18.1556ZM45.034 12.2997C46.0205 12.2997 46.7043 12.948 46.7043 14.0564C46.7043 15.0539 46.0967 15.876 45.034 15.8782C44.0172 15.8782 43.3333 15.1164 43.3333 14.0733C43.3333 12.9646 44.0172 12.2997 45.034 12.2997ZM59.908 9.54607V17.8585H56.9398V12.0275H54.0818V17.8585H51.1136V9.54552L59.908 9.54607ZM36.1034 15.5561C37.1504 15.4797 37.8513 15.0755 37.8513 15.0755L38.9498 17.1078C38.2463 17.5596 37.0921 17.8535 36.2553 17.8845C33.2619 17.9395 31.1797 16.1181 31.1797 13.4643C31.1797 10.844 33.395 8.97913 36.2553 8.97913C37.3887 8.97913 38.363 9.28322 39.0946 9.83771C38.9406 10.1105 38.7313 10.4885 38.5324 10.8501L38.2138 11.4306L37.9239 11.9608C37.9239 11.9608 36.8699 11.4085 36.0731 11.4085C34.7738 11.4085 33.8275 12.1636 33.8275 13.4809C33.8275 14.8317 34.8998 15.5918 36.1034 15.5561ZM33.8283 23.4526C33.7377 23.5683 33.6185 23.6557 33.4754 23.7147C33.3285 23.7744 33.1715 23.8049 33.0129 23.804C32.8553 23.8062 32.6986 23.78 32.5503 23.7266C32.4171 23.6781 32.2953 23.6026 32.1927 23.5049C32.0914 23.407 32.0118 23.2888 31.9593 23.158C31.9023 23.0149 31.8739 22.8619 31.8757 22.7078C31.8757 22.5548 31.902 22.4131 31.9566 22.2789C32.0091 22.1444 32.0853 22.0291 32.1808 21.9322C32.2241 21.8874 32.2712 21.8473 32.3219 21.8113L32.3529 21.7903C32.3854 21.769 32.4193 21.749 32.4544 21.7308L32.4922 21.712L32.5194 21.699C32.6506 21.6422 32.7936 21.6115 32.9509 21.6115C33.1203 21.6115 33.2776 21.6328 33.4206 21.6752C33.511 21.7017 33.5926 21.7396 33.6656 21.7889C33.7085 21.8179 33.7484 21.8509 33.7853 21.8877L33.6114 22.1823C33.5271 22.106 33.4281 22.0481 33.3203 22.0122C33.2179 21.9792 33.1109 21.9626 33.0034 21.9629C32.908 21.9629 32.8174 21.9817 32.7293 22.0172C32.6426 22.052 32.5631 22.1032 32.4956 22.1682C32.4265 22.2346 32.3721 22.3152 32.3357 22.404C32.2953 22.4956 32.2762 22.5971 32.2762 22.7103C32.2762 22.8256 32.2975 22.9294 32.3381 23.0191C32.3789 23.1109 32.4335 23.1889 32.5027 23.2548C32.5717 23.3209 32.6528 23.3702 32.7458 23.4034C32.7837 23.4178 32.8224 23.4291 32.862 23.4374C32.9197 23.4496 32.9794 23.4554 33.0416 23.4554C33.1702 23.4554 33.2873 23.4291 33.3873 23.3796C33.4397 23.3541 33.4894 23.3237 33.5356 23.2886C33.5765 23.2573 33.6147 23.2224 33.6496 23.1842L33.8283 23.4526ZM34.3195 23.7545V21.6563H34.6962V23.2197L35.9216 21.6563H36.2985V23.7548H35.9216V22.1917L34.6962 23.7548L34.3195 23.7545ZM38.7947 23.4526C38.702 23.5694 38.5804 23.6596 38.4419 23.7147C38.3578 23.7487 38.2702 23.7733 38.181 23.788C38.1144 23.7988 38.0469 23.8043 37.9793 23.804C37.916 23.8049 37.853 23.8013 37.7906 23.793C37.6973 23.7808 37.6056 23.7587 37.5168 23.7266C37.4863 23.7155 37.4565 23.703 37.4273 23.6892C37.392 23.6723 37.3577 23.6535 37.3245 23.633C37.2653 23.5962 37.2098 23.5534 37.159 23.5049C37.0576 23.407 36.9781 23.2888 36.9255 23.158C36.8686 23.0149 36.8401 22.8619 36.8419 22.7078C36.8419 22.5548 36.8682 22.4131 36.923 22.2789C36.9757 22.1444 37.0518 22.0291 37.1471 21.9322C37.2426 21.8332 37.357 21.7579 37.4856 21.699C37.6215 21.6392 37.7687 21.6093 37.9171 21.6115C38.0157 21.6115 38.1099 21.6187 38.1997 21.6331L38.2524 21.6422C38.2723 21.6461 38.2921 21.6505 38.3116 21.6552L38.3463 21.6638L38.387 21.6752C38.53 21.7175 38.6515 21.7883 38.7518 21.8877L38.5776 22.1823C38.4936 22.106 38.3946 22.0481 38.2869 22.0122C38.2611 22.0039 38.2349 21.9964 38.2085 21.99C38.1904 21.9859 38.1721 21.9823 38.1537 21.979C38.1364 21.9759 38.119 21.9732 38.1016 21.9709L38.0631 21.9668C38.0321 21.964 38.001 21.9626 37.9699 21.9629C37.7805 21.9635 37.5985 22.0371 37.4619 22.1682C37.4441 22.1857 37.4274 22.2036 37.4116 22.2227C37.393 22.2451 37.3757 22.2689 37.3599 22.2936C37.3375 22.3287 37.3181 22.3655 37.3021 22.404C37.2932 22.4239 37.2855 22.4444 37.2787 22.4654C37.2708 22.4895 37.2643 22.5141 37.259 22.5393C37.248 22.5932 37.2426 22.65 37.2426 22.7103C37.2426 22.7648 37.2473 22.8165 37.2565 22.8655C37.2621 22.8945 37.2691 22.9222 37.2777 22.9491C37.2855 22.9734 37.2945 22.9966 37.3046 23.0191C37.3301 23.0772 37.3614 23.1297 37.3983 23.177C37.4199 23.2047 37.4435 23.2305 37.4689 23.2548C37.5381 23.3209 37.6194 23.3702 37.7123 23.4034C37.8052 23.4363 37.903 23.4554 38.0078 23.4554C38.0518 23.4554 38.0941 23.4524 38.1349 23.4463C38.2135 23.4349 38.2861 23.4122 38.3535 23.3796C38.4525 23.3317 38.5416 23.2653 38.6158 23.1842L38.7947 23.4526ZM38.9902 21.6563H40.9213V22.0291H40.1441V23.7545H39.7674V22.0291H38.9902V21.6563ZM43.0505 23.526C42.9456 23.62 42.8241 23.6887 42.681 23.7335C42.543 23.778 42.3991 23.801 42.2543 23.8018C42.1962 23.8027 42.1382 23.7996 42.0807 23.793C41.9798 23.7811 41.8805 23.7581 41.7846 23.7241C41.6438 23.6723 41.5248 23.599 41.427 23.5024C41.3271 23.4045 41.2491 23.2863 41.198 23.156C41.1456 23.0215 41.117 22.8708 41.117 22.7056C41.1156 22.5592 41.1406 22.4139 41.191 22.2767C41.2368 22.1475 41.309 22.0296 41.4029 21.93C41.4477 21.8838 41.4967 21.8417 41.5492 21.8047C41.6099 21.7618 41.6752 21.7255 41.7441 21.6965C41.8227 21.6638 41.9077 21.6397 41.9997 21.6254C42.0666 21.6148 42.137 21.6093 42.2113 21.6093C42.255 21.609 42.2986 21.6115 42.3416 21.6168C42.3806 21.6215 42.4193 21.6284 42.4575 21.6373C42.5042 21.6483 42.5502 21.6627 42.5952 21.6801C42.7121 21.7236 42.8192 21.79 42.9099 21.8758C42.9332 21.8982 42.955 21.9214 42.9756 21.946C42.9927 21.9662 43.0088 21.987 43.0241 22.0086C43.0474 22.0415 43.0687 22.0764 43.0876 22.1121C43.0992 22.1342 43.1098 22.1569 43.1197 22.1798C43.1412 22.2285 43.1584 22.2792 43.1711 22.332C43.1892 22.407 43.1984 22.4867 43.1984 22.5714C43.1984 22.6679 43.1913 22.7504 43.1746 22.8234H41.5438C41.5605 23.0218 41.6344 23.177 41.7701 23.288C41.9061 23.399 42.0778 23.4529 42.2852 23.4529C42.3558 23.4529 42.4235 23.4474 42.4876 23.4363C42.5488 23.4258 42.6071 23.4103 42.662 23.3895C42.7739 23.3469 42.8669 23.2952 42.9361 23.2338L43.0505 23.526ZM42.1945 21.9607C41.9991 21.9607 41.8441 22.0125 41.7273 22.1184C41.6118 22.2227 41.5382 22.3652 41.52 22.5194H42.8074C42.7977 22.345 42.7409 22.2083 42.6334 22.1093C42.6155 22.0927 42.5966 22.0778 42.5766 22.0642C42.5578 22.0512 42.538 22.0396 42.5173 22.0291C42.5017 22.021 42.4853 22.0138 42.4685 22.0072C42.3889 21.9762 42.2973 21.9607 42.1945 21.9607ZM43.7109 21.6563H44.0543L44.8697 22.6962L45.6421 21.6563H45.976V23.7548H45.5994V22.2247L44.8649 23.1984H44.8505L44.0878 22.2244V23.7545H43.7109V21.6563ZM46.8363 21.7197C46.8897 21.697 46.9448 21.6782 47.001 21.6635C47.1226 21.6306 47.2489 21.6118 47.3827 21.6118C47.5128 21.6118 47.6264 21.6259 47.7231 21.6541C47.7877 21.6729 47.8449 21.6981 47.8943 21.7294C47.9414 21.759 47.9816 21.7944 48.0145 21.8356C48.0676 21.9007 48.1088 21.9779 48.1384 22.067C48.1766 22.1818 48.1954 22.3163 48.1954 22.4701V23.7573H47.8428V23.4861C47.7807 23.5664 47.6949 23.6369 47.5874 23.6983C47.4803 23.7595 47.3395 23.7902 47.1631 23.7902C47.0353 23.7902 46.9239 23.7661 46.8289 23.718C46.8081 23.7075 46.7882 23.6958 46.769 23.6831C46.7559 23.6743 46.7432 23.6649 46.7309 23.6552C46.7172 23.6444 46.7039 23.6328 46.6911 23.6206C46.5719 23.5074 46.5122 23.3469 46.5122 23.1419C46.5111 23.0431 46.5322 22.9457 46.5743 22.8564C46.6136 22.775 46.6706 22.7034 46.7411 22.6469C46.8103 22.5902 46.8961 22.5476 46.9961 22.5194C47.0159 22.5138 47.036 22.5086 47.0562 22.5039L47.0866 22.4972L47.1208 22.4911C47.1827 22.4803 47.2468 22.4745 47.3135 22.4745C47.4048 22.4756 47.4957 22.485 47.5852 22.503C47.6777 22.5191 47.7656 22.5553 47.8428 22.6093C47.8428 22.5675 47.8418 22.5271 47.8399 22.4881L47.8362 22.4308C47.8337 22.3998 47.8303 22.3697 47.8261 22.3403C47.8142 22.2579 47.7926 22.1873 47.7592 22.1306C47.7435 22.104 47.7246 22.0794 47.7025 22.0578C47.6921 22.0476 47.6811 22.0379 47.6692 22.0291C47.6611 22.0232 47.6527 22.0174 47.6439 22.0122C47.6343 22.0064 47.6243 22.0011 47.6138 21.9961C47.5495 21.9632 47.4659 21.9463 47.3611 21.9463C47.2299 21.9463 47.1202 21.9607 47.0344 21.9914L46.9888 22.0083L46.9502 22.023L46.9049 22.0415C46.8622 22.0595 46.8196 22.0789 46.7768 22.0999L46.6768 21.8024C46.7279 21.7709 46.7813 21.7432 46.8363 21.7197ZM47.2945 23.4529C47.4327 23.4529 47.5449 23.425 47.6308 23.3635C47.7082 23.3121 47.7787 23.2509 47.8404 23.1818V22.9153C47.7988 22.8854 47.7544 22.8605 47.7072 22.8403C47.6808 22.829 47.6535 22.8193 47.6255 22.8113C47.6059 22.8057 47.586 22.8007 47.5657 22.7963C47.5424 22.7913 47.5187 22.7875 47.4943 22.7844C47.4524 22.7792 47.4088 22.7764 47.3637 22.7764C47.3064 22.7764 47.2518 22.7833 47.1967 22.7974C47.1695 22.8041 47.1429 22.8132 47.1174 22.8248C47.0946 22.8351 47.0725 22.8472 47.0515 22.8613C47.0109 22.8896 46.9752 22.925 46.9488 22.9698L46.9434 22.9795C46.9394 22.987 46.9358 22.9944 46.9326 23.0022C46.929 23.0108 46.926 23.0196 46.9233 23.0287C46.9209 23.037 46.9188 23.0456 46.917 23.0545C46.9127 23.0758 46.9106 23.0985 46.9106 23.1228C46.9106 23.2219 46.944 23.3021 47.0109 23.3633C47.0494 23.3973 47.0974 23.4219 47.1545 23.4366C47.1963 23.4474 47.2431 23.4529 47.2945 23.4529ZM51.7363 20.7372C51.6695 20.8243 51.5981 20.8833 51.5218 20.9184C51.4453 20.9538 51.362 20.9776 51.2714 20.9964C51.2034 21.0105 51.1323 21.0236 51.0577 21.0371L50.983 21.0509C50.8699 21.0717 50.7601 21.1074 50.6562 21.1569C50.6168 21.1738 50.579 21.1943 50.5435 21.2178C50.518 21.2347 50.4936 21.2529 50.4705 21.2729L50.4427 21.298L50.4259 21.3149L50.4083 21.3334C50.3954 21.3487 50.383 21.3642 50.3711 21.3799C50.3473 21.4112 50.3254 21.4436 50.3055 21.4773C50.2854 21.5114 50.2673 21.5468 50.2511 21.5836C50.2103 21.6752 50.1795 21.7723 50.1579 21.8736C50.1366 21.9751 50.1247 22.0739 50.1173 22.1704H50.127C50.1604 22.0952 50.208 22.0291 50.2652 21.9698C50.3238 21.9101 50.3903 21.8586 50.4631 21.8168C50.479 21.8077 50.495 21.7988 50.5114 21.7903C50.5298 21.7809 50.5484 21.772 50.5674 21.7637C50.6108 21.7446 50.6557 21.7286 50.7016 21.7156C50.7875 21.692 50.8756 21.6801 50.9662 21.6801C51.0548 21.679 51.1429 21.6887 51.2287 21.7089C51.2788 21.7208 51.328 21.7363 51.3762 21.7554C51.4947 21.8024 51.6014 21.8752 51.6887 21.9679C51.7758 22.0625 51.8425 22.174 51.8842 22.2955C51.9295 22.4231 51.9533 22.5667 51.9533 22.7244C51.9533 22.8708 51.9271 23.0097 51.8723 23.1394C51.8497 23.1953 51.8226 23.2487 51.7913 23.2991C51.7502 23.3655 51.7022 23.4263 51.6481 23.4814C51.5502 23.581 51.4334 23.6602 51.3048 23.7147C51.1714 23.7714 51.0235 23.8021 50.8637 23.8021C50.6897 23.8021 50.5347 23.7714 50.3964 23.7102C50.2582 23.6491 50.1411 23.5639 50.0435 23.4507C49.9457 23.3397 49.8721 23.2033 49.8193 23.0404C49.7669 22.8777 49.7408 22.6964 49.7408 22.4958C49.7408 22.3403 49.7502 22.1779 49.7694 22.008C49.7881 21.8415 49.8257 21.6779 49.8813 21.5199C49.9363 21.3642 50.0173 21.2228 50.12 21.098C50.2225 20.9729 50.3582 20.8741 50.5277 20.8008L50.5646 20.7848C50.5827 20.7773 50.601 20.7701 50.6194 20.7635C50.6529 20.7513 50.6866 20.7402 50.7208 20.7303C50.7413 20.7244 50.7619 20.7189 50.7827 20.7139C50.8087 20.7076 50.8349 20.702 50.8614 20.6973L50.9918 20.6749L51.0617 20.6627L51.1331 20.65C51.175 20.6428 51.2165 20.6331 51.2573 20.621C51.2894 20.6116 51.3211 20.6008 51.3524 20.5886C51.3697 20.582 51.3865 20.5734 51.4029 20.5637L51.4242 20.5499C51.4626 20.523 51.4983 20.487 51.5312 20.4425L51.7363 20.7372ZM50.1438 22.5667C50.1416 22.6912 50.1593 22.8154 50.1961 22.9344C50.2276 23.0351 50.2769 23.1292 50.3415 23.2127C50.4032 23.2874 50.4805 23.3478 50.5681 23.3895C50.6562 23.4319 50.7518 23.4532 50.8565 23.4532C50.9358 23.4532 51.0086 23.4424 51.0764 23.4205L51.101 23.4122C51.1143 23.4075 51.1274 23.4023 51.1404 23.3965C51.2229 23.3616 51.2974 23.3101 51.3597 23.2459C51.422 23.1815 51.4706 23.1051 51.5029 23.0215C51.5359 22.9369 51.5553 22.8447 51.5553 22.7435C51.5553 22.5384 51.498 22.3686 51.381 22.2321C51.3418 22.1868 51.297 22.1491 51.2463 22.119C51.2046 22.0941 51.159 22.0744 51.1093 22.0598C51.0394 22.0393 50.9617 22.0291 50.8756 22.0291C50.6977 22.0277 50.5245 22.0866 50.3845 22.1965C50.3225 22.2463 50.2701 22.3027 50.2295 22.3663C50.2154 22.3874 50.2027 22.4092 50.1915 22.4319C50.1825 22.4502 50.1743 22.4687 50.1673 22.4875C50.1576 22.5133 50.1497 22.5398 50.1438 22.5667ZM54.4663 21.6566H54.8431V23.7551H54.4663V21.6566ZM52.8736 21.6566H52.4968H52.4945V23.7573H53.1788C53.2131 23.7573 53.246 23.7562 53.2779 23.7542C53.2979 23.7531 53.3174 23.7515 53.3365 23.7495C53.3537 23.7479 53.3706 23.7459 53.387 23.7434C53.4652 23.7324 53.5353 23.7147 53.5984 23.6914C53.625 23.6815 53.6503 23.6709 53.6744 23.6596L53.7052 23.6441L53.7296 23.6311C53.7467 23.6211 53.7632 23.6106 53.7788 23.5996C53.7889 23.5926 53.7986 23.5854 53.808 23.5783C53.8195 23.5691 53.8306 23.5597 53.8412 23.55C53.8513 23.5409 53.861 23.5312 53.8701 23.5215C53.9369 23.4507 53.9872 23.3729 54.0158 23.2836C54.0341 23.2305 54.0467 23.1773 54.0537 23.1234C54.0587 23.086 54.061 23.0481 54.061 23.0097C54.061 22.9895 54.0604 22.9695 54.059 22.9496C54.0579 22.9322 54.0562 22.915 54.0541 22.8979C54.0475 22.8436 54.0361 22.7908 54.0205 22.7385C53.9942 22.6516 53.9488 22.5739 53.8845 22.5077C53.8202 22.4416 53.7344 22.3876 53.6271 22.3472C53.5196 22.3074 53.3862 22.2861 53.2218 22.2861H52.8736V21.6566ZM53.1478 23.4059H52.8736V22.6372V22.6322H53.1527C53.1878 22.6322 53.221 22.6333 53.2524 22.6358C53.3006 22.6397 53.3441 22.6466 53.3833 22.6563C53.4128 22.6635 53.4396 22.6726 53.4639 22.6832C53.4948 22.6967 53.5214 22.7128 53.5438 22.7316C53.5691 22.7537 53.5904 22.7789 53.6075 22.8077C53.6265 22.8392 53.6406 22.8749 53.6493 22.9145C53.6567 22.9474 53.6604 22.9831 53.6604 23.0215C53.6604 23.1466 53.6225 23.2407 53.546 23.3068C53.5126 23.3356 53.4685 23.3583 53.4136 23.3746C53.3428 23.3954 53.2539 23.4059 53.1478 23.4059ZM57.3347 23.4526C57.2441 23.5683 57.1249 23.6557 56.9818 23.7147C56.8349 23.7742 56.6779 23.8046 56.5193 23.804C56.3617 23.8062 56.205 23.78 56.0567 23.7266C55.9235 23.6781 55.8017 23.6026 55.6991 23.5049C55.6602 23.4673 55.6245 23.4266 55.5923 23.3835L55.5661 23.3467C55.5567 23.3328 55.5477 23.3187 55.539 23.3043L55.527 23.2841C55.5191 23.2706 55.5116 23.2567 55.5044 23.2426C55.4947 23.2241 55.4856 23.2053 55.477 23.1859L55.4654 23.158C55.4087 23.0149 55.3803 22.8619 55.3821 22.7078C55.3821 22.5548 55.4081 22.4131 55.463 22.2789C55.5155 22.1444 55.5917 22.0291 55.6872 21.9322C55.7826 21.8332 55.8969 21.7579 56.0258 21.699C56.1617 21.6392 56.3089 21.6093 56.4573 21.6115C56.6264 21.6115 56.784 21.6328 56.927 21.6752C57.0702 21.7175 57.1917 21.7883 57.2917 21.8877L57.1178 22.1823C57.0825 22.1502 57.0446 22.1215 57.0045 22.0963C56.9847 22.0838 56.9644 22.0722 56.9435 22.0614C56.9272 22.0531 56.9106 22.0454 56.8935 22.0379L56.8617 22.0249L56.8267 22.0122C56.7243 21.9792 56.6173 21.9626 56.5098 21.9629C56.4714 21.9629 56.4338 21.966 56.3967 21.9718C56.3418 21.9806 56.2883 21.9961 56.2354 22.0172C56.1487 22.052 56.0694 22.1035 56.002 22.1682C55.9799 22.1898 55.9593 22.2128 55.9403 22.2368L55.9237 22.2587C55.8911 22.3038 55.8637 22.3525 55.8421 22.404C55.8017 22.4956 55.7826 22.5971 55.7826 22.7103C55.7826 22.8256 55.8039 22.9294 55.8445 23.0191C55.885 23.1109 55.9399 23.1889 56.0091 23.2548C56.0781 23.3209 56.1592 23.3702 56.2522 23.4034C56.3454 23.4363 56.4431 23.4554 56.548 23.4554C56.6254 23.4554 56.6976 23.446 56.7653 23.4275C56.7823 23.4228 56.7991 23.4175 56.8155 23.4117C56.8424 23.4026 56.8684 23.3918 56.8937 23.3796C56.9927 23.3317 57.0818 23.2653 57.156 23.1842L57.3347 23.4526ZM57.5302 21.6563H59.4615V22.0291H58.684V23.7545H58.3074V22.0291H57.5302V21.6563ZM59.8714 21.6569H60.2483V21.9043C60.3197 21.819 60.4222 21.7513 60.5535 21.6945C60.6846 21.6378 60.8229 21.6096 60.9705 21.6096C60.9944 21.609 61.0182 21.6096 61.042 21.611C61.09 21.6137 61.1376 21.6198 61.1845 21.6292C61.2508 21.6425 61.3156 21.6627 61.3782 21.6896C61.4959 21.7388 61.6012 21.8138 61.6859 21.909C61.7723 22.0066 61.8387 22.1204 61.8815 22.2435C61.9035 22.3066 61.9204 22.3727 61.932 22.4422C61.9443 22.5158 61.9505 22.5927 61.9505 22.6729C61.9505 22.8306 61.9242 22.9795 61.8718 23.1181C61.8194 23.2573 61.7453 23.3752 61.6477 23.477C61.5483 23.5783 61.4302 23.659 61.2997 23.7149C61.1637 23.7714 61.0135 23.8018 60.8466 23.8018C60.7344 23.8018 60.6249 23.7902 60.52 23.7667C60.4151 23.7432 60.3245 23.7077 60.2483 23.6582V24.6883H59.8714V21.6569ZM60.8612 21.9607C60.7347 21.9607 60.618 21.9892 60.5106 22.0459C60.4035 22.1024 60.3151 22.1707 60.2486 22.2507V23.2905C60.3339 23.3478 60.4282 23.3909 60.5273 23.418C60.618 23.4416 60.7136 23.4532 60.8158 23.4532C60.9214 23.4551 61.0261 23.4349 61.1235 23.3943C61.2108 23.3586 61.2896 23.3046 61.3547 23.2363C61.4194 23.1671 61.4691 23.0852 61.5003 22.9958C61.5335 22.9015 61.5528 22.8002 61.5528 22.687C61.5528 22.6632 61.5521 22.6397 61.5506 22.6167L61.5474 22.5794L61.5443 22.5528L61.5402 22.5254L61.5353 22.4992L61.5287 22.4684C61.5227 22.4433 61.5157 22.4186 61.5074 22.3946C61.4788 22.3052 61.4335 22.2297 61.374 22.1635C61.3141 22.0977 61.2427 22.0481 61.157 22.0127C61.0686 21.9773 60.9707 21.9607 60.8612 21.9607ZM64.4634 21.6566H64.8403V23.7548H64.4634V21.6566ZM62.8686 21.6566H62.4917H62.4895V23.757H63.1736C63.3406 23.757 63.4788 23.7335 63.5934 23.6914C63.7078 23.6488 63.7984 23.5924 63.8651 23.5215C63.9319 23.4507 63.982 23.3729 64.0106 23.2833C64.0415 23.1939 64.0557 23.104 64.0557 23.0097C64.0557 22.9153 64.0415 22.8259 64.0152 22.7385C63.9892 22.6516 63.9438 22.5736 63.8795 22.5077C63.8151 22.4416 63.7294 22.3874 63.6219 22.3472C63.5145 22.3074 63.3811 22.2861 63.2165 22.2861H62.8686V21.6566ZM63.1454 23.4059H62.8711V22.6372V22.6322H63.1501C63.3312 22.6322 63.4624 22.6654 63.5412 22.7316C63.6174 22.7977 63.6578 22.894 63.6578 23.0215C63.6578 23.1466 63.6197 23.2407 63.5434 23.3065C63.4672 23.3729 63.3336 23.4059 63.1454 23.4059ZM66.6476 22.6679L67.4534 23.7548H66.991L66.3686 22.9059L65.7368 23.7548H65.2981L66.0991 22.6865L65.3457 21.6563H65.8084L66.383 22.4485L66.9669 21.6563H67.4058L66.6476 22.6679ZM33.5496 26.3479H32.3933V28.0975H32.0164V25.9993H33.9261V28.0975H33.5496V26.3479ZM36.0647 26.3715H35.3209L35.2969 26.7251C35.2804 26.9135 35.2602 27.0784 35.235 27.2206C35.2201 27.3045 35.2035 27.3806 35.1849 27.4489C35.1347 27.6329 35.0727 27.7743 35.0014 27.8734C34.93 27.9724 34.8463 28.0407 34.7508 28.074C34.6523 28.1096 34.5481 28.1271 34.4434 28.1257L34.4148 27.7624C34.4553 27.7646 34.5029 27.7555 34.5553 27.732C34.608 27.7084 34.6605 27.6564 34.7103 27.5789C34.7605 27.4984 34.8059 27.3853 34.8463 27.2392C34.8868 27.0906 34.9132 26.8975 34.9273 26.6542L34.9657 26.0012H36.4415V28.0997H36.0647V26.3715ZM37.1327 26.1429C37.2257 26.084 37.3354 26.0369 37.4571 26.004C37.5814 25.9697 37.7096 25.9523 37.8386 25.9523C38.1389 25.9523 38.3511 26.0273 38.4704 26.1761C38.5919 26.3247 38.6518 26.5369 38.6518 26.8103V28.0975H38.2987V27.8263C38.2366 27.9066 38.1508 27.9774 38.0437 28.0385C37.9362 28.1 37.7958 28.1307 37.6193 28.1307C37.4238 28.1307 37.2662 28.074 37.1473 27.9608C37.0818 27.8991 37.0345 27.823 37.0049 27.7331C36.9805 27.6586 36.9684 27.5751 36.9684 27.4824C36.9682 27.4674 36.9685 27.4525 36.9693 27.4376C36.9711 27.4046 36.9754 27.3723 36.9822 27.3404C36.9926 27.2909 37.0086 27.2428 37.0302 27.1968C37.0695 27.1155 37.1265 27.0438 37.1971 26.9874C37.2347 26.9564 37.2772 26.9298 37.3242 26.9074C37.3638 26.8886 37.4065 26.8728 37.4523 26.8598C37.5523 26.8313 37.6575 26.815 37.7694 26.815C37.8607 26.8161 37.9516 26.8255 38.0411 26.8432C38.0754 26.8493 38.109 26.8582 38.1417 26.8695C38.1973 26.8889 38.2501 26.9157 38.2987 26.9492C38.2987 26.8526 38.2939 26.7633 38.282 26.6805C38.2756 26.6368 38.2666 26.5964 38.2546 26.5596C38.2483 26.5408 38.2414 26.5228 38.2337 26.5059C38.228 26.4938 38.2219 26.4819 38.2154 26.4708C38.1819 26.4141 38.1344 26.367 38.0697 26.3363C38.0278 26.315 37.978 26.3004 37.9192 26.2929L37.8904 26.2898C37.8672 26.2879 37.8427 26.2868 37.817 26.2868C37.6861 26.2868 37.5761 26.3012 37.4903 26.3316C37.4654 26.3405 37.4405 26.3499 37.4156 26.3596C37.3549 26.3834 37.294 26.4099 37.233 26.4401L37.1327 26.1429ZM37.7529 27.7934C37.8394 27.7934 37.9156 27.7823 37.9815 27.7591C38.021 27.745 38.0569 27.7267 38.089 27.7035C38.1664 27.6523 38.237 27.5911 38.299 27.5219V27.2555C38.1678 27.1614 38.0079 27.1169 37.8221 27.1169C37.8004 27.1169 37.7787 27.1177 37.7571 27.1196C37.7228 27.123 37.6887 27.129 37.6553 27.1376C37.6002 27.152 37.5504 27.173 37.5099 27.2015C37.4693 27.2298 37.4334 27.2652 37.4073 27.31C37.3809 27.3548 37.369 27.4044 37.369 27.4633C37.369 27.5621 37.4025 27.6423 37.4693 27.7035C37.536 27.7627 37.6288 27.7934 37.7529 27.7934ZM39.0235 25.9993H40.9548V26.3717H40.1773V28.0975H39.8007V26.372H39.0235V25.9993ZM42.8846 28.0064C42.8315 28.0341 42.7749 28.0574 42.7144 28.0762C42.5714 28.121 42.4283 28.1448 42.2875 28.1448C42.1276 28.1467 41.9686 28.1204 41.818 28.0668C41.6773 28.015 41.5579 27.9417 41.4602 27.8451C41.3624 27.7486 41.2839 27.6329 41.2312 27.4987C41.1788 27.364 41.1502 27.2134 41.1502 27.0483C41.1489 26.9019 41.174 26.7566 41.2242 26.6191C41.2456 26.5591 41.2727 26.5015 41.3051 26.447C41.3422 26.3845 41.3862 26.3258 41.4364 26.2727C41.5331 26.1725 41.6492 26.0931 41.7776 26.0392C41.9133 25.9824 42.0682 25.952 42.2448 25.952C42.376 25.9512 42.5062 25.9752 42.6287 26.0228C42.7456 26.0663 42.8525 26.133 42.9431 26.2185C43.0329 26.3048 43.1043 26.4083 43.1531 26.5225C43.2056 26.6404 43.2319 26.7702 43.2319 26.9138C43.2319 27.0106 43.2245 27.0934 43.2081 27.1661H41.5772C41.594 27.3642 41.6676 27.52 41.8036 27.6307C41.9396 27.7414 42.1113 27.7956 42.3186 27.7956C42.457 27.7956 42.5833 27.7746 42.6952 27.7322C42.8074 27.6896 42.9004 27.6379 42.9696 27.5762L43.084 27.8686C43.0234 27.9229 42.9572 27.9688 42.8846 28.0064ZM42.2258 26.3009C42.0302 26.3009 41.8752 26.3529 41.7585 26.4589C41.6431 26.5629 41.5693 26.7054 41.5511 26.8598H42.8385C42.829 26.6852 42.7717 26.5485 42.6646 26.4495C42.5573 26.3529 42.4119 26.3009 42.2258 26.3009ZM43.8923 25.9993H43.4154L44.1949 27.0106L43.3797 28.0975H43.8421L44.6193 27.0109L43.8923 25.9993ZM45.0892 25.9993H44.7123V28.0975H45.0892V25.9993ZM45.6064 27.0106L46.4361 28.0975H45.9689L45.182 27.0106L45.9138 25.999H46.3814L45.6064 27.0106ZM48.5271 27.8686C48.4222 27.9627 48.3007 28.0313 48.1575 28.0762C48.0196 28.1204 47.8757 28.1437 47.7309 28.1448C47.5709 28.1467 47.4118 28.1204 47.2612 28.0668C47.1204 28.015 47.0014 27.9417 46.9036 27.8451C46.8058 27.7486 46.727 27.6329 46.6746 27.4987C46.6222 27.364 46.5937 27.2134 46.5937 27.0483C46.5921 26.9019 46.6172 26.7566 46.6675 26.6191C46.7133 26.4902 46.7857 26.372 46.8798 26.2727C46.9763 26.1725 47.0924 26.0931 47.2207 26.0392C47.3566 25.9824 47.5116 25.952 47.6878 25.952C47.8191 25.9512 47.9493 25.9752 48.0718 26.0228C48.1888 26.0663 48.2957 26.133 48.3865 26.2185C48.4761 26.3048 48.5474 26.4083 48.5962 26.5225C48.6489 26.6404 48.6749 26.7702 48.6749 26.9138C48.6749 27.0106 48.6679 27.0934 48.6512 27.1661H47.0203C47.0371 27.3642 47.1109 27.52 47.2467 27.6307C47.3827 27.7414 47.5543 27.7956 47.7617 27.7956C47.9001 27.7956 48.0264 27.7746 48.1386 27.7322C48.2505 27.6896 48.3435 27.6379 48.4126 27.5762L48.5271 27.8686ZM47.6692 26.3009C47.4737 26.3009 47.3186 26.3529 47.2017 26.4589C47.0862 26.5629 47.0124 26.7054 46.9942 26.8598H48.2818C48.2724 26.6852 48.2151 26.5485 48.1077 26.4495C48.0004 26.3529 47.8528 26.3009 47.6692 26.3009ZM49.9422 25.198C50.0028 25.2622 50.0901 25.2943 50.2035 25.2943C50.4133 25.2943 50.5302 25.1717 50.5469 24.9266H50.8997C50.8997 25.0207 50.883 25.1056 50.8496 25.1858C50.8164 25.2661 50.7685 25.3344 50.7091 25.3909C50.6824 25.4152 50.6539 25.4379 50.6233 25.4584C50.5829 25.4855 50.5386 25.5087 50.4898 25.5276C50.4412 25.5475 50.3896 25.5613 50.3344 25.5699C50.2921 25.5762 50.2477 25.5793 50.201 25.5793C50.1561 25.5793 50.1132 25.5768 50.0725 25.5718C50.0075 25.5638 49.9479 25.5494 49.8936 25.5276C49.8055 25.4924 49.729 25.4476 49.6695 25.3909C49.6336 25.3568 49.6027 25.3181 49.5771 25.2752C49.5604 25.2473 49.5458 25.2174 49.5335 25.1858C49.5162 25.1413 49.5035 25.0951 49.4956 25.0467C49.4893 25.0082 49.4859 24.9684 49.4859 24.9266H49.8412C49.8505 25.0464 49.8842 25.1369 49.9422 25.198ZM49.562 28.0975H49.1853V25.999H49.562V27.5621L50.7875 25.999H51.1644V28.0975H50.7875V26.5342L49.562 28.0975Z" fill="black"/>
</svg>
