<svg width="49" height="24" viewBox="0 0 49 24" fill="none" xmlns="http://www.w3.org/2000/svg">
<path d="M0 5.50635L2.96695 10.4849V13.5216L0.00347083 18.4904L0 5.50635Z" fill="#5B57A2"/>
<path d="M11.3921 8.67324L14.1722 7.07359L19.8619 7.0686L11.3921 11.9396V8.67324Z" fill="#D90751"/>
<path d="M11.3761 5.477L11.3919 12.0684L8.41797 10.353V0.5L11.3763 5.477H11.3761Z" fill="#FAB718"/>
<path d="M19.8617 7.0686L14.1718 7.07359L11.3761 5.477L8.41797 0.5L19.8615 7.0686H19.8617Z" fill="#ED6F26"/>
<path d="M11.3919 18.518V15.32L8.41797 13.6372L8.4196 23.5L11.3919 18.518Z" fill="#63B22F"/>
<path d="M14.1651 16.9329L2.96674 10.4849L0 5.50635L19.8497 16.9264L14.1649 16.9329H14.1651Z" fill="#1487C9"/>
<path d="M8.41992 23.5001L11.3918 18.5181L14.165 16.933L19.8496 16.9265L8.41992 23.5001Z" fill="#017F36"/>
<path d="M0.00341797 18.4903L8.44223 13.6373L5.60513 12.0032L2.96689 13.5216L0.00341797 18.4903Z" fill="#984995"/>
<path fill-rule="evenodd" clip-rule="evenodd" d="M32.4388 12.7819C34.3535 12.7819 35.7753 11.6798 35.7753 10.0091C35.7753 8.39188 34.7263 7.34202 32.9731 7.34202C32.164 7.34202 31.4964 7.60931 30.9935 8.07069C31.1136 7.11723 31.9725 6.42094 32.9182 6.42094C33.1365 6.42094 34.7796 6.41776 34.7796 6.41776L35.7088 4.74854C35.7088 4.74854 33.6459 4.79271 32.6869 4.79271C30.4958 4.82846 29.0158 6.69814 29.0158 8.96894C29.0158 11.6146 30.4592 12.7819 32.4388 12.7819ZM32.4505 8.82051C33.1614 8.82051 33.6542 9.25906 33.6542 10.0089C33.6542 10.6836 33.2163 11.2397 32.4505 11.2412C31.7179 11.2412 31.225 10.7259 31.225 10.0203C31.225 9.27029 31.7179 8.82051 32.4505 8.82051ZM43.1685 6.95775V12.5808H41.0297V8.63633H38.9703V12.5808H36.8314V6.95738L43.1685 6.95775ZM26.0153 11.0234C26.7697 10.9717 27.2748 10.6982 27.2748 10.6982L28.0663 12.073C27.5594 12.3787 26.7277 12.5775 26.1247 12.5984C23.9677 12.6357 22.4673 11.4035 22.4673 9.60833C22.4673 7.83579 24.0636 6.57423 26.1247 6.57423C26.9414 6.57423 27.6435 6.77994 28.1707 7.15503C28.0597 7.33959 27.9089 7.59527 27.7655 7.83991L27.536 8.2326L27.3271 8.59122C27.3271 8.59122 26.5676 8.21762 25.9934 8.21762C25.0571 8.21762 24.3753 8.72842 24.3753 9.61956C24.3753 10.5333 25.148 11.0475 26.0153 11.0234ZM24.3759 16.3651C24.3106 16.4434 24.2246 16.5025 24.1216 16.5424C24.0157 16.5828 23.9025 16.6034 23.7883 16.6028C23.6747 16.6043 23.5618 16.5866 23.4549 16.5504C23.3589 16.5177 23.2712 16.4666 23.1972 16.4005C23.1242 16.3342 23.0669 16.2543 23.029 16.1658C22.988 16.069 22.9675 15.9655 22.9688 15.8613C22.9688 15.7578 22.9878 15.6619 23.0271 15.5711C23.0649 15.4802 23.1199 15.4021 23.1886 15.3366C23.2198 15.3063 23.2538 15.2791 23.2903 15.2548L23.3127 15.2406C23.3361 15.2262 23.3605 15.2127 23.3858 15.2003L23.4131 15.1876L23.4327 15.1788C23.5272 15.1405 23.6303 15.1197 23.7436 15.1197C23.8656 15.1197 23.979 15.1341 24.0821 15.1627C24.1472 15.1807 24.206 15.2063 24.2586 15.2397C24.2895 15.2593 24.3182 15.2816 24.3449 15.3065L24.2195 15.5058C24.1588 15.4542 24.0875 15.415 24.0098 15.3907C23.936 15.3684 23.8589 15.3572 23.7814 15.3574C23.7127 15.3574 23.6474 15.3701 23.5839 15.3941C23.5214 15.4177 23.4642 15.4523 23.4155 15.4963C23.3657 15.5412 23.3265 15.5957 23.3003 15.6557C23.2712 15.7177 23.2574 15.7864 23.2574 15.8629C23.2574 15.941 23.2728 16.0112 23.302 16.0718C23.3314 16.134 23.3708 16.1868 23.4206 16.2313C23.4704 16.276 23.5288 16.3094 23.5958 16.3318C23.6231 16.3415 23.651 16.3492 23.6795 16.3548C23.7211 16.3631 23.7642 16.367 23.8089 16.367C23.9016 16.367 23.986 16.3492 24.058 16.3157C24.0958 16.2985 24.1316 16.2779 24.1649 16.2541C24.1944 16.233 24.2219 16.2094 24.2471 16.1836L24.3759 16.3651ZM24.7298 16.5693V15.15H25.0012V16.2075L25.8843 15.15H26.1558V16.5695H25.8843V15.5122L25.0012 16.5695L24.7298 16.5693ZM27.9546 16.3651C27.8878 16.4441 27.8001 16.5051 27.7003 16.5424C27.6397 16.5654 27.5766 16.5821 27.5123 16.592C27.4644 16.5993 27.4157 16.603 27.367 16.6028C27.3214 16.6034 27.276 16.601 27.231 16.5954C27.1638 16.5871 27.0977 16.5721 27.0337 16.5504C27.0118 16.5429 26.9903 16.5345 26.9692 16.5252C26.9438 16.5137 26.9191 16.501 26.8951 16.4872C26.8525 16.4623 26.8125 16.4333 26.7759 16.4005C26.7028 16.3342 26.6455 16.2543 26.6076 16.1658C26.5667 16.069 26.5461 15.9655 26.5474 15.8613C26.5474 15.7578 26.5664 15.6619 26.6058 15.5711C26.6438 15.4802 26.6987 15.4021 26.7673 15.3366C26.8361 15.2696 26.9186 15.2187 27.0113 15.1788C27.1092 15.1384 27.2153 15.1182 27.3222 15.1197C27.3932 15.1197 27.4611 15.1245 27.5258 15.1343L27.5638 15.1405C27.5781 15.1431 27.5924 15.1461 27.6064 15.1492L27.6315 15.1551L27.6608 15.1627C27.7638 15.1914 27.8514 15.2393 27.9237 15.3065L27.7981 15.5058C27.7376 15.4542 27.6663 15.415 27.5887 15.3907C27.5701 15.3851 27.5512 15.38 27.5322 15.3757C27.5191 15.3729 27.5059 15.3705 27.4927 15.3682C27.4802 15.3662 27.4677 15.3643 27.4551 15.3628L27.4274 15.36C27.4051 15.3581 27.3826 15.3572 27.3602 15.3574C27.2237 15.3578 27.0926 15.4075 26.9941 15.4963C26.9814 15.5081 26.9693 15.5202 26.958 15.5331C26.9445 15.5483 26.932 15.5644 26.9207 15.5811C26.9045 15.6048 26.8906 15.6297 26.879 15.6557C26.8726 15.6692 26.867 15.6831 26.8621 15.6973C26.8565 15.7136 26.8518 15.7302 26.848 15.7473C26.84 15.7838 26.8361 15.8221 26.8361 15.8629C26.8361 15.8998 26.8395 15.9348 26.8462 15.9679C26.8502 15.9876 26.8553 16.0063 26.8614 16.0245C26.867 16.0409 26.8735 16.0567 26.8808 16.0718C26.8992 16.1111 26.9218 16.1467 26.9484 16.1787C26.9639 16.1974 26.9809 16.2148 26.9992 16.2313C27.0491 16.276 27.1077 16.3094 27.1746 16.3318C27.2416 16.3541 27.3121 16.367 27.3875 16.367C27.4192 16.367 27.4497 16.3649 27.4791 16.3608C27.5358 16.3532 27.5881 16.3378 27.6366 16.3157C27.708 16.2833 27.7722 16.2384 27.8257 16.1836L27.9546 16.3651ZM28.0954 15.15H29.487V15.4021H28.9269V16.5693H28.6555V15.4021H28.0954V15.15ZM31.0212 16.4147C30.9457 16.4784 30.8581 16.5248 30.755 16.5551C30.6556 16.5852 30.5519 16.6008 30.4475 16.6013C30.4057 16.6019 30.3639 16.5998 30.3224 16.5954C30.2497 16.5873 30.1782 16.5718 30.1091 16.5487C30.0076 16.5137 29.9219 16.4641 29.8514 16.3988C29.7794 16.3326 29.7232 16.2526 29.6864 16.1645C29.6486 16.0735 29.628 15.9715 29.628 15.8598C29.627 15.7607 29.645 15.6625 29.6813 15.5696C29.7143 15.4822 29.7663 15.4025 29.834 15.3351C29.8663 15.3039 29.9016 15.2754 29.9394 15.2503C29.9832 15.2213 30.0302 15.1968 30.0799 15.1771C30.1365 15.1551 30.1978 15.1388 30.2641 15.129C30.3122 15.1219 30.363 15.1182 30.4165 15.1182C30.448 15.118 30.4794 15.1197 30.5104 15.1232C30.5385 15.1264 30.5665 15.1311 30.594 15.1371C30.6276 15.1446 30.6608 15.1543 30.6932 15.1661C30.7774 15.1955 30.8546 15.2404 30.92 15.2984C30.9367 15.3136 30.9525 15.3293 30.9673 15.346C30.9796 15.3596 30.9912 15.3737 31.0022 15.3883C31.019 15.4105 31.0344 15.4341 31.048 15.4583C31.0563 15.4732 31.064 15.4886 31.0711 15.5041C31.0866 15.5371 31.099 15.5713 31.1082 15.6071C31.1212 15.6578 31.1278 15.7117 31.1278 15.769C31.1278 15.8343 31.1227 15.8901 31.1107 15.9395H29.9355C29.9476 16.0737 30.0008 16.1787 30.0986 16.2538C30.1966 16.3288 30.3203 16.3653 30.4698 16.3653C30.5207 16.3653 30.5694 16.3616 30.6156 16.3541C30.6598 16.347 30.7017 16.3365 30.7413 16.3225C30.822 16.2936 30.889 16.2586 30.9388 16.2171L31.0212 16.4147ZM30.4045 15.3559C30.2636 15.3559 30.1519 15.3909 30.0678 15.4626C29.9846 15.5331 29.9315 15.6295 29.9184 15.7338H30.8461C30.8391 15.6159 30.7981 15.5234 30.7207 15.4564C30.7078 15.4452 30.6942 15.4351 30.6798 15.4259C30.6662 15.4171 30.652 15.4092 30.637 15.4021C30.6258 15.3967 30.614 15.3918 30.6018 15.3873C30.5445 15.3664 30.4785 15.3559 30.4045 15.3559ZM31.4972 15.15H31.7446L32.3322 15.8534L32.8887 15.15H33.1293V16.5695H32.8579V15.5345L32.3287 16.1931H32.3183L31.7687 15.5343V16.5693H31.4972V15.15ZM33.7493 15.1929C33.7878 15.1775 33.8274 15.1648 33.8679 15.1549C33.9555 15.1326 34.0466 15.1199 34.143 15.1199C34.2368 15.1199 34.3186 15.1294 34.3883 15.1485C34.4348 15.1612 34.476 15.1783 34.5116 15.1994C34.5456 15.2194 34.5745 15.2434 34.5982 15.2713C34.6365 15.3153 34.6662 15.3675 34.6876 15.4278C34.7151 15.5054 34.7286 15.5964 34.7286 15.7005V16.5712H34.4745V16.3878C34.4298 16.4421 34.368 16.4898 34.2905 16.5313C34.2133 16.5727 34.1119 16.5935 33.9847 16.5935C33.8926 16.5935 33.8124 16.5772 33.7439 16.5446C33.7289 16.5375 33.7146 16.5297 33.7007 16.521C33.6914 16.5151 33.6822 16.5087 33.6733 16.5021C33.6634 16.4948 33.6539 16.487 33.6446 16.4787C33.5588 16.4022 33.5157 16.2936 33.5157 16.1549C33.5149 16.0881 33.5302 16.0222 33.5605 15.9618C33.5888 15.9067 33.6298 15.8583 33.6807 15.8201C33.7305 15.7817 33.7923 15.7529 33.8644 15.7338C33.8787 15.7301 33.8931 15.7265 33.9077 15.7233L33.9296 15.7188L33.9542 15.7147C33.9989 15.7074 34.0451 15.7035 34.0931 15.7035C34.1589 15.7042 34.2244 15.7106 34.2889 15.7227C34.3556 15.7336 34.4189 15.7581 34.4745 15.7946C34.4745 15.7664 34.4738 15.739 34.4724 15.7126L34.4697 15.6739C34.4679 15.6529 34.4656 15.6325 34.4625 15.6127C34.4539 15.5569 34.4383 15.5092 34.4143 15.4708C34.4029 15.4528 34.3894 15.4362 34.3734 15.4216C34.366 15.4147 34.358 15.4081 34.3494 15.4021C34.3436 15.3982 34.3376 15.3943 34.3312 15.3907C34.3243 15.3868 34.3171 15.3832 34.3095 15.3798C34.2632 15.3576 34.203 15.3462 34.1274 15.3462C34.0329 15.3462 33.9538 15.3559 33.892 15.3767L33.8591 15.3881L33.8313 15.398L33.7987 15.4105C33.7679 15.4227 33.7372 15.4358 33.7064 15.45L33.6343 15.2488C33.6711 15.2275 33.7096 15.2088 33.7493 15.1929ZM34.0795 16.3653C34.179 16.3653 34.2599 16.3464 34.3218 16.3049C34.3775 16.27 34.4284 16.2287 34.4728 16.1819V16.0016C34.4428 15.9814 34.4108 15.9646 34.3768 15.9509C34.3578 15.9432 34.3381 15.9367 34.3179 15.9313C34.3039 15.9275 34.2895 15.9241 34.2748 15.9212C34.2581 15.9178 34.241 15.9152 34.2234 15.9131C34.1932 15.9095 34.1618 15.9077 34.1293 15.9077C34.088 15.9077 34.0486 15.9124 34.009 15.9219C33.9893 15.9264 33.9702 15.9326 33.9518 15.9404C33.9354 15.9474 33.9194 15.9556 33.9043 15.9651C33.8751 15.9842 33.8494 16.0082 33.8303 16.0385L33.8264 16.0451C33.8235 16.0501 33.821 16.0552 33.8187 16.0604C33.8161 16.0662 33.8139 16.0722 33.812 16.0784C33.8102 16.084 33.8087 16.0898 33.8074 16.0958C33.8043 16.1102 33.8028 16.1255 33.8028 16.142C33.8028 16.209 33.8268 16.2633 33.8751 16.3047C33.9028 16.3277 33.9374 16.3444 33.9786 16.3543C34.0087 16.3616 34.0424 16.3653 34.0795 16.3653ZM37.2801 14.5282C37.232 14.5872 37.1805 14.627 37.1256 14.6508C37.0705 14.6748 37.0105 14.6909 36.9452 14.7036C36.8961 14.7131 36.8449 14.7219 36.7911 14.7311L36.7373 14.7405C36.6559 14.7545 36.5767 14.7786 36.5018 14.8121C36.4734 14.8236 36.4462 14.8374 36.4206 14.8533C36.4022 14.8647 36.3847 14.8771 36.3681 14.8906L36.348 14.9076L36.3358 14.919L36.3232 14.9316C36.3139 14.9419 36.3049 14.9523 36.2964 14.963C36.2792 14.9842 36.2635 15.0061 36.2491 15.0289C36.2347 15.0519 36.2216 15.0759 36.2099 15.1008C36.1805 15.1627 36.1583 15.2284 36.1427 15.2969C36.1274 15.3656 36.1188 15.4324 36.1135 15.4978H36.1205C36.1445 15.4469 36.1788 15.4021 36.2201 15.3621C36.2623 15.3216 36.3102 15.2868 36.3627 15.2586C36.3741 15.2524 36.3857 15.2464 36.3975 15.2406C36.4107 15.2342 36.4242 15.2282 36.4378 15.2226C36.4691 15.2097 36.5014 15.1988 36.5345 15.1901C36.5964 15.1741 36.6599 15.1661 36.7252 15.1661C36.789 15.1653 36.8525 15.1719 36.9144 15.1856C36.9504 15.1936 36.9859 15.2041 37.0206 15.217C37.1061 15.2488 37.1829 15.2981 37.2458 15.3608C37.3086 15.4248 37.3567 15.5002 37.3867 15.5824C37.4194 15.6687 37.4365 15.7658 37.4365 15.8725C37.4365 15.9715 37.4176 16.0655 37.3781 16.1533C37.3619 16.1911 37.3423 16.2272 37.3198 16.2613C37.2902 16.3062 37.2556 16.3474 37.2166 16.3846C37.146 16.452 37.0619 16.5055 36.9692 16.5424C36.8731 16.5808 36.7665 16.6015 36.6514 16.6015C36.526 16.6015 36.4143 16.5808 36.3146 16.5394C36.215 16.498 36.1307 16.4404 36.0603 16.3638C35.9898 16.2888 35.9368 16.1965 35.8988 16.0862C35.861 15.9762 35.8422 15.8536 35.8422 15.7179C35.8422 15.6127 35.849 15.5028 35.8628 15.3879C35.8763 15.2752 35.9034 15.1646 35.9435 15.0577C35.983 14.9523 36.0415 14.8567 36.1154 14.7723C36.1893 14.6877 36.2871 14.6209 36.4092 14.5713L36.4358 14.5604C36.4489 14.5553 36.4621 14.5505 36.4753 14.546C36.4994 14.5377 36.5238 14.5303 36.5484 14.5235C36.5631 14.5196 36.578 14.5159 36.593 14.5125C36.6117 14.5082 36.6306 14.5044 36.6497 14.5013L36.7437 14.4861L36.794 14.4779L36.8455 14.4692C36.8757 14.4644 36.9056 14.4578 36.935 14.4496C36.9581 14.4432 36.9809 14.4359 37.0035 14.4277C37.0159 14.4232 37.0281 14.4174 37.0399 14.4108L37.0552 14.4015C37.0829 14.3833 37.1087 14.359 37.1324 14.3289L37.2801 14.5282ZM36.1326 15.7658C36.131 15.85 36.1437 15.9341 36.1703 16.0146C36.193 16.0827 36.2285 16.1463 36.275 16.2029C36.3195 16.2534 36.3752 16.2942 36.4383 16.3225C36.5018 16.3511 36.5707 16.3655 36.6462 16.3655C36.7033 16.3655 36.7557 16.3582 36.8046 16.3434L36.8223 16.3378C36.8319 16.3346 36.8414 16.3311 36.8508 16.3271C36.9102 16.3036 36.9639 16.2687 37.0088 16.2253C37.0536 16.1817 37.0887 16.13 37.1119 16.0735C37.1358 16.0162 37.1497 15.9539 37.1497 15.8854C37.1497 15.7467 37.1085 15.6318 37.0241 15.5395C36.9959 15.5088 36.9636 15.4834 36.927 15.463C36.897 15.4461 36.8641 15.4328 36.8283 15.4229C36.778 15.409 36.722 15.4021 36.6599 15.4021C36.5317 15.4012 36.4069 15.4411 36.306 15.5154C36.2614 15.5491 36.2236 15.5872 36.1944 15.6303C36.1842 15.6445 36.175 15.6593 36.167 15.6746C36.1605 15.687 36.1546 15.6995 36.1495 15.7123C36.1425 15.7297 36.1369 15.7476 36.1326 15.7658ZM39.2473 15.1502H39.5189V16.5697H39.2473V15.1502ZM38.0997 15.1502H37.8281H37.8265V16.5712H38.3196C38.3443 16.5712 38.368 16.5705 38.391 16.5692C38.4054 16.5684 38.4195 16.5673 38.4332 16.566C38.4456 16.5648 38.4578 16.5635 38.4696 16.5619C38.526 16.5544 38.5765 16.5424 38.622 16.5267C38.6411 16.5199 38.6593 16.5128 38.6767 16.5051L38.6989 16.4947L38.7165 16.4859C38.7288 16.4791 38.7407 16.472 38.752 16.4645C38.7592 16.4598 38.7662 16.455 38.773 16.4501C38.7813 16.4439 38.7892 16.4376 38.7969 16.431C38.8042 16.4248 38.8112 16.4183 38.8177 16.4117C38.8659 16.3638 38.9021 16.3112 38.9227 16.2508C38.9359 16.2148 38.945 16.1789 38.95 16.1424C38.9536 16.1171 38.9553 16.0915 38.9553 16.0655C38.9553 16.0518 38.9548 16.0383 38.9538 16.0248C38.953 16.0131 38.9518 16.0015 38.9503 15.9898C38.9456 15.9532 38.9374 15.9174 38.9261 15.882C38.9072 15.8233 38.8745 15.7707 38.8281 15.7259C38.7818 15.6812 38.72 15.6447 38.6426 15.6174C38.5651 15.5904 38.469 15.576 38.3506 15.576H38.0997V15.1502ZM38.2973 16.3335H38.0997V15.8135V15.8102H38.3008C38.3261 15.8102 38.35 15.8109 38.3726 15.8126C38.4073 15.8152 38.4387 15.8199 38.4669 15.8264C38.4882 15.8313 38.5075 15.8375 38.5251 15.8446C38.5473 15.8538 38.5664 15.8646 38.5826 15.8774C38.6008 15.8923 38.6162 15.9094 38.6285 15.9288C38.6422 15.9502 38.6524 15.9743 38.6586 16.0011C38.6639 16.0234 38.6666 16.0475 38.6666 16.0735C38.6666 16.1581 38.6393 16.2218 38.5842 16.2665C38.5601 16.286 38.5283 16.3013 38.4888 16.3123C38.4377 16.3264 38.3737 16.3335 38.2973 16.3335ZM41.3143 16.3651C41.249 16.4434 41.1631 16.5025 41.06 16.5424C40.9541 16.5826 40.841 16.6032 40.7267 16.6028C40.6132 16.6043 40.5002 16.5866 40.3934 16.5504C40.2974 16.5177 40.2096 16.4666 40.1357 16.4005C40.1076 16.3751 40.0819 16.3475 40.0587 16.3183L40.0399 16.2934C40.0331 16.2841 40.0266 16.2745 40.0203 16.2648L40.0116 16.2511C40.006 16.242 40.0006 16.2326 39.9954 16.2231C39.9884 16.2105 39.9818 16.1978 39.9757 16.1847L39.9673 16.1658C39.9264 16.069 39.906 15.9655 39.9073 15.8613C39.9073 15.7578 39.926 15.6619 39.9656 15.5711C40.0034 15.4802 40.0583 15.4021 40.1271 15.3366C40.1959 15.2696 40.2782 15.2187 40.3711 15.1788C40.469 15.1384 40.5751 15.1182 40.6821 15.1197C40.8039 15.1197 40.9174 15.1341 41.0205 15.1627C41.1237 15.1914 41.2112 15.2393 41.2833 15.3065L41.158 15.5058C41.1326 15.4841 41.1052 15.4646 41.0763 15.4476C41.0621 15.4392 41.0474 15.4313 41.0324 15.424C41.0206 15.4184 41.0086 15.4132 40.9964 15.4081L40.9735 15.3993L40.9482 15.3907C40.8745 15.3684 40.7973 15.3572 40.7198 15.3574C40.6922 15.3574 40.6651 15.3594 40.6384 15.3634C40.5988 15.3694 40.5602 15.3798 40.5222 15.3941C40.4597 15.4177 40.4025 15.4525 40.354 15.4963C40.338 15.5109 40.3232 15.5264 40.3095 15.5427L40.2976 15.5575C40.274 15.588 40.2543 15.6209 40.2387 15.6557C40.2096 15.7177 40.1959 15.7864 40.1959 15.8629C40.1959 15.941 40.2112 16.0112 40.2404 16.0718C40.2696 16.134 40.3092 16.1868 40.3591 16.2313C40.4088 16.276 40.4672 16.3094 40.5342 16.3318C40.6014 16.3541 40.6718 16.367 40.7474 16.367C40.8032 16.367 40.8552 16.3606 40.904 16.3481C40.9162 16.3449 40.9283 16.3414 40.9402 16.3374C40.9595 16.3313 40.9782 16.324 40.9965 16.3157C41.0679 16.2833 41.1321 16.2384 41.1855 16.1836L41.3143 16.3651ZM41.4552 15.15H42.8468V15.4021H42.2866V16.5693H42.0152V15.4021H41.4552V15.15ZM43.1422 15.1504H43.4138V15.3177C43.4652 15.2601 43.5391 15.2142 43.6337 15.1758C43.7282 15.1375 43.8278 15.1184 43.9342 15.1184C43.9514 15.118 43.9686 15.1184 43.9857 15.1193C44.0203 15.1212 44.0546 15.1253 44.0884 15.1317C44.1361 15.1406 44.1829 15.1543 44.228 15.1725C44.3128 15.2058 44.3887 15.2565 44.4497 15.3209C44.512 15.387 44.5598 15.4639 44.5906 15.5472C44.6065 15.5899 44.6186 15.6346 44.627 15.6816C44.6359 15.7314 44.6404 15.7834 44.6404 15.8377C44.6404 15.9444 44.6214 16.0451 44.5837 16.1388C44.5459 16.233 44.4925 16.3127 44.4222 16.3816C44.3506 16.4501 44.2654 16.5048 44.1714 16.5426C44.0734 16.5808 43.9652 16.6013 43.8449 16.6013C43.7641 16.6013 43.6851 16.5935 43.6096 16.5776C43.534 16.5617 43.4687 16.5377 43.4138 16.5042V17.2011H43.1422V15.1504ZM43.8554 15.3559C43.7643 15.3559 43.6802 15.3752 43.6028 15.4135C43.5256 15.4517 43.4619 15.498 43.414 15.552V16.2554C43.4755 16.2942 43.5434 16.3234 43.6149 16.3417C43.6802 16.3576 43.749 16.3655 43.8227 16.3655C43.8988 16.3668 43.9742 16.3532 44.0444 16.3256C44.1073 16.3015 44.1642 16.265 44.211 16.2188C44.2577 16.172 44.2935 16.1166 44.316 16.0561C44.3399 15.9923 44.3538 15.9238 44.3538 15.8472C44.3538 15.8311 44.3533 15.8152 44.3522 15.7997L44.3499 15.7744L44.3477 15.7564L44.3447 15.7379L44.3412 15.7201L44.3364 15.6994C44.3321 15.6823 44.3271 15.6657 44.3211 15.6494C44.3004 15.5889 44.2678 15.5378 44.225 15.4931C44.1818 15.4485 44.1304 15.415 44.0686 15.3911C44.0049 15.3671 43.9344 15.3559 43.8554 15.3559ZM46.4512 15.1502H46.7227V16.5695H46.4512V15.1502ZM45.3019 15.1502H45.0304H45.0288V16.571H45.5217C45.6421 16.571 45.7417 16.5551 45.8242 16.5267C45.9067 16.4978 45.9719 16.4597 46.02 16.4117C46.0681 16.3638 46.1042 16.3112 46.1249 16.2506C46.1471 16.1901 46.1574 16.1293 46.1574 16.0655C46.1574 16.0016 46.1471 15.9412 46.1282 15.882C46.1094 15.8233 46.0767 15.7705 46.0304 15.7259C45.984 15.6812 45.9222 15.6445 45.8447 15.6174C45.7674 15.5904 45.6713 15.576 45.5527 15.576H45.3019V15.1502ZM45.5014 16.3335H45.3037V15.8135V15.8102H45.5048C45.6353 15.8102 45.7298 15.8326 45.7866 15.8774C45.8416 15.9221 45.8707 15.9872 45.8707 16.0735C45.8707 16.1581 45.8431 16.2218 45.7882 16.2663C45.7333 16.3112 45.637 16.3335 45.5014 16.3335ZM48.0251 15.8343L48.6057 16.5695H48.2725L47.824 15.9953L47.3687 16.5695H47.0526L47.6298 15.8468L47.0869 15.15H47.4204L47.8344 15.6859L48.2552 15.15H48.5714L48.0251 15.8343ZM24.175 18.3237H23.3418V19.5072H23.0702V18.0879H24.4463V19.5072H24.175V18.3237ZM25.9874 18.3396H25.4514L25.4341 18.5788C25.4222 18.7063 25.4077 18.8179 25.3895 18.9141C25.3788 18.9708 25.3668 19.0223 25.3534 19.0685C25.3172 19.193 25.2726 19.2886 25.2211 19.3556C25.1697 19.4226 25.1094 19.4689 25.0406 19.4913C24.9696 19.5155 24.8946 19.5273 24.8191 19.5263L24.7985 19.2806C24.8277 19.2821 24.862 19.2759 24.8997 19.26C24.9377 19.2441 24.9755 19.2089 25.0114 19.1565C25.0476 19.102 25.0803 19.0254 25.1094 18.9266C25.1386 18.8261 25.1576 18.6955 25.1678 18.5309L25.1954 18.0892H26.2589V19.5087H25.9874V18.3396ZM26.757 18.185C26.824 18.1452 26.903 18.1133 26.9907 18.0911C27.0803 18.0679 27.1727 18.0561 27.2656 18.0561C27.482 18.0561 27.6349 18.1068 27.7209 18.2075C27.8084 18.308 27.8516 18.4516 27.8516 18.6365V19.5072H27.5972V19.3238C27.5524 19.3781 27.4906 19.426 27.4134 19.4674C27.336 19.5089 27.2348 19.5297 27.1076 19.5297C26.9667 19.5297 26.8532 19.4913 26.7674 19.4148C26.7203 19.373 26.6862 19.3215 26.6649 19.2607C26.6473 19.2104 26.6385 19.1538 26.6385 19.0911C26.6384 19.081 26.6386 19.0709 26.6392 19.0608C26.6405 19.0385 26.6436 19.0166 26.6485 18.9951C26.656 18.9616 26.6676 18.929 26.6831 18.898C26.7114 18.8429 26.7525 18.7945 26.8033 18.7563C26.8304 18.7353 26.8611 18.7174 26.8949 18.7022C26.9235 18.6895 26.9543 18.6788 26.9873 18.67C27.0593 18.6507 27.1351 18.6397 27.2158 18.6397C27.2815 18.6404 27.347 18.6468 27.4115 18.6588C27.4363 18.6629 27.4605 18.6689 27.484 18.6765C27.5241 18.6896 27.5622 18.7078 27.5972 18.7305C27.5972 18.6651 27.5937 18.6047 27.5851 18.5487C27.5805 18.5191 27.574 18.4918 27.5654 18.4669C27.5609 18.4542 27.5559 18.442 27.5503 18.4306C27.5462 18.4224 27.5418 18.4143 27.5372 18.4068C27.513 18.3685 27.4787 18.3366 27.4322 18.3159C27.402 18.3014 27.3661 18.2915 27.3237 18.2865L27.303 18.2844C27.2862 18.2831 27.2686 18.2824 27.25 18.2824C27.1557 18.2824 27.0765 18.2921 27.0147 18.3127C26.9967 18.3187 26.9788 18.325 26.9608 18.3316C26.9171 18.3477 26.8732 18.3657 26.8292 18.3861L26.757 18.185ZM27.2039 19.3015C27.2662 19.3015 27.3211 19.294 27.3686 19.2783C27.3971 19.2688 27.4229 19.2564 27.446 19.2407C27.5019 19.2061 27.5527 19.1647 27.5974 19.1179V18.9377C27.5029 18.874 27.3876 18.8439 27.2537 18.8439C27.2381 18.8439 27.2224 18.8444 27.2069 18.8458C27.1822 18.848 27.1576 18.8521 27.1335 18.8579C27.0938 18.8677 27.0579 18.8819 27.0287 18.9012C26.9995 18.9202 26.9736 18.9442 26.9549 18.9745C26.9358 19.0049 26.9272 19.0384 26.9272 19.0782C26.9272 19.145 26.9514 19.1993 26.9995 19.2407C27.0476 19.2807 27.1145 19.3015 27.2039 19.3015ZM28.1194 18.0879H29.5111V18.3398H28.9509V19.5072H28.6795V18.34H28.1194V18.0879ZM30.9017 19.4456C30.8634 19.4644 30.8227 19.4801 30.7791 19.4928C30.676 19.5231 30.5729 19.5392 30.4714 19.5392C30.3562 19.5405 30.2417 19.5228 30.1331 19.4865C30.0317 19.4514 29.9457 19.4018 29.8753 19.3365C29.8048 19.2712 29.7483 19.193 29.7103 19.1022C29.6725 19.011 29.6519 18.9092 29.6519 18.7975C29.651 18.6984 29.669 18.6002 29.7052 18.5072C29.7207 18.4665 29.7402 18.4276 29.7635 18.3907C29.7903 18.3484 29.822 18.3087 29.8582 18.2728C29.9278 18.2051 30.0115 18.1513 30.104 18.1148C30.2018 18.0765 30.3134 18.0559 30.4406 18.0559C30.5352 18.0553 30.6291 18.0716 30.7173 18.1038C30.8015 18.1332 30.8786 18.1783 30.9439 18.2361C31.0086 18.2945 31.06 18.3645 31.0952 18.4418C31.133 18.5216 31.1519 18.6094 31.1519 18.7065C31.1519 18.772 31.1467 18.828 31.1348 18.8772H29.9596C29.9717 19.0112 30.0247 19.1166 30.1227 19.1915C30.2207 19.2663 30.3444 19.303 30.4939 19.303C30.5936 19.303 30.6846 19.2888 30.7652 19.2602C30.8461 19.2313 30.9131 19.1963 30.9629 19.1546L31.0454 19.3524C31.0017 19.3891 30.9541 19.4202 30.9017 19.4456ZM30.427 18.2919C30.286 18.2919 30.1744 18.3271 30.0902 18.3988C30.0071 18.4692 29.954 18.5656 29.9408 18.67H30.8685C30.8616 18.5519 30.8204 18.4594 30.7432 18.3924C30.6658 18.3271 30.5611 18.2919 30.427 18.2919ZM31.6279 18.0879H31.2842L31.8459 18.772L31.2585 19.5072H31.5917L32.1517 18.7722L31.6279 18.0879ZM32.4903 18.0879H32.2187V19.5072H32.4903V18.0879ZM32.863 18.772L33.4609 19.5072H33.1242L32.5572 18.772L33.0845 18.0877H33.4215L32.863 18.772ZM34.9676 19.3524C34.892 19.4161 34.8045 19.4625 34.7013 19.4928C34.6019 19.5228 34.4983 19.5385 34.3939 19.5392C34.2786 19.5405 34.164 19.5228 34.0554 19.4865C33.9539 19.4514 33.8682 19.4018 33.7977 19.3365C33.7272 19.2712 33.6705 19.193 33.6327 19.1022C33.595 19.011 33.5744 18.9092 33.5744 18.7975C33.5733 18.6984 33.5914 18.6002 33.6277 18.5072C33.6607 18.4199 33.7128 18.34 33.7806 18.2728C33.8502 18.2051 33.9338 18.1513 34.0262 18.1148C34.1242 18.0765 34.2359 18.0559 34.3629 18.0559C34.4575 18.0553 34.5513 18.0716 34.6395 18.1038C34.7239 18.1332 34.8009 18.1783 34.8663 18.2361C34.9309 18.2945 34.9823 18.3645 35.0174 18.4418C35.0554 18.5216 35.0742 18.6094 35.0742 18.7065C35.0742 18.772 35.0691 18.828 35.057 18.8772H33.8819C33.8939 19.0112 33.9472 19.1166 34.045 19.1915C34.143 19.2663 34.2667 19.303 34.4161 19.303C34.5158 19.303 34.6068 19.2888 34.6877 19.2602C34.7683 19.2313 34.8353 19.1963 34.8852 19.1546L34.9676 19.3524ZM34.3494 18.2919C34.2086 18.2919 34.0968 18.3271 34.0126 18.3988C33.9293 18.4692 33.8762 18.5656 33.863 18.67H34.7908C34.7841 18.5519 34.7428 18.4594 34.6654 18.3924C34.5881 18.3271 34.4817 18.2919 34.3494 18.2919ZM35.9873 17.5458C36.031 17.5893 36.0939 17.611 36.1756 17.611C36.3268 17.611 36.411 17.528 36.4231 17.3622H36.6773C36.6773 17.4258 36.6652 17.4833 36.6412 17.5376C36.6173 17.5919 36.5828 17.6381 36.5399 17.6763C36.5207 17.6928 36.5001 17.7081 36.4781 17.722C36.449 17.7403 36.4171 17.756 36.3819 17.7688C36.3469 17.7822 36.3097 17.7916 36.27 17.7974C36.2394 17.8017 36.2074 17.8038 36.1739 17.8038C36.1415 17.8038 36.1105 17.8021 36.0812 17.7987C36.0344 17.7933 35.9914 17.7835 35.9523 17.7688C35.8888 17.745 35.8337 17.7147 35.7908 17.6763C35.7649 17.6533 35.7427 17.6271 35.7242 17.598C35.7122 17.5791 35.7017 17.5589 35.6928 17.5376C35.6804 17.5075 35.6712 17.4762 35.6655 17.4434C35.6609 17.4174 35.6586 17.3905 35.6586 17.3622H35.9146C35.9212 17.4433 35.9456 17.5045 35.9873 17.5458ZM35.7134 19.5072H35.4419V18.0877H35.7134V19.145L36.5964 18.0877H36.868V19.5072H36.5964V18.4497L35.7134 19.5072Z" fill="black"/>
</svg>
