<svg width="44" height="28" viewBox="0 0 44 28" fill="none" xmlns="http://www.w3.org/2000/svg">
<g clip-path="url(#clip0_85_255)">
<path d="M8.60087 0.500488H19.5628C21.093 0.500488 22.0447 1.72505 21.6878 3.2324L16.5842 24.7456C16.224 26.2477 14.692 27.4733 13.1607 27.4733H2.19983C0.671781 27.4733 -0.282082 26.2477 0.0748814 24.7456L5.18059 3.2324C5.53755 1.72505 7.06881 0.500488 8.60087 0.500488Z" fill="#E21836"/>
<path d="M18.651 0.500244H31.2569C32.7868 0.500244 32.097 1.7248 31.7371 3.23215L26.6343 24.7454C26.2763 26.2475 26.3879 27.4731 24.8548 27.4731H12.2489C10.7157 27.4731 9.76694 26.2475 10.1271 24.7454L15.2296 3.23215C15.5919 1.7248 17.12 0.500244 18.651 0.500244Z" fill="#00447C"/>
<path d="M30.7569 0.500244H41.7188C43.2512 0.500244 44.2029 1.7248 43.843 3.23215L38.7402 24.7454C38.38 26.2475 36.8469 27.4731 35.3149 27.4731H24.358C22.8249 27.4731 21.8739 26.2475 22.233 24.7454L27.3366 3.23215C27.6936 1.7248 29.2238 0.500244 30.7569 0.500244Z" fill="#007B84"/>
<path d="M11.4639 7.39467C10.3366 7.40595 10.0037 7.39467 9.89733 7.37002C9.85645 7.56073 9.09576 11.0059 9.09363 11.0088C8.92984 11.7058 8.81067 12.2027 8.40588 12.5235C8.1761 12.71 7.90784 12.8 7.59684 12.8C7.09693 12.8 6.80569 12.5563 6.7568 12.0941L6.74744 11.9354C6.74744 11.9354 6.89974 11.0017 6.89974 10.9965C6.89974 10.9965 7.6981 7.8569 7.84105 7.44189C7.84853 7.41828 7.85067 7.40595 7.85254 7.39467C6.29857 7.40805 6.0231 7.39467 6.00413 7.37002C5.99371 7.40386 5.95523 7.59851 5.95523 7.59851L5.14004 11.1371L5.07003 11.4372L4.93457 12.4188C4.93457 12.71 4.99282 12.9477 5.10878 13.1486C5.48017 13.7858 6.53957 13.8813 7.13888 13.8813C7.91105 13.8813 8.6354 13.7203 9.12489 13.4262C9.97455 12.9333 10.1968 12.1628 10.3951 11.4781L10.487 11.1269C10.487 11.1269 11.3094 7.86608 11.4492 7.44189C11.4545 7.41828 11.4566 7.40595 11.4639 7.39467ZM14.262 10.0252C14.0638 10.0252 13.7015 10.0724 13.376 10.229C13.2579 10.2885 13.1463 10.3573 13.0284 10.4257L13.1348 10.0488L13.0765 9.98529C12.3864 10.1225 12.2319 10.1409 11.5944 10.229L11.541 10.2639C11.467 10.8665 11.4013 11.3195 11.1269 12.5039C11.0224 12.9404 10.9139 13.3812 10.8052 13.8166L10.8345 13.872C11.4878 13.8381 11.6861 13.8381 12.2539 13.8473L12.2998 13.7983C12.372 13.4355 12.3813 13.3505 12.5411 12.6157C12.6162 12.2673 12.7727 11.5018 12.85 11.2293C12.9918 11.1647 13.1318 11.1012 13.2654 11.1012C13.5837 11.1012 13.5449 11.3738 13.5326 11.4824C13.519 11.6647 13.403 12.2602 13.2841 12.7715L13.2048 13.1015C13.1495 13.3452 13.0888 13.5821 13.0335 13.8237L13.0576 13.872C13.7015 13.8381 13.8979 13.8381 14.4477 13.8473L14.5124 13.7983C14.6118 13.2316 14.6409 13.08 14.8173 12.255L14.906 11.8759C15.0783 11.134 15.1649 10.7579 15.0345 10.4515C14.8966 10.1081 14.5658 10.0252 14.262 10.0252ZM17.3879 10.8019C17.0457 10.8664 16.8274 10.9095 16.6104 10.9373C16.3953 10.9711 16.1856 11.0018 15.8548 11.0469L15.8286 11.0703L15.8046 11.0889C15.7701 11.3308 15.7461 11.5398 15.7004 11.7856C15.6616 12.0398 15.602 12.3287 15.5051 12.7437C15.43 13.0614 15.3912 13.1721 15.3485 13.2838C15.3068 13.3956 15.2608 13.5042 15.1764 13.8166L15.1962 13.8455L15.2128 13.872C15.5219 13.8575 15.7242 13.8473 15.932 13.8455C16.1396 13.8381 16.3547 13.8455 16.6876 13.8473L16.7168 13.824L16.748 13.7982C16.7961 13.5165 16.8033 13.4407 16.8327 13.3032C16.8618 13.1558 16.9121 12.9517 17.0352 12.4066C17.0935 12.1505 17.1584 11.8953 17.2188 11.634C17.2816 11.3738 17.3473 11.1175 17.4098 10.8615L17.4005 10.8305L17.3879 10.8019ZM17.3952 9.75463C17.0842 9.57441 16.5384 9.63159 16.171 9.88055C15.8047 10.1245 15.763 10.4708 16.0729 10.6534C16.3786 10.8286 16.9266 10.7764 17.2908 10.5254C17.6563 10.2761 17.702 9.93301 17.3952 9.75463ZM19.2761 13.9284C19.9053 13.9284 20.5503 13.7582 21.0358 13.2529C21.4093 12.8432 21.5806 12.2335 21.6399 11.9825C21.8331 11.1504 21.6827 10.7618 21.4938 10.5252C21.2068 10.1645 20.6997 10.0488 20.1736 10.0488C19.8572 10.0488 19.1038 10.0795 18.5151 10.6123C18.0925 10.9966 17.8971 11.5181 17.7793 12.0181C17.6604 12.5276 17.5236 13.4447 18.3826 13.786C18.6477 13.8977 19.0298 13.9284 19.2761 13.9284ZM19.2269 12.0562C19.372 11.4261 19.5433 10.8972 19.9804 10.8972C20.3229 10.8972 20.3478 11.2907 20.1955 11.9229C20.1682 12.0633 20.0432 12.585 19.8741 12.8072C19.756 12.9712 19.6162 13.0706 19.4618 13.0706C19.4158 13.0706 19.1425 13.0706 19.1382 12.6721C19.1361 12.4754 19.177 12.2744 19.2269 12.0562ZM23.2129 13.8474L23.262 13.7983C23.3318 13.4355 23.3432 13.3503 23.4977 12.6158C23.5749 12.2674 23.7347 11.5019 23.8098 11.2293C23.9519 11.1645 24.0895 11.1011 24.2274 11.1011C24.5435 11.1011 24.505 11.3736 24.4924 11.4822C24.4809 11.6648 24.365 12.26 24.2439 12.7713L24.1689 13.1013C24.1114 13.3453 24.0489 13.5819 23.9936 13.8238L24.0176 13.8721C24.6637 13.8382 24.8526 13.8382 25.4057 13.8474L25.4725 13.7983C25.5695 13.2315 25.5956 13.0798 25.7773 12.2551L25.8639 11.8757C26.037 11.1339 26.1247 10.7579 25.9964 10.4515C25.8546 10.1081 25.5216 10.0252 25.2221 10.0252C25.0236 10.0252 24.6594 10.0722 24.3359 10.2291C24.2202 10.2886 24.1042 10.3571 23.9904 10.4258L24.0895 10.0489L24.0363 9.98511C23.3465 10.1226 23.1888 10.1409 22.5521 10.2291L22.5032 10.264C22.426 10.8665 22.3632 11.3193 22.0888 12.504C21.9843 12.9405 21.8758 13.3812 21.7674 13.8167L21.7965 13.8721C22.4508 13.8382 22.6462 13.8382 23.2129 13.8474ZM27.9596 13.8719C28.0002 13.6773 28.2415 12.5236 28.2436 12.5236C28.2436 12.5236 28.4491 11.677 28.4616 11.6463C28.4616 11.6463 28.5263 11.5582 28.591 11.5233H28.6861C29.5836 11.5233 30.597 11.5233 31.3914 10.9496C31.9319 10.5561 32.3014 9.97501 32.4663 9.26882C32.509 9.09568 32.5405 8.88975 32.5405 8.68382C32.5405 8.41336 32.4852 8.14578 32.3255 7.9367C31.9204 7.3803 31.1138 7.37007 30.1826 7.36587C30.1797 7.36587 29.7236 7.37007 29.7236 7.37007C28.5316 7.3845 28.0536 7.3803 27.8573 7.35669C27.8407 7.44195 27.8094 7.59357 27.8094 7.59357C27.8094 7.59357 27.3825 9.53639 27.3825 9.53954C27.3825 9.53954 26.3607 13.6702 26.3126 13.8648C27.3533 13.8525 27.78 13.8525 27.9596 13.8719ZM28.7507 10.4207C28.7507 10.4207 29.2047 8.48182 29.2026 8.48917L29.2173 8.38975L29.2237 8.31393L29.4051 8.3323C29.4051 8.3323 30.3413 8.41126 30.3632 8.41336C30.7327 8.5537 30.885 8.91546 30.7787 9.38765C30.6817 9.81919 30.3966 10.182 30.0303 10.3572C29.7287 10.5057 29.3591 10.518 28.9784 10.518H28.732L28.7507 10.4207ZM31.5772 12.0921C31.4572 12.5942 31.3193 13.5113 32.1741 13.8382C32.4466 13.952 32.6908 13.9859 32.939 13.9735C33.2011 13.9596 33.444 13.8306 33.669 13.6448C33.6487 13.7212 33.6284 13.7975 33.6081 13.8741L33.6468 13.9232C34.2616 13.8977 34.4524 13.8977 35.1185 13.9027L35.1789 13.8576C35.2761 13.2962 35.3678 12.7511 35.6205 11.6771C35.7437 11.1627 35.8666 10.6532 35.993 10.1409L35.9732 10.0845C35.2855 10.2096 35.1017 10.2364 34.4401 10.3284L34.3899 10.3686C34.3832 10.4208 34.3762 10.4709 34.3698 10.521C34.267 10.3578 34.1179 10.2185 33.8878 10.1317C33.5936 10.0181 32.9027 10.1645 32.3087 10.6954C31.8914 11.0745 31.691 11.5939 31.5772 12.0921ZM33.0216 12.1228C33.1688 11.504 33.3379 10.9803 33.7761 10.9803C34.0532 10.9803 34.1991 11.2314 34.1694 11.6595C34.1459 11.7663 34.1205 11.8788 34.0903 12.0061C34.0465 12.1899 33.999 12.3723 33.9527 12.5548C33.9057 12.6797 33.8509 12.7975 33.7908 12.8759C33.6781 13.0328 33.4098 13.1301 33.2554 13.1301C33.2116 13.1301 32.9412 13.1301 32.9318 12.7387C32.9297 12.5438 32.9706 12.3431 33.0216 12.1228ZM40.5645 10.0795L40.5113 10.0199C39.8308 10.1553 39.7076 10.1768 39.0824 10.2597L39.0364 10.3048C39.0343 10.3122 39.0324 10.3234 39.0292 10.3337L39.0271 10.3234C38.5616 11.3777 38.5752 11.1503 38.1964 11.9803C38.1942 11.9425 38.1942 11.9189 38.1921 11.8788L38.0972 10.0795L38.0377 10.0199C37.3248 10.1553 37.308 10.1768 36.6496 10.2597L36.5983 10.3048C36.5911 10.3263 36.5911 10.3499 36.5868 10.3756L36.5911 10.3848C36.6734 10.7977 36.6536 10.7057 36.7362 11.3573C36.7747 11.6771 36.826 11.9987 36.8644 12.3145C36.9294 12.8431 36.9657 13.1034 37.045 13.91C36.6004 14.6304 36.4952 14.9029 36.0671 15.5352L36.0701 15.5415L35.7687 16.0095C35.7342 16.0588 35.703 16.0926 35.6591 16.107C35.611 16.1304 35.5485 16.1346 35.4617 16.1346H35.2947L35.0465 16.9452L35.898 16.9596C36.3979 16.9575 36.7121 16.728 36.8813 16.4195L37.4167 15.5186H37.4082L37.4645 15.4551C37.8247 14.6939 40.5645 10.0795 40.5645 10.0795ZM31.5771 20.7255H31.2159L32.5529 16.3837H32.9964L33.1373 15.9364L33.1509 16.4338C33.1343 16.7412 33.3807 17.0138 34.0278 16.9687H34.7762L35.0338 16.1326H34.7521C34.5902 16.1326 34.5151 16.0925 34.5245 16.0064L34.5109 15.5004H33.125V15.503C32.6769 15.5122 31.3388 15.5453 31.0679 15.6161C30.74 15.699 30.3946 15.943 30.3946 15.943L30.5303 15.4952H29.2339L28.9638 16.3837L27.6089 20.7919H27.3459L27.0881 21.6219H29.6702L29.5836 21.8986H30.856L30.9404 21.6219H31.2974L31.5771 20.7255ZM30.5177 17.2659C30.3101 17.3223 29.9238 17.4933 29.9238 17.4933L30.2674 16.3837H31.2974L31.0489 17.1922C31.0489 17.1922 30.7307 17.2105 30.5177 17.2659ZM30.5375 18.8511C30.5375 18.8511 30.2139 18.891 30.001 18.9382C29.7913 19.0007 29.398 19.1974 29.398 19.1974L29.7528 18.0426H30.7881L30.5375 18.8511ZM29.9604 20.7357H28.9272L29.2267 19.7612H30.2567L29.9604 20.7357ZM32.4486 18.0426H33.9379L33.7239 18.7231H32.2148L31.9882 19.4671H33.3087L32.3089 20.8493C32.2389 20.9508 32.1761 20.9868 32.1063 21.0154C32.0363 21.0503 31.9444 21.0912 31.8381 21.0912H31.4718L31.2201 21.906H32.1782C32.6763 21.906 32.9704 21.6835 33.1876 21.3916L33.8733 20.4703L34.0205 21.4057C34.0517 21.581 34.18 21.6835 34.2668 21.7234C34.3627 21.7706 34.4619 21.8517 34.6019 21.8638C34.752 21.87 34.8605 21.875 34.9327 21.875H35.4034L35.6861 20.9632H35.5004C35.3938 20.9632 35.2103 20.9456 35.179 20.9128C35.1477 20.8729 35.1477 20.8115 35.1309 20.7182L34.9816 19.7806H34.37L34.6382 19.4671H36.1444L36.376 18.7231H34.9816L35.1988 18.0426H36.589L36.8468 17.2035H32.7022L32.4486 18.0426ZM19.8699 20.9252L20.2175 19.7898H21.6461L21.9072 18.9454H20.4772L20.6955 18.2466H22.0929L22.3518 17.4289H18.8553L18.6018 18.2466H19.3961L19.1842 18.9454H18.3878L18.1238 19.8043H18.9179L18.4546 21.3064C18.392 21.5052 18.4839 21.581 18.5422 21.6734C18.6018 21.7634 18.6622 21.8229 18.7979 21.8567C18.9379 21.8874 19.0338 21.9058 19.1642 21.9058H20.7748L21.0618 20.9703L20.3478 21.0666C20.21 21.0666 19.8282 21.0503 19.8699 20.9252ZM20.0337 15.49L19.6717 16.1325C19.5942 16.2728 19.5245 16.3599 19.4617 16.4001C19.4064 16.4339 19.2968 16.4481 19.1381 16.4481H18.9492L18.6967 17.27H19.3241C19.6257 17.27 19.8574 17.1613 19.968 17.107C20.0869 17.0446 20.1181 17.0803 20.2101 16.9932L20.4219 16.813H22.381L22.6409 15.9572H21.2069L21.4573 15.49H20.0337ZM22.9259 20.9417C22.8925 20.8945 22.9165 20.8113 22.9676 20.6382L23.503 18.8982H25.4078C25.6854 18.8942 25.8858 18.8911 26.0162 18.8819C26.1562 18.8675 26.3085 18.8184 26.4744 18.7303C26.6457 18.6379 26.7333 18.5406 26.8073 18.4288C26.8899 18.3174 27.0224 18.0734 27.1362 17.6972L27.8093 15.4952L25.8326 15.5065C25.8326 15.5065 25.224 15.5946 24.956 15.692C24.6856 15.8006 24.2992 16.1038 24.2992 16.1038L24.4777 15.5002H23.2566L21.5472 21.0666C21.4865 21.2827 21.4459 21.4396 21.4366 21.5338C21.4334 21.6353 21.5669 21.7358 21.6535 21.8116C21.7559 21.8874 21.9071 21.8751 22.0522 21.8874C22.2047 21.8987 22.4217 21.9058 22.7212 21.9058H23.6596L23.9476 20.9509L23.1076 21.0288C23.0178 21.0288 22.9529 20.9816 22.9259 20.9417ZM23.8485 17.7229H25.8492L25.722 18.1143C25.7041 18.1235 25.6613 18.0949 25.4578 18.1185H23.7253L23.8485 17.7229ZM24.2493 16.4102H26.2668L26.1217 16.8816C26.1217 16.8816 25.1708 16.8724 25.0185 16.9C24.3484 17.0138 23.957 17.3654 23.957 17.3654L24.2493 16.4102ZM25.7668 19.425C25.7502 19.4835 25.724 19.5192 25.6874 19.5459C25.6468 19.5716 25.5811 19.5808 25.483 19.5808H25.1979L25.2148 19.1042H24.029L23.9809 21.4344C23.979 21.6026 23.9956 21.6999 24.1209 21.7778C24.2462 21.8752 24.6323 21.8875 25.152 21.8875H25.895L26.1633 21.0152L25.5164 21.0501L25.3013 21.0625C25.2719 21.0501 25.2439 21.0389 25.2126 21.0082C25.1854 20.9817 25.1394 20.9979 25.1469 20.8298L25.152 20.2325L25.8304 20.2049C26.1967 20.2049 26.3533 20.0879 26.4869 19.9764C26.6143 19.8696 26.656 19.7469 26.7041 19.5808L26.8179 19.052H25.8857L25.7668 19.425Z" fill="#FEFEFE"/>
</g>
<defs>
<clipPath id="clip0_85_255">
<rect width="44" height="27" fill="white" transform="translate(0 0.5)"/>
</clipPath>
</defs>
</svg>
