<svg width="32" height="20" viewBox="0 0 32 20" fill="none" xmlns="http://www.w3.org/2000/svg">
<g clip-path="url(#clip0_103_423)">
<path d="M6.25518 0.000488281H14.2275C15.3404 0.000488281 16.0325 0.907569 15.7729 2.02413L12.0612 17.9598C11.7993 19.0725 10.6851 19.9804 9.57142 19.9804H1.59988C0.488568 19.9804 -0.205151 19.0725 0.0544592 17.9598L3.7677 2.02413C4.02731 0.907569 5.14095 0.000488281 6.25518 0.000488281Z" fill="#E21836"/>
<path d="M13.5642 0.000244141H22.7322C23.8449 0.000244141 23.3431 0.907325 23.0814 2.02388L19.3703 17.9596C19.1099 19.0723 19.1911 19.9801 18.0761 19.9801H8.90817C7.79317 19.9801 7.10314 19.0723 7.36508 17.9596L11.076 2.02388C11.3395 0.907325 12.4508 0.000244141 13.5642 0.000244141Z" fill="#00447C"/>
<path d="M22.3686 0.000244141H30.3409C31.4553 0.000244141 32.1475 0.907325 31.8857 2.02388L28.1746 17.9596C27.9127 19.0723 26.7977 19.9801 25.6834 19.9801H17.7148C16.5998 19.9801 15.9082 19.0723 16.1694 17.9596L19.8811 2.02388C20.1407 0.907325 21.2536 0.000244141 22.3686 0.000244141Z" fill="#007B84"/>
<path d="M8.33695 5.10699C7.51712 5.11535 7.275 5.10699 7.19766 5.08873C7.16793 5.23 6.6147 7.78199 6.61315 7.78413C6.49403 8.30043 6.40736 8.66847 6.11297 8.90612C5.94586 9.04428 5.75076 9.11094 5.52457 9.11094C5.161 9.11094 4.94919 8.93041 4.91363 8.58802L4.90683 8.47046C4.90683 8.47046 5.01759 7.77888 5.01759 7.77499C5.01759 7.77499 5.59822 5.44938 5.70218 5.14197C5.70762 5.12448 5.70918 5.11535 5.71054 5.10699C4.58038 5.1169 4.38003 5.10699 4.36624 5.08873C4.35866 5.1138 4.33068 5.25798 4.33068 5.25798L3.73781 7.87915L3.6869 8.10145L3.58838 8.82859C3.58838 9.04428 3.63074 9.22034 3.71507 9.36919C3.98518 9.84119 4.75565 9.91192 5.19151 9.91192C5.75309 9.91192 6.27989 9.79261 6.63588 9.57478C7.25382 9.20965 7.41549 8.63894 7.55967 8.13176L7.62652 7.87157C7.62652 7.87157 8.22463 5.45619 8.32626 5.14197C8.33015 5.12448 8.3317 5.11535 8.33695 5.10699ZM10.372 7.05551C10.2278 7.05551 9.96431 7.09049 9.72763 7.20649C9.64174 7.2506 9.56052 7.30152 9.47482 7.35223L9.55216 7.073L9.5098 7.02597C9.00788 7.1276 8.89556 7.1412 8.43191 7.20649L8.39305 7.23234C8.33922 7.67869 8.29142 8.01428 8.09186 8.89163C8.01588 9.21497 7.93698 9.54143 7.8579 9.864L7.87927 9.905C8.35438 9.87993 8.49857 9.87993 8.91149 9.88673L8.94492 9.8504C8.99738 9.58165 9.00418 9.51869 9.12039 8.97441C9.17499 8.71635 9.28886 8.14933 9.34502 7.94743C9.4482 7.89963 9.55003 7.8526 9.64718 7.8526C9.87862 7.8526 9.85044 8.0545 9.8415 8.13495C9.83159 8.27 9.74726 8.71111 9.66079 9.08983L9.60307 9.33429C9.56285 9.51481 9.51874 9.69028 9.47852 9.86925L9.496 9.905C9.96431 9.87993 10.1071 9.87993 10.507 9.88673L10.5541 9.8504C10.6264 9.43067 10.6475 9.31835 10.7758 8.70722L10.8403 8.42643C10.9656 7.87689 11.0286 7.59824 10.9338 7.37128C10.8335 7.11691 10.5929 7.05551 10.372 7.05551ZM12.6454 7.63087C12.3964 7.67867 12.2377 7.71054 12.0799 7.73114C11.9235 7.7562 11.7709 7.77894 11.5304 7.81236L11.5113 7.82966L11.4938 7.84345C11.4688 8.02261 11.4513 8.17749 11.4181 8.35956C11.3899 8.54786 11.3465 8.7618 11.276 9.06922C11.2214 9.30454 11.1932 9.38654 11.1621 9.46932C11.1318 9.5521 11.0984 9.63255 11.037 9.86398L11.0514 9.88536L11.0634 9.90498C11.2882 9.89429 11.4353 9.88672 11.5865 9.88536C11.7375 9.87991 11.8939 9.88535 12.1361 9.88672L12.1572 9.86942L12.18 9.85038C12.215 9.64168 12.2202 9.58552 12.2416 9.4837C12.2628 9.37449 12.2993 9.22331 12.3889 8.81952C12.4312 8.62986 12.4784 8.44079 12.5224 8.24725C12.568 8.05448 12.6158 7.86463 12.6613 7.67498L12.6545 7.65205L12.6454 7.63087ZM12.6507 6.85511C12.4245 6.72161 12.0275 6.76397 11.7603 6.94838C11.4939 7.1291 11.4636 7.3856 11.689 7.52084C11.9113 7.65065 12.3098 7.61198 12.5747 7.42602C12.8405 7.24141 12.8738 6.98724 12.6507 6.85511ZM14.0186 9.94682C14.4762 9.94682 14.9453 9.8207 15.2984 9.44645C15.57 9.14292 15.6946 8.69132 15.7377 8.50536C15.8782 7.88898 15.7688 7.60119 15.6314 7.42592C15.4227 7.15873 15.0539 7.07304 14.6713 7.07304C14.4412 7.07304 13.8932 7.09577 13.4652 7.49043C13.1577 7.77511 13.0157 8.16142 12.93 8.53179C12.8435 8.90915 12.744 9.58849 13.3688 9.8413C13.5615 9.92408 13.8394 9.94682 14.0186 9.94682ZM13.9828 8.55996C14.0883 8.09321 14.2129 7.70146 14.5308 7.70146C14.7799 7.70146 14.798 7.99294 14.6872 8.46125C14.6674 8.56521 14.5765 8.95171 14.4535 9.1163C14.3676 9.23775 14.266 9.3114 14.1536 9.3114C14.1202 9.3114 13.9214 9.3114 13.9183 9.01623C13.9168 8.87049 13.9465 8.72164 13.9828 8.55996ZM16.8817 9.88679L16.9174 9.85046C16.9682 9.58171 16.9765 9.51856 17.0888 8.97447C17.145 8.71641 17.2612 8.14939 17.3158 7.94749C17.4192 7.89949 17.5192 7.85247 17.6195 7.85247C17.8494 7.85247 17.8214 8.05437 17.8123 8.13481C17.8039 8.27006 17.7196 8.71097 17.6316 9.0897L17.577 9.33415C17.5352 9.51487 17.4897 9.69014 17.4495 9.8693L17.467 9.90506C17.9368 9.87999 18.0742 9.87999 18.4765 9.88679L18.525 9.85046C18.5956 9.43053 18.6146 9.31822 18.7468 8.70728L18.8097 8.42629C18.9356 7.87676 18.9994 7.5983 18.9061 7.37133C18.8029 7.11697 18.5608 7.05557 18.343 7.05557C18.1986 7.05557 17.9337 7.09035 17.6984 7.20655C17.6143 7.25066 17.5299 7.30138 17.4471 7.35229L17.5192 7.07306L17.4806 7.02584C16.9788 7.12766 16.8642 7.14126 16.4011 7.20655L16.3656 7.2324C16.3094 7.67875 16.2637 8.01414 16.0642 8.89169C15.9882 9.21503 15.9093 9.54149 15.8304 9.86406L15.8516 9.90506C16.3275 9.87999 16.4695 9.87999 16.8817 9.88679ZM20.3339 9.90496C20.3634 9.76078 20.5389 8.90616 20.5404 8.90616C20.5404 8.90616 20.6898 8.2791 20.699 8.25636C20.699 8.25636 20.746 8.19107 20.793 8.16522H20.8622C21.5149 8.16522 22.252 8.16522 22.8297 7.74025C23.2228 7.44877 23.4915 7.01835 23.6114 6.49525C23.6425 6.367 23.6654 6.21446 23.6654 6.06192C23.6654 5.86157 23.6252 5.66337 23.509 5.5085C23.2144 5.09635 22.6278 5.08877 21.9506 5.08566C21.9484 5.08566 21.6167 5.08877 21.6167 5.08877C20.7499 5.09946 20.4023 5.09635 20.2594 5.07886C20.2474 5.14201 20.2246 5.25433 20.2246 5.25433C20.2246 5.25433 19.9141 6.69345 19.9141 6.69579C19.9141 6.69579 19.171 9.75553 19.1361 9.89971C19.8929 9.89058 20.2033 9.89058 20.3339 9.90496ZM20.9092 7.3485C20.9092 7.3485 21.2394 5.91229 21.2378 5.91773L21.2485 5.84409L21.2532 5.78793L21.3851 5.80153C21.3851 5.80153 22.066 5.86002 22.0819 5.86157C22.3507 5.96553 22.4614 6.2335 22.3841 6.58327C22.3136 6.90293 22.1062 7.17167 21.8398 7.30148C21.6204 7.41146 21.3517 7.42059 21.0748 7.42059H20.8956L20.9092 7.3485ZM22.9648 8.58657C22.8776 8.95849 22.7773 9.63783 23.3989 9.87995C23.5971 9.96429 23.7747 9.98935 23.9553 9.98022C24.1459 9.96992 24.3225 9.87432 24.4861 9.73674C24.4714 9.79329 24.4566 9.84983 24.4418 9.90657L24.47 9.94291C24.9171 9.92406 25.0559 9.92406 25.5403 9.92776L25.5842 9.89433C25.655 9.47849 25.7216 9.0747 25.9054 8.27915C25.995 7.89809 26.0844 7.52073 26.1763 7.14122L26.1619 7.09944C25.6618 7.19213 25.5281 7.21195 25.0469 7.28016L25.0104 7.30989C25.0056 7.34856 25.0005 7.38568 24.9958 7.42279C24.921 7.30192 24.8126 7.19874 24.6453 7.13442C24.4313 7.05028 23.9288 7.15871 23.4969 7.55201C23.1933 7.8328 23.0476 8.21755 22.9648 8.58657ZM24.0153 8.6093C24.1224 8.1509 24.2454 7.76304 24.5641 7.76304C24.7656 7.76304 24.8717 7.94901 24.8501 8.26613C24.833 8.34522 24.8145 8.42858 24.7926 8.52283C24.7607 8.65905 24.7261 8.7941 24.6925 8.92934C24.6583 9.02184 24.6185 9.10909 24.5747 9.16719C24.4927 9.28339 24.2976 9.35549 24.1853 9.35549C24.1535 9.35549 23.9568 9.35549 23.95 9.06556C23.9485 8.92118 23.9782 8.77253 24.0153 8.6093ZM29.501 7.09573L29.4624 7.05162C28.9674 7.15189 28.8778 7.16782 28.4231 7.22923L28.3897 7.26265C28.3882 7.26809 28.3868 7.27645 28.3845 7.28403L28.3829 7.27645C28.0444 8.05742 28.0543 7.88894 27.7788 8.50377C27.7772 8.47579 27.7772 8.4583 27.7757 8.42857L27.7067 7.09573L27.6633 7.05162C27.1449 7.15189 27.1327 7.16782 26.6539 7.22923L26.6166 7.26265C26.6113 7.27859 26.6113 7.29608 26.6082 7.31512L26.6113 7.32192C26.6712 7.62778 26.6568 7.55957 26.7168 8.04226C26.7448 8.27913 26.7821 8.51737 26.8101 8.75133C26.8573 9.14288 26.8837 9.33565 26.9415 9.93318C26.6181 10.4668 26.5415 10.6687 26.2302 11.137L26.2324 11.1416L26.0132 11.4883C25.9881 11.5248 25.9654 11.5499 25.9335 11.5606C25.8985 11.5779 25.8531 11.581 25.7899 11.581H25.6685L25.4879 12.1814L26.1072 12.1921C26.4708 12.1906 26.6993 12.0206 26.8223 11.792L27.2118 11.1247H27.2055L27.2465 11.0777C27.5085 10.5138 29.501 7.09573 29.501 7.09573ZM22.9648 14.9817H22.7021L23.6744 11.7655H23.997L24.0994 11.4342L24.1093 11.8026C24.0973 12.0304 24.2764 12.2323 24.7471 12.1988H25.2914L25.4787 11.5795H25.2739C25.1561 11.5795 25.1015 11.5498 25.1083 11.4861L25.0984 11.1112H24.0905V11.1132C23.7646 11.12 22.7915 11.1445 22.5944 11.1969C22.356 11.2583 22.1047 11.4391 22.1047 11.4391L22.2035 11.1073H21.2606L21.0642 11.7655L20.0788 15.0308H19.8876L19.7 15.6457H21.5779L21.515 15.8507H22.4403L22.5017 15.6457H22.7613L22.9648 14.9817ZM22.1943 12.419C22.0433 12.4608 21.7623 12.5875 21.7623 12.5875L22.0122 11.7655H22.7613L22.5806 12.3644C22.5806 12.3644 22.3492 12.378 22.1943 12.419ZM22.2087 13.5933C22.2087 13.5933 21.9734 13.6228 21.8185 13.6578C21.666 13.704 21.3799 13.8498 21.3799 13.8498L21.638 12.9944H22.391L22.2087 13.5933ZM21.789 14.9893H21.0375L21.2554 14.2674H22.0045L21.789 14.9893ZM23.5986 12.9944H24.6817L24.5261 13.4984H23.4286L23.2638 14.0495H24.2241L23.497 15.0734C23.446 15.1486 23.4004 15.1752 23.3497 15.1964C23.2987 15.2222 23.2319 15.2526 23.1546 15.2526H22.8882L22.7051 15.8561H23.4019C23.7641 15.8561 23.9781 15.6913 24.1361 15.4751L24.6347 14.7926L24.7418 15.4855C24.7645 15.6154 24.8578 15.6913 24.9209 15.7209C24.9907 15.7558 25.0628 15.8159 25.1646 15.8248C25.2738 15.8295 25.3527 15.8332 25.4052 15.8332H25.7476L25.9531 15.1577H25.8181C25.7406 15.1577 25.6071 15.1447 25.5843 15.1204C25.5616 15.0909 25.5616 15.0454 25.5494 14.9762L25.4407 14.2817H24.9959L25.191 14.0495H26.2864L26.4549 13.4984H25.4407L25.5987 12.9944H26.6098L26.7973 12.3728H23.783L23.5986 12.9944ZM14.4504 15.1296L14.7032 14.2886H15.7422L15.9321 13.6631H14.8921L15.0508 13.1454H16.0671L16.2554 12.5397H13.7126L13.5282 13.1454H14.1059L13.9518 13.6631H13.3725L13.1805 14.2993H13.758L13.4211 15.412C13.3756 15.5593 13.4425 15.6154 13.4848 15.6838C13.5282 15.7505 13.5721 15.7946 13.6708 15.8196C13.7726 15.8424 13.8424 15.856 13.9372 15.856H15.1086L15.3173 15.163L14.798 15.2344C14.6978 15.2344 14.4201 15.2223 14.4504 15.1296ZM14.5696 11.1036L14.3063 11.5794C14.2499 11.6834 14.1992 11.7479 14.1535 11.7777C14.1133 11.8027 14.0336 11.8132 13.9182 11.8132H13.7808L13.5972 12.422H14.0535C14.2728 12.422 14.4413 12.3416 14.5218 12.3013C14.6082 12.2551 14.631 12.2815 14.6978 12.217L14.8519 12.0835H16.2767L16.4657 11.4496H15.4228L15.6049 11.1036H14.5696ZM16.673 15.1418C16.6487 15.1069 16.6662 15.0453 16.7033 14.917L17.0927 13.6281H18.478C18.6799 13.6252 18.8256 13.6228 18.9205 13.616C19.0223 13.6054 19.133 13.569 19.2537 13.5037C19.3783 13.4353 19.442 13.3632 19.4958 13.2805C19.5559 13.1979 19.6523 13.0172 19.735 12.7385L20.2245 11.1074L18.787 11.1157C18.787 11.1157 18.3443 11.181 18.1494 11.2531C17.9527 11.3336 17.6718 11.5582 17.6718 11.5582L17.8016 11.1111H16.9135L15.6703 15.2343C15.6262 15.3945 15.5966 15.5107 15.5898 15.5804C15.5875 15.6556 15.6847 15.73 15.7476 15.7862C15.822 15.8424 15.932 15.8332 16.0375 15.8424C16.1485 15.8507 16.3063 15.856 16.5241 15.856H17.2066L17.416 15.1486L16.8051 15.2064C16.7398 15.2064 16.6926 15.1714 16.673 15.1418ZM17.3439 12.7575H18.799L18.7065 13.0475C18.6935 13.0543 18.6624 13.0331 18.5143 13.0506H17.2544L17.3439 12.7575ZM17.6354 11.7852H19.1027L18.9972 12.1344C18.9972 12.1344 18.3056 12.1276 18.1949 12.148C17.7075 12.2323 17.4228 12.4927 17.4228 12.4927L17.6354 11.7852ZM18.7391 14.0183C18.727 14.0617 18.708 14.0881 18.6814 14.1079C18.6518 14.127 18.604 14.1338 18.5327 14.1338H18.3254L18.3376 13.7807H17.4752L17.4402 15.5068C17.4389 15.6314 17.4509 15.7035 17.5421 15.7612C17.6332 15.8333 17.914 15.8424 18.2919 15.8424H18.8323L19.0274 15.1963L18.557 15.2221L18.4006 15.2313C18.3792 15.2221 18.3588 15.2138 18.3361 15.1911C18.3162 15.1714 18.2828 15.1835 18.2883 15.0589L18.2919 14.6165L18.7853 14.5961C19.0517 14.5961 19.1656 14.5094 19.2628 14.4268C19.3555 14.3477 19.3858 14.2568 19.4207 14.1338L19.5035 13.742H18.8255L18.7391 14.0183Z" fill="#FEFEFE"/>
</g>
<defs>
<clipPath id="clip0_103_423">
<rect width="32" height="20" fill="white"/>
</clipPath>
</defs>
</svg>
