<svg width="55" height="18" viewBox="0 0 55 18" fill="none" xmlns="http://www.w3.org/2000/svg">
<g clip-path="url(#clip0_85_268)">
<path d="M23.8661 17.4463H19.4711L22.218 0.565311H26.6134L23.8661 17.4463ZM15.7738 0.565311L11.5838 12.1762L11.088 9.67591L11.0884 9.67682L9.60959 2.08525C9.60959 2.08525 9.43078 0.565311 7.52476 0.565311H0.597882L0.516602 0.851146C0.516602 0.851146 2.63485 1.29186 5.1139 2.78065L8.93226 17.4467H13.5115L20.5038 0.565311H15.7738ZM50.3427 17.4463H54.3783L50.8597 0.56486H47.3268C45.6953 0.56486 45.2979 1.8229 45.2979 1.8229L38.7431 17.4463H43.3246L44.2408 14.9388H49.8279L50.3427 17.4463ZM45.5065 11.4749L47.8158 5.15764L49.1149 11.4749H45.5065ZM39.0868 4.6248L39.714 0.999708C39.714 0.999708 37.7786 0.263672 35.761 0.263672C33.58 0.263672 28.4007 1.21691 28.4007 5.85213C28.4007 10.2133 34.4795 10.2675 34.4795 12.5582C34.4795 14.8489 29.027 14.4385 27.2275 12.9939L26.5741 16.7843C26.5741 16.7843 28.5366 17.7376 31.5349 17.7376C34.5342 17.7376 39.0588 16.1846 39.0588 11.9581C39.0588 7.56895 32.9253 7.16029 32.9253 5.25202C32.9257 3.34329 37.206 3.58848 39.0868 4.6248Z" fill="#2566AF"/>
<path d="M11.0884 9.67645L9.60959 2.08488C9.60959 2.08488 9.43078 0.564941 7.52476 0.564941H0.597882L0.516602 0.850776C0.516602 0.850776 3.84593 1.54075 7.03933 4.12591C10.0928 6.59683 11.0884 9.67645 11.0884 9.67645Z" fill="#E6A540"/>
</g>
<defs>
<clipPath id="clip0_85_268">
<rect width="54" height="18" fill="white" transform="translate(0.447266)"/>
</clipPath>
</defs>
</svg>
