<svg width="41" height="12" viewBox="0 0 41 12" fill="none" xmlns="http://www.w3.org/2000/svg">
<g clip-path="url(#clip0_103_436)">
<path d="M18.1353 11.6309H14.8798L16.9144 0.376874H20.1703L18.1353 11.6309ZM12.141 0.376874L9.03728 8.11746L8.67001 6.45061L8.67035 6.45121L7.57491 1.39017C7.57491 1.39017 7.44245 0.376874 6.03058 0.376874H0.899563L0.839355 0.567431C0.839355 0.567431 2.40843 0.861243 4.24476 1.85376L7.07318 11.6312H10.4652L15.6447 0.376874H12.141ZM37.7476 11.6309H40.7369L38.1306 0.376573H35.5135C34.305 0.376573 34.0107 1.21526 34.0107 1.21526L29.1553 11.6309H32.549L33.2277 9.9592H37.3663L37.7476 11.6309ZM34.1652 7.64994L35.8758 3.43843L36.8381 7.64994H34.1652ZM29.4098 3.0832L29.8744 0.666472C29.8744 0.666472 28.4408 0.175781 26.9463 0.175781C25.3308 0.175781 21.4942 0.811271 21.4942 3.90142C21.4942 6.80884 25.9971 6.84497 25.9971 8.37213C25.9971 9.8993 21.9582 9.62565 20.6252 8.66263L20.1412 11.1895C20.1412 11.1895 21.5949 11.825 23.8159 11.825C26.0375 11.825 29.3891 10.7898 29.3891 7.97205C29.3891 5.04597 24.8458 4.77353 24.8458 3.50134C24.8461 2.22886 28.0167 2.39232 29.4098 3.0832Z" fill="#2566AF"/>
<path d="M8.67035 6.45105L7.57491 1.39C7.57491 1.39 7.44245 0.376709 6.03058 0.376709H0.899563L0.839355 0.567266C0.839355 0.567266 3.30552 1.02725 5.67101 2.75069C7.93281 4.39797 8.67035 6.45105 8.67035 6.45105Z" fill="#E6A540"/>
</g>
<defs>
<clipPath id="clip0_103_436">
<rect width="40" height="12" fill="white" transform="translate(0.788086)"/>
</clipPath>
</defs>
</svg>
