<svg width="68" height="68" viewBox="0 0 68 68" fill="none" xmlns="http://www.w3.org/2000/svg">
<path d="M17.0068 48.6955C16.8113 48.6955 16.6136 48.6413 16.4373 48.5297L8.39839 43.4116C7.90327 43.0961 7.7577 42.4395 8.0722 41.9443C8.38777 41.4481 9.04439 41.3047 9.53952 41.6181L17.5784 46.7362C18.0735 47.0518 18.2191 47.7084 17.9046 48.2035C17.7016 48.5223 17.3585 48.6955 17.0068 48.6955Z" fill="#582F9A"/>
<path d="M26.4846 60.5603C26.1446 60.5603 25.8109 60.3978 25.6048 60.096L20.2392 52.2197C19.9087 51.7342 20.0341 51.0733 20.5197 50.7428C21.0042 50.4113 21.6661 50.5388 21.9966 51.0223L27.3622 58.8986C27.6926 59.3842 27.5672 60.045 27.0817 60.3755C26.8979 60.4998 26.6907 60.5603 26.4846 60.5603Z" fill="#582F9A"/>
<path d="M23.5998 17.9754C23.5669 17.9754 23.534 17.9744 23.501 17.9712L15.6205 17.2402C15.0361 17.1849 14.6058 16.6675 14.661 16.0831C14.7152 15.4987 15.2284 15.0716 15.817 15.1237L23.6976 15.8547C24.282 15.9099 24.7123 16.4274 24.657 17.0117C24.606 17.5621 24.1428 17.9754 23.5998 17.9754Z" fill="#582F9A"/>
<path d="M39.9436 19.4915C39.9107 19.4915 39.8777 19.4905 39.8448 19.4873L31.9642 18.7563C31.3798 18.701 30.9495 18.1836 31.0048 17.5992C31.0579 17.0149 31.5753 16.5877 32.1608 16.6398L40.0413 17.3708C40.6257 17.426 41.056 17.9435 41.0008 18.5279C40.9487 19.0782 40.4855 19.4915 39.9436 19.4915Z" fill="#582F9A"/>
<path d="M27.8281 18.3686C27.5519 18.3686 27.2756 18.2517 27.0844 18.0604C26.8825 17.8586 26.7656 17.5823 26.7656 17.3061C26.7656 17.0181 26.8825 16.7525 27.0844 16.5517C27.4775 16.1586 28.1894 16.1586 28.5825 16.5517C28.7844 16.7525 28.8906 17.0298 28.8906 17.3061C28.8906 17.5823 28.7844 17.8586 28.5825 18.0604C28.3806 18.2517 28.115 18.3686 27.8281 18.3686Z" fill="#582F9A"/>
<path d="M16.6424 55.9651C16.312 55.9651 15.9869 55.811 15.7786 55.5231C15.4354 55.0481 15.5438 54.3841 16.0198 54.0398C20.7862 50.6069 25.5122 46.9901 30.065 43.2916C30.5187 42.9218 31.1891 42.992 31.5599 43.4467C31.9297 43.9025 31.8606 44.5719 31.4048 44.9416C26.8201 48.6668 22.0622 52.308 17.2619 55.7653C17.0749 55.8992 16.857 55.9651 16.6424 55.9651Z" fill="#582F9A"/>
<path d="M37.2661 39.728C36.9697 39.728 36.6754 39.6047 36.465 39.3636C36.0793 38.9215 36.125 38.2501 36.567 37.8654C40.6555 34.2965 44.7163 30.6967 48.7772 27.097L52.0603 24.1868C52.5002 23.799 53.1717 23.8404 53.5606 24.2782C53.9495 24.718 53.9091 25.3895 53.4703 25.7784L50.1872 28.6865C46.122 32.2905 42.058 35.8934 37.9652 39.4656C37.7634 39.6419 37.5137 39.728 37.2661 39.728Z" fill="#582F9A"/>
<path d="M34.0234 42.4767C33.7472 42.4767 33.4709 42.3609 33.2691 42.1686C33.0778 41.9678 32.9609 41.6915 32.9609 41.4142C32.9609 41.1273 33.0778 40.8617 33.2691 40.6598C33.6728 40.2667 34.3741 40.2667 34.7672 40.6598C34.9691 40.8617 35.0859 41.138 35.0859 41.4142C35.0859 41.6915 34.9691 41.9678 34.7778 42.1686C34.5759 42.3598 34.2997 42.4767 34.0234 42.4767Z" fill="#582F9A"/>
<path d="M17.3207 26.8632C17.0509 26.8632 16.782 26.7612 16.5738 26.5572C16.1562 26.145 16.152 25.4724 16.5642 25.0548L18.9857 22.6004C19.399 22.1818 20.0705 22.1786 20.4891 22.5898C20.9067 23.0021 20.9109 23.6746 20.4987 24.0922L18.0772 26.5466C17.869 26.758 17.5949 26.8632 17.3207 26.8632Z" fill="#582F9A"/>
<path d="M24.5473 29.3527C24.2774 29.3527 24.0086 29.2507 23.8004 29.0467C23.3828 28.6345 23.3785 27.9619 23.7908 27.5443L26.2122 25.09C26.6245 24.6724 27.297 24.6671 27.7157 25.0793C28.1332 25.4916 28.1375 26.1641 27.7252 26.5817L25.3038 29.0361C25.0955 29.2465 24.8214 29.3527 24.5473 29.3527Z" fill="#582F9A"/>
<path d="M42.9215 51.6895C42.658 51.6895 42.3945 51.5918 42.1895 51.3973C41.7645 50.9925 41.7475 50.3199 42.1523 49.8949L44.5302 47.397C44.935 46.9731 45.6086 46.9571 46.0325 47.3598C46.4575 47.7646 46.4745 48.4372 46.0697 48.8622L43.6919 51.3601C43.4825 51.579 43.2031 51.6895 42.9215 51.6895Z" fill="#582F9A"/>
<path d="M40.2184 44.5474C39.9549 44.5474 39.6914 44.4496 39.4864 44.2552C39.0614 43.8493 39.0444 43.1767 39.4492 42.7528L41.827 40.2559C42.2319 39.8299 42.9055 39.8161 43.3294 40.2188C43.7544 40.6246 43.7714 41.2972 43.3666 41.7211L40.9887 44.218C40.7784 44.4369 40.4989 44.5474 40.2184 44.5474Z" fill="#582F9A"/>
<path d="M52.5886 52.9921C52.0606 52.9921 51.6026 52.599 51.5357 52.0603L48.5394 27.9161C48.4672 27.3338 48.8805 26.8026 49.4628 26.7314C50.0429 26.6506 50.5752 27.0714 50.6474 27.6547L53.6437 51.7989C53.7159 52.3812 53.3026 52.9124 52.7204 52.9836C52.6768 52.99 52.6333 52.9921 52.5886 52.9921Z" fill="#582F9A"/>
<path d="M48.418 57.3804C47.9898 57.3804 47.5861 57.1201 47.4246 56.694L39.6163 36.124C39.408 35.5758 39.6843 34.9617 40.2325 34.7545C40.7787 34.5441 41.3949 34.8214 41.6032 35.3707L49.4115 55.9407C49.6197 56.489 49.3435 57.1031 48.7952 57.3103C48.672 57.3581 48.5445 57.3804 48.418 57.3804Z" fill="#582F9A"/>
<path d="M48.4137 57.3803C48.1502 57.3803 47.8867 57.2826 47.6817 57.0882C47.2567 56.6833 47.2397 56.0097 47.6445 55.5858L51.8233 51.1977C52.2281 50.7748 52.9017 50.7578 53.3257 51.1605C53.7507 51.5653 53.7677 52.2389 53.3629 52.6628L49.184 57.051C48.9747 57.2698 48.6953 57.3803 48.4137 57.3803Z" fill="#582F9A"/>
<path d="M29.4996 57.3867C28.9652 57.3867 28.5051 56.9851 28.4446 56.4411L27.3035 46.1455C27.2387 45.5622 27.6594 45.0373 28.2427 44.9725C28.826 44.913 29.3509 45.3284 29.4157 45.9117L30.5568 56.2073C30.6217 56.7907 30.2009 57.3155 29.6176 57.3803C29.5783 57.3846 29.539 57.3867 29.4996 57.3867Z" fill="#582F9A"/>
<path d="M26.484 60.5605C26.2205 60.5605 25.957 60.4627 25.752 60.2672C25.327 59.8624 25.31 59.1899 25.7148 58.7659L28.7376 55.5922C29.1424 55.1672 29.816 55.1513 30.24 55.5561C30.665 55.9609 30.682 56.6335 30.2772 57.0574L27.2544 60.2311C27.045 60.4511 26.7645 60.5605 26.484 60.5605Z" fill="#582F9A"/>
<path d="M8.96136 43.5775C8.69148 43.5775 8.42161 43.4755 8.21442 43.2715C7.79686 42.8592 7.79261 42.1867 8.20486 41.7691L11.284 38.6486C11.6962 38.231 12.3688 38.2257 12.7874 38.6379C13.205 39.0502 13.2092 39.7227 12.797 40.1403L9.71786 43.2609C9.50961 43.4712 9.23548 43.5775 8.96136 43.5775Z" fill="#582F9A"/>
<path d="M22.3745 41.2781C22.3469 41.2781 22.3182 41.277 22.2895 41.2749L11.963 40.4546C11.3776 40.4079 10.942 39.8968 10.9877 39.3114C11.0344 38.727 11.5391 38.2925 12.1309 38.336L22.4574 39.1563C23.0428 39.203 23.4784 39.7141 23.4327 40.2995C23.3881 40.8552 22.9238 41.2781 22.3745 41.2781Z" fill="#582F9A"/>
<path d="M11.4614 21.5571C11.1915 21.5571 10.9227 21.4551 10.7144 21.2511C10.2969 20.8388 10.2926 20.1662 10.7049 19.7487L14.9612 15.4349C15.3735 15.0174 16.046 15.0121 16.4647 15.4243C16.8822 15.8366 16.8865 16.5091 16.4742 16.9267L12.2179 21.2404C12.0096 21.4508 11.7355 21.5571 11.4614 21.5571Z" fill="#582F9A"/>
<path d="M32.2645 28.7247C32.1497 28.7247 32.0329 28.7055 31.9181 28.6662L11.1154 21.4986C10.5608 21.3073 10.2654 20.7028 10.4567 20.1482C10.6479 19.5946 11.2504 19.2971 11.8071 19.4905L32.6098 26.6581C33.1644 26.8493 33.4598 27.4539 33.2685 28.0085C33.1166 28.4484 32.7054 28.7247 32.2645 28.7247Z" fill="#582F9A"/>
<path d="M15.5362 56.3305C14.7755 56.3305 14.0169 56.0341 13.4165 55.4508C12.3392 54.4074 12.1607 52.8264 12.982 51.6099C13.3103 51.1222 13.9712 50.9947 14.4567 51.3219C14.9434 51.6502 15.0719 52.31 14.7436 52.7967C14.3717 53.3481 14.7659 53.7997 14.8955 53.9261C15.0252 54.0525 15.4874 54.4308 16.0271 54.0409C16.5042 53.6998 17.1672 53.8071 17.5104 54.2831C17.8535 54.7591 17.7452 55.4232 17.2681 55.7664C16.7411 56.1446 16.1387 56.3305 15.5362 56.3305Z" fill="#582F9A"/>
<path d="M13.8584 53.2654C13.6544 53.2654 13.4473 53.2059 13.2656 53.0837C12.7789 52.7554 12.6504 52.0955 12.9787 51.6089C21.5988 38.8207 31.5746 26.8261 41.2231 15.2268L41.8288 14.4979C42.2049 14.0474 42.8743 13.9879 43.3258 14.3609C43.7763 14.7359 43.8379 15.4053 43.4629 15.8569L42.8562 16.5857C33.2416 28.1447 23.2998 40.0967 14.7403 52.7957C14.5363 53.1017 14.2006 53.2654 13.8584 53.2654Z" fill="#582F9A"/>
<path d="M52.7649 26.045C52.5014 26.045 52.239 25.9483 52.0339 25.7538C51.6089 25.349 51.5909 24.6765 51.9946 24.2515C55.1279 20.9503 57.186 16.8331 57.9467 12.3451C58.0445 11.766 58.5885 11.3825 59.1718 11.4749C59.7498 11.5737 60.1397 12.122 60.042 12.7C59.2101 17.6055 56.9607 22.1063 53.5363 25.7145C53.327 25.9334 53.0454 26.045 52.7649 26.045Z" fill="#582F9A"/>
<path d="M42.6492 16.2402C42.3794 16.2402 42.1084 16.1371 41.9012 15.9321C41.4837 15.5188 41.4805 14.8473 41.8938 14.4297C45.3958 10.8948 49.8243 8.50733 54.7001 7.52346C55.2771 7.40446 55.8359 7.78058 55.9517 8.3554C56.0676 8.93021 55.6946 9.49015 55.1198 9.60702C50.6584 10.507 46.6071 12.6904 43.4026 15.9257C43.1964 16.1361 42.9223 16.2402 42.6492 16.2402Z" fill="#582F9A"/>
<path d="M58.9868 13.5841C58.9284 13.5841 58.8689 13.5788 58.8083 13.5692C58.2303 13.4704 57.8404 12.9232 57.9381 12.3441C58.0677 11.576 57.8106 10.8141 57.2305 10.251C56.6504 9.68896 55.8769 9.45096 55.1129 9.60715C54.5424 9.72402 53.9803 9.35002 53.8645 8.77415C53.7497 8.19934 54.1227 7.6394 54.6975 7.52359C56.1361 7.23777 57.6385 7.68509 58.7116 8.7274C59.7847 9.76759 60.2788 11.253 60.0334 12.699C59.9462 13.2175 59.4957 13.5841 58.9868 13.5841Z" fill="#582F9A"/>
<path d="M48.0916 20.0865C48.383 20.0865 48.6746 19.9752 48.8969 19.7529C49.3414 19.3084 49.3414 18.5875 48.8969 18.1429C48.4524 17.6985 47.7316 17.6985 47.287 18.1429L47.2864 18.1435C46.8419 18.588 46.8421 19.3085 47.2866 19.7531C47.5091 19.9754 47.8003 20.0865 48.0916 20.0865Z" fill="#582F9A"/>
</svg>
