<svg width="51" height="51" viewBox="0 0 51 51" fill="none" xmlns="http://www.w3.org/2000/svg">
<path d="M48.6094 35.3947V7.02246C48.6094 5.34723 47.2464 3.98438 45.5713 3.98438H38.3496V2.98828C38.3496 1.34054 37.0091 0 35.3613 0C33.7136 0 32.373 1.34054 32.373 2.98828V3.98438H16.2363V2.98828C16.2363 1.34054 14.8958 0 13.248 0C11.6003 0 10.2598 1.34054 10.2598 2.98828V3.98438H3.03809C1.36296 3.98438 0 5.34723 0 7.02246V43.9775C0 45.6528 1.36296 47.0156 3.03809 47.0156H16.6149C17.165 47.0156 17.611 46.5697 17.611 46.0195C17.611 45.4694 17.165 45.0234 16.6149 45.0234H3.03809C2.46135 45.0234 1.99219 44.5543 1.99219 43.9775V7.02246C1.99219 6.44572 2.46135 5.97656 3.03809 5.97656H10.2598V6.97266C10.2598 8.62039 11.6003 9.96094 13.248 9.96094C14.8958 9.96094 16.2363 8.62039 16.2363 6.97266V5.97656H32.373V6.97266C32.373 8.62039 33.7136 9.96094 35.3613 9.96094C37.0091 9.96094 38.3496 8.62039 38.3496 6.97266V5.97656H45.5713C46.148 5.97656 46.6172 6.44572 46.6172 7.02246V11.9531H8.96484C8.4148 11.9531 7.96875 12.3991 7.96875 12.9492C7.96875 13.4994 8.4148 13.9453 8.96484 13.9453H46.6172V33.7115C45.7691 33.1766 44.8298 32.7742 43.8281 32.533V17.7305C43.8281 17.1803 43.3821 16.7344 42.832 16.7344H5.77734C5.2273 16.7344 4.78125 17.1803 4.78125 17.7305V41.2383C4.78125 41.7884 5.2273 42.2344 5.77734 42.2344H32.2931C32.3549 43.212 32.5672 44.1494 32.9076 45.0234H24.5836C24.0336 45.0234 23.5875 45.4694 23.5875 46.0195C23.5875 46.5697 24.0336 47.0156 24.5836 47.0156H33.9771C35.6731 49.4236 38.4741 51 41.6367 51C46.7997 51 51 46.7997 51 41.6367C51 39.2407 50.0949 37.0525 48.6094 35.3947ZM14.2441 6.97266C14.2441 7.5219 13.7973 7.96875 13.248 7.96875C12.6988 7.96875 12.252 7.5219 12.252 6.97266V2.98828C12.252 2.43904 12.6988 1.99219 13.248 1.99219C13.7973 1.99219 14.2441 2.43904 14.2441 2.98828V6.97266ZM36.3574 6.97266C36.3574 7.5219 35.9106 7.96875 35.3613 7.96875C34.8121 7.96875 34.3652 7.5219 34.3652 6.97266V2.98828C34.3652 2.43904 34.8121 1.99219 35.3613 1.99219C35.9106 1.99219 36.3574 2.43904 36.3574 2.98828V6.97266ZM41.6367 32.2734C41.1736 32.2734 40.7184 32.3078 40.2731 32.373H36.4172V26.5957H41.8359V32.2759C41.7697 32.2745 41.7034 32.2734 41.6367 32.2734ZM32.3773 40.2422H29.0063V34.3652H34.425V35.6715C33.3629 36.9534 32.6353 38.522 32.3773 40.2422ZM6.77344 26.5957H12.1922V32.373H6.77344V26.5957ZM14.1844 26.5957H19.6031V32.373H14.1844V26.5957ZM29.0063 26.5957H34.425V32.373H29.0063V26.5957ZM27.0141 32.373H21.5953V26.5957H27.0141V32.373ZM29.0063 24.6035V18.7266H34.425V24.6035H29.0063ZM27.0141 24.6035H21.5953V18.7266H27.0141V24.6035ZM19.6031 24.6035H14.1844V18.7266H19.6031V24.6035ZM19.6031 34.3652V40.2422H14.1844V34.3652H19.6031ZM21.5953 34.3652H27.0141V40.2422H21.5953V34.3652ZM41.8359 24.6035H36.4172V18.7266H41.8359V24.6035ZM12.1922 18.7266V24.6035H6.77344V18.7266H12.1922ZM6.77344 34.3652H12.1922V40.2422H6.77344V34.3652ZM41.6367 49.0078C37.5723 49.0078 34.2656 45.7012 34.2656 41.6367C34.2656 37.5723 37.5723 34.2656 41.6367 34.2656C45.7012 34.2656 49.0078 37.5723 49.0078 41.6367C49.0078 45.7012 45.7012 49.0078 41.6367 49.0078Z" fill="#582F9A"/>
</svg>
