<svg width="54" height="54" viewBox="0 0 54 54" fill="none" xmlns="http://www.w3.org/2000/svg">
<g clip-path="url(#clip0_85_2578)">
<path d="M25.5293 10.8494C25.086 10.8494 24.7266 11.2088 24.7266 11.6521V13.7794C24.7266 14.2227 25.086 14.5821 25.5293 14.5821C25.9726 14.5821 26.332 14.2227 26.332 13.7794V11.6521C26.332 11.2088 25.9727 10.8494 25.5293 10.8494Z" fill="#582F9A"/>
<path d="M25.5293 16.5764C25.086 16.5764 24.7266 16.9359 24.7266 17.3791V19.5064C24.7266 19.9497 25.086 20.3092 25.5293 20.3092C25.9726 20.3092 26.332 19.9497 26.332 19.5064V17.3791C26.332 16.9359 25.9727 16.5764 25.5293 16.5764Z" fill="#582F9A"/>
<path d="M29.4535 14.7764H27.3262C26.8829 14.7764 26.5234 15.1358 26.5234 15.5791C26.5234 16.0224 26.8829 16.3818 27.3262 16.3818H29.4535C29.8968 16.3818 30.2562 16.0224 30.2562 15.5791C30.2562 15.1358 29.8969 14.7764 29.4535 14.7764Z" fill="#582F9A"/>
<path d="M23.7269 14.7764H21.5996C21.1563 14.7764 20.7969 15.1358 20.7969 15.5791C20.7969 16.0224 21.1563 16.3818 21.5996 16.3818H23.7269C24.1702 16.3818 24.5296 16.0224 24.5296 15.5791C24.5296 15.1358 24.1702 14.7764 23.7269 14.7764Z" fill="#582F9A"/>
<path d="M47.5293 22.1877C47.086 22.1877 46.7266 22.5472 46.7266 22.9905V25.1178C46.7266 25.5611 47.086 25.9205 47.5293 25.9205C47.9726 25.9205 48.332 25.5611 48.332 25.1178V22.9905C48.332 22.5472 47.9727 22.1877 47.5293 22.1877Z" fill="#582F9A"/>
<path d="M47.5293 27.915C47.086 27.915 46.7266 28.2745 46.7266 28.7178V30.8451C46.7266 31.2884 47.086 31.6478 47.5293 31.6478C47.9726 31.6478 48.332 31.2884 48.332 30.8451V28.7178C48.332 28.2745 47.9727 27.915 47.5293 27.915Z" fill="#582F9A"/>
<path d="M51.4613 26.115H49.334C48.8907 26.115 48.5312 26.4744 48.5312 26.9177C48.5312 27.361 48.8907 27.7204 49.334 27.7204H51.4613C51.9046 27.7204 52.264 27.361 52.264 26.9177C52.264 26.4744 51.9047 26.115 51.4613 26.115Z" fill="#582F9A"/>
<path d="M45.7347 26.115H43.6074C43.1641 26.115 42.8047 26.4744 42.8047 26.9177C42.8047 27.361 43.1641 27.7204 43.6074 27.7204H45.7347C46.178 27.7204 46.5374 27.361 46.5374 26.9177C46.5374 26.4744 46.178 26.115 45.7347 26.115Z" fill="#582F9A"/>
<path d="M52.2929 8.4895L49.8804 8.00033C47.8145 7.58152 46.2089 5.97596 45.7901 3.91004L45.301 1.49755C45.1223 0.615727 44.3692 0 43.4695 0C42.5699 0 41.8167 0.615727 41.6379 1.49745L41.1488 3.90994C40.73 5.97586 39.1244 7.58141 37.0585 8.00023L34.6459 8.48939C33.7643 8.66816 33.1484 9.42131 33.1484 10.321C33.1484 11.2206 33.7643 11.9738 34.6459 12.1526L37.0585 12.6418C39.1244 13.0606 40.73 14.6662 41.1488 16.7321L41.6379 19.1446C41.8167 20.0263 42.5699 20.642 43.4695 20.642C44.3692 20.642 45.1223 20.0263 45.3011 19.1446L45.7902 16.7321C46.2091 14.6662 47.8146 13.0606 49.8805 12.6418L52.293 12.1526C53.1747 11.9739 53.7905 11.2207 53.7905 10.3211C53.7905 9.42142 53.1746 8.66826 52.2929 8.4895ZM51.9741 10.579L49.5616 11.0682C46.862 11.6156 44.7641 13.7135 44.2169 16.4129L43.7277 18.8254C43.6993 18.9654 43.6125 19.0364 43.4696 19.0364C43.3267 19.0364 43.2399 18.9654 43.2115 18.8254L42.7224 16.4129C42.175 13.7135 40.0772 11.6155 37.3776 11.0682L34.965 10.579C34.8251 10.5507 34.7541 10.4639 34.7541 10.321C34.7541 10.1781 34.8251 10.0912 34.965 10.0629L37.3776 9.57371C40.0772 9.02633 42.1751 6.92845 42.7224 4.22898L43.2115 1.81649C43.2399 1.67653 43.3267 1.60555 43.4696 1.60555C43.6124 1.60555 43.6993 1.67653 43.7277 1.81649L44.2169 4.22898C44.7642 6.92845 46.862 9.02644 49.5616 9.57371L51.9741 10.0629C52.114 10.0912 52.185 10.1781 52.185 10.321C52.185 10.4639 52.114 10.5507 51.9741 10.579Z" fill="#582F9A"/>
<path d="M42.7766 38.002C42.6306 37.5833 42.1725 37.3623 41.7542 37.508C38.4478 38.6601 34.8784 38.9163 31.432 38.249C30.9972 38.1646 30.5756 38.4493 30.4913 38.8845C30.4071 39.3198 30.6916 39.7409 31.1269 39.8252C32.4796 40.0871 33.8498 40.2173 35.2177 40.2173C37.6159 40.2173 40.0069 39.8171 42.2826 39.0242C42.7013 38.8782 42.9224 38.4206 42.7766 38.002Z" fill="#582F9A"/>
<path d="M53.4206 28.1495C53.0607 28.0406 52.6737 28.196 52.4889 28.5235C51.6069 30.0871 50.5112 31.5283 49.2325 32.807C47.9191 34.1203 46.4381 35.2387 44.8304 36.131C44.4427 36.3461 44.303 36.8349 44.5182 37.2224C44.7333 37.6101 45.2218 37.7498 45.6095 37.5346C47.3479 36.5698 48.9488 35.3611 50.3678 33.9422C50.9134 33.3966 51.4282 32.8235 51.9101 32.2257C50.8985 37.0191 48.5129 41.4485 45.0123 44.9491C40.211 49.7504 33.8273 52.3945 27.0374 52.3945C20.2476 52.3945 13.8639 49.7504 9.06262 44.949C5.38292 41.2692 2.94965 36.628 2.02585 31.5273C1.12303 26.5419 1.70891 21.4607 3.7201 16.8328C3.89676 16.4262 3.7105 15.9533 3.30381 15.7767C2.89712 15.6 2.42431 15.7864 2.24765 16.1929C0.109478 21.1131 -0.513525 26.5145 0.446135 31.8133C1.42837 37.2373 4.0153 42.1722 7.92735 46.0843C13.0319 51.1888 19.8187 54 27.0374 54C34.2563 54 41.0431 51.1888 46.1474 46.0843C50.7273 41.5044 53.512 35.429 53.9886 28.9769C54.0165 28.6021 53.7803 28.2583 53.4206 28.1495Z" fill="#582F9A"/>
<path d="M25.8633 0.590985C25.7546 0.231231 25.4125 -0.00396389 25.0358 0.0228252C18.5838 0.499544 12.5083 3.28424 7.92849 7.86401C6.36301 9.42948 4.99593 11.1763 3.86499 13.056C3.63644 13.4359 3.7592 13.9291 4.1391 14.1577C4.51911 14.3865 5.01217 14.2636 5.24083 13.8836C6.30437 12.1157 7.59078 10.4724 9.06375 8.99916C12.5644 5.49866 16.9937 3.11317 21.7872 2.1014C21.1894 2.5834 20.6164 3.09819 20.0707 3.64378C16.4752 7.23931 14.2712 12.007 13.8648 17.0686C13.4631 22.0725 14.8299 27.073 17.7136 31.1489C17.87 31.37 18.1178 31.4881 18.3696 31.4881C18.5299 31.4881 18.6918 31.4402 18.8325 31.3406C19.1945 31.0844 19.2803 30.5836 19.0242 30.2216C16.3574 26.4524 15.0934 21.8268 15.4652 17.1971C15.8411 12.5154 17.8799 8.10532 21.2059 4.77915C22.4847 3.50045 23.9259 2.40473 25.4895 1.5227C25.8168 1.33781 25.9721 0.950845 25.8633 0.590985Z" fill="#582F9A"/>
<path d="M33.0767 33.4059L31.0298 32.9908C29.3251 32.6451 28.0001 31.3203 27.6545 29.6154L27.2394 27.5685C27.0761 26.763 26.3881 26.2004 25.5662 26.2004C24.7443 26.2004 24.0563 26.7629 23.8929 27.5685L23.4779 29.6154C23.1323 31.3202 21.8074 32.6451 20.1025 32.9908L18.0555 33.4059C17.2501 33.5692 16.6875 34.2573 16.6875 35.0791C16.6875 35.9009 17.25 36.589 18.0555 36.7524L20.1025 37.1673C21.8073 37.5129 23.1322 38.8377 23.4779 40.5426L23.8928 42.5895C24.0562 43.395 24.7442 43.9576 25.5661 43.9576C26.388 43.9576 27.076 43.395 27.2393 42.5895L27.6544 40.5426C28 38.8378 29.3248 37.5129 31.0297 37.1673L33.0766 36.7524C33.8821 36.589 34.4446 35.901 34.4446 35.0791C34.4446 34.2572 33.8822 33.5692 33.0767 33.4059ZM32.7578 35.1789L30.7108 35.5938C28.3724 36.068 26.5552 37.8851 26.0811 40.2236L25.6661 42.2705C25.6584 42.3087 25.6496 42.352 25.5663 42.352C25.483 42.352 25.4743 42.3087 25.4665 42.2705L25.0516 40.2236C24.5774 37.8851 22.7602 36.0679 20.4218 35.5938L18.3749 35.1789C18.3367 35.1712 18.2935 35.1624 18.2935 35.0791C18.2935 34.9958 18.3367 34.9871 18.3749 34.9793L20.4218 34.5643C22.7602 34.0901 24.5775 32.2729 25.0516 29.9346L25.4665 27.8876C25.4742 27.8494 25.483 27.8062 25.5663 27.8062C25.6496 27.8062 25.6582 27.8494 25.6661 27.8876L26.0811 29.9346C26.5553 32.2729 28.3724 34.0902 30.7108 34.5643L32.7578 34.9793C32.796 34.987 32.8393 34.9958 32.8393 35.0791C32.8393 35.1624 32.7961 35.1711 32.7578 35.1789Z" fill="#582F9A"/>
</g>
<defs>
<clipPath id="clip0_85_2578">
<rect width="54" height="54" fill="white"/>
</clipPath>
</defs>
</svg>
