<svg width="55" height="55" viewBox="0 0 55 55" fill="none" xmlns="http://www.w3.org/2000/svg">
<g clip-path="url(#clip0_85_2618)">
<path d="M10.1776 31.8166C9.23044 32.3785 8.59375 33.411 8.59375 34.5898C8.59375 36.3668 10.0394 37.8125 11.8164 37.8125C13.2168 37.8125 14.4109 36.9143 14.8543 35.6641H23.2031C24.9801 35.6641 26.4258 37.1097 26.4258 38.8867C26.4258 40.6637 24.9801 42.1094 23.2031 42.1094H10.3125C7.35088 42.1094 4.94141 44.5188 4.94141 47.4805C4.94141 50.4421 7.35088 52.8516 10.3125 52.8516H21.0547C21.648 52.8516 22.1289 52.3706 22.1289 51.7773C22.1289 51.1841 21.648 50.7031 21.0547 50.7031H10.3125C8.53553 50.7031 7.08984 49.2574 7.08984 47.4805C7.08984 45.7035 8.53553 44.2578 10.3125 44.2578H23.2031C26.1647 44.2578 28.5742 41.8483 28.5742 38.8867C28.5742 35.9251 26.1647 33.5156 23.2031 33.5156H14.8543C14.6002 32.7993 14.0999 32.199 13.4552 31.8166L21.6599 18.355C22.9506 16.4149 23.6328 14.1543 23.6328 11.8164C23.6328 5.30084 18.332 0 11.8164 0C5.30084 0 0 5.30084 0 11.8164C0 14.1543 0.682236 16.4149 1.97291 18.355L10.1776 31.8166ZM11.8164 35.6641C11.2241 35.6641 10.7422 35.1822 10.7422 34.5898C10.7422 33.9975 11.2241 33.5156 11.8164 33.5156C12.4087 33.5156 12.8906 33.9975 12.8906 34.5898C12.8906 35.1822 12.4087 35.6641 11.8164 35.6641ZM11.8164 2.14844C17.1473 2.14844 21.4844 6.48549 21.4844 11.8164C21.4844 13.7358 20.9229 15.5907 19.8607 17.1805C19.8524 17.1929 19.8444 17.2054 19.8366 17.2182L11.8164 30.3773C11.8164 30.3773 3.78039 17.1929 3.77212 17.1805C2.70993 15.5907 2.14844 13.7358 2.14844 11.8164C2.14844 6.48549 6.48549 2.14844 11.8164 2.14844Z" fill="#582F9A"/>
<path d="M11.8164 17.1875C14.778 17.1875 17.1875 14.778 17.1875 11.8164C17.1875 8.85479 14.778 6.44531 11.8164 6.44531C8.85479 6.44531 6.44531 8.85479 6.44531 11.8164C6.44531 14.778 8.85479 17.1875 11.8164 17.1875ZM11.8164 8.59375C13.5934 8.59375 15.0391 10.0394 15.0391 11.8164C15.0391 13.5934 13.5934 15.0391 11.8164 15.0391C10.0394 15.0391 8.59375 13.5934 8.59375 11.8164C8.59375 10.0394 10.0394 8.59375 11.8164 8.59375Z" fill="#582F9A"/>
<path d="M43.1836 17.832C36.668 17.832 31.3672 23.1329 31.3672 29.6484C31.3672 31.9901 32.0516 34.2542 33.3463 36.1962L41.5204 49.0181C40.8875 49.4011 40.3966 49.9958 40.1458 50.7031H30.7227C30.1294 50.7031 29.6484 51.1841 29.6484 51.7773C29.6484 52.3706 30.1294 52.8516 30.7227 52.8516H40.1457C40.5891 54.1018 41.7831 55 43.1836 55C44.9606 55 46.4062 53.5543 46.4062 51.7773C46.4062 50.6085 45.7807 49.5831 44.8469 49.0181L53.021 36.1962C54.3156 34.2542 55 31.9901 55 29.6484C55 23.1329 49.6992 17.832 43.1836 17.832ZM43.1836 52.8516C42.5913 52.8516 42.1094 52.3697 42.1094 51.7773C42.1094 51.185 42.5913 50.7031 43.1836 50.7031C43.7759 50.7031 44.2578 51.185 44.2578 51.7773C44.2578 52.3697 43.7759 52.8516 43.1836 52.8516ZM51.2279 35.0125C51.2237 35.019 43.1836 47.6305 43.1836 47.6305C43.1836 47.6305 35.1435 35.0189 35.1393 35.0125C34.0771 33.4227 33.5156 31.5679 33.5156 29.6484C33.5156 24.3175 37.8527 19.9805 43.1836 19.9805C48.5145 19.9805 52.8516 24.3175 52.8516 29.6484C52.8516 31.5679 52.2901 33.4227 51.2279 35.0125Z" fill="#582F9A"/>
<path d="M43.1836 24.2773C40.222 24.2773 37.8125 26.6868 37.8125 29.6484C37.8125 32.6101 40.222 35.0195 43.1836 35.0195C46.1452 35.0195 48.5547 32.6101 48.5547 29.6484C48.5547 26.6868 46.1452 24.2773 43.1836 24.2773ZM43.1836 32.8711C41.4066 32.8711 39.9609 31.4254 39.9609 29.6484C39.9609 27.8715 41.4066 26.4258 43.1836 26.4258C44.9606 26.4258 46.4062 27.8715 46.4062 29.6484C46.4062 31.4254 44.9606 32.8711 43.1836 32.8711Z" fill="#582F9A"/>
<path d="M25.8867 52.8516C26.48 52.8516 26.9609 52.3706 26.9609 51.7773C26.9609 51.1841 26.48 50.7031 25.8867 50.7031C25.2934 50.7031 24.8125 51.1841 24.8125 51.7773C24.8125 52.3706 25.2934 52.8516 25.8867 52.8516Z" fill="#582F9A"/>
</g>
<defs>
<clipPath id="clip0_85_2618">
<rect width="55" height="55" fill="white"/>
</clipPath>
</defs>
</svg>
