<svg width="58" height="58" viewBox="0 0 58 58" fill="none" xmlns="http://www.w3.org/2000/svg">
<g clip-path="url(#clip0_85_2329)">
<path d="M49.5061 8.49391C44.0287 3.01655 36.7463 0 29 0C23.3073 0 17.7947 1.65061 13.0582 4.77354C12.5359 5.11791 12.3917 5.82048 12.736 6.34282C13.0804 6.86527 13.7831 7.0097 14.3053 6.6651C18.6707 3.78698 23.752 2.26562 29 2.26562C43.7413 2.26562 55.7343 14.2587 55.7343 29C55.7343 43.7413 43.7412 55.7344 29 55.7344C14.2587 55.7344 2.26562 43.7413 2.26562 29C2.26562 23.379 3.99032 18.0012 7.25314 13.4481C7.61757 12.9396 7.50077 12.2319 6.99226 11.8675C6.48363 11.503 5.77607 11.6198 5.41154 12.1284C1.87129 17.0686 0 22.9028 0 29C0 36.7461 3.01644 44.0287 8.49391 49.5061C13.9713 54.9836 21.2539 58 29 58C36.7461 58 44.0286 54.9834 49.5061 49.5061C54.9836 44.0287 58 36.7461 58 29C58 21.2539 54.9834 13.9713 49.5061 8.49391Z" fill="#582F9A"/>
<path d="M48.1007 42.4557C48.6285 42.7915 49.3288 42.6353 49.6645 42.1074C52.1533 38.1914 53.4688 33.6589 53.4688 29C53.4688 22.4643 50.9236 16.3196 46.3021 11.6981C41.6806 7.07644 35.5359 4.53125 29 4.53125C22.4642 4.53125 16.3196 7.07644 11.698 11.6981C7.07644 16.3196 4.53125 22.4643 4.53125 29C4.53125 35.5359 7.07644 41.6804 11.698 46.3021C16.3195 50.9236 22.4642 53.4688 29 53.4688C33.6593 53.4688 38.1915 52.1535 42.1067 49.6648C42.6347 49.3292 42.7907 48.6291 42.4551 48.1011C42.1195 47.5731 41.4193 47.4171 40.8913 47.7527C37.34 50.0101 33.228 51.2032 28.9999 51.2032C16.7572 51.2032 6.79687 41.2428 6.79687 29C6.79687 16.7572 16.7572 6.79687 29 6.79687C41.2428 6.79687 51.2031 16.7572 51.2031 29C51.2031 33.2277 50.0098 37.34 47.7522 40.8921C47.4166 41.4201 47.5726 42.1202 48.1007 42.4557Z" fill="#582F9A"/>
<path d="M26.5077 27.1459H32.3168C33.6482 27.1459 34.9005 26.6244 35.843 25.6773C36.7879 24.7281 37.3083 23.4668 37.3083 22.1256C37.3083 20.7845 36.788 19.5231 35.8432 18.5739C34.9007 17.6269 33.6484 17.1052 32.3169 17.1052H26.5078C25.8822 17.1052 25.375 17.6125 25.375 18.238V26.013C25.3749 26.6386 25.8822 27.1459 26.5077 27.1459ZM27.6405 19.371H32.3168C33.0411 19.371 33.723 19.6555 34.2373 20.1722C34.7566 20.6939 35.0426 21.3876 35.0426 22.1256C35.0426 22.8635 34.7566 23.5573 34.2372 24.0789C33.7229 24.5957 33.041 24.8802 32.3168 24.8802H27.6405V19.371Z" fill="#582F9A"/>
<path d="M32.3107 31.6773C34.8445 31.6773 37.2345 30.6781 39.0406 28.8634C40.8415 27.0541 41.8333 24.6613 41.8333 22.1257C41.8333 19.59 40.8415 17.1972 39.0407 15.3879C37.2347 13.5735 34.8446 12.5742 32.3107 12.5742H21.9703C21.3446 12.5742 20.8375 13.0815 20.8375 13.707V24.8804H17.2891C16.6634 24.8804 16.1562 25.3876 16.1562 26.0132V30.5445C16.1562 31.1701 16.6634 31.6773 17.2891 31.6773H20.8375V33.9431H17.2891C16.6634 33.9431 16.1562 34.4503 16.1562 35.0759V39.6071C16.1562 40.2326 16.6634 40.7399 17.2891 40.7399H20.8375V44.2931C20.8375 44.9186 21.3446 45.4259 21.9703 45.4259H26.5015C27.1272 45.4259 27.6343 44.9186 27.6343 44.2931V40.7399H35.4313C36.057 40.7399 36.5641 40.2326 36.5641 39.6071V35.0759C36.5641 34.4503 36.057 33.9431 35.4313 33.9431H27.6343V31.6773H32.3107ZM26.5015 36.2087H34.2985V38.4743H26.5015C25.8759 38.4743 25.3687 38.9816 25.3687 39.6071V43.1603H23.1031V39.6071C23.1031 38.9816 22.5959 38.4743 21.9703 38.4743H18.4219V36.2087H21.9703C22.5959 36.2087 23.1031 35.7014 23.1031 35.0759V30.5445C23.1031 29.919 22.5959 29.4117 21.9703 29.4117H18.4219V27.146H21.9703C22.5959 27.146 23.1031 26.6387 23.1031 26.0132V14.8398H32.3107C34.2375 14.8398 36.0573 15.6021 37.4349 16.9863C38.8103 18.368 39.5678 20.1934 39.5678 22.1257C39.5678 24.0581 38.8103 25.8832 37.4348 27.265C36.0571 28.6493 34.2373 29.4116 32.3107 29.4116H26.5016C25.876 29.4116 25.3688 29.9189 25.3688 30.5444V35.0758C25.3687 35.7014 25.876 36.2087 26.5015 36.2087Z" fill="#582F9A"/>
<path d="M9.67977 10.0543C9.96977 10.0543 10.2599 9.94364 10.4811 9.7224C10.9235 9.28004 10.9235 8.56274 10.4811 8.12026C10.0388 7.67801 9.32158 7.67801 8.8791 8.12026L8.87853 8.12083C8.43617 8.56319 8.4364 9.28015 8.87876 9.72263C9.10011 9.94375 9.38989 10.0543 9.67977 10.0543Z" fill="#582F9A"/>
<path d="M44.6994 44.7002L44.6988 44.7007C44.2565 45.1431 44.2567 45.8601 44.6991 46.3025C44.9202 46.5237 45.21 46.6342 45.5 46.6342C45.79 46.6342 46.0801 46.5236 46.3013 46.3023C46.7437 45.86 46.7437 45.1427 46.3013 44.7002C45.8591 44.2578 45.1419 44.2578 44.6994 44.7002Z" fill="#582F9A"/>
</g>
<defs>
<clipPath id="clip0_85_2329">
<rect width="58" height="58" fill="white"/>
</clipPath>
</defs>
</svg>
